<svg width="297" height="139" viewBox="0 0 297 139" fill="none" xmlns="http://www.w3.org/2000/svg">
<rect width="63.8531" height="289.293" transform="translate(0.534912 61.9158) rotate(-74.6488)" fill="#EFEEEB"/>
<rect x="195.962" y="114.664" width="62.9843" height="86.8749" transform="rotate(-74.6488 195.962 114.664)" fill="#2F2F2F"/>
<path d="M5.48753 61.9238C3.63682 61.4158 2.5484 59.5036 3.05647 57.6529L17.4307 5.29329C17.9388 3.44257 19.851 2.35415 21.7017 2.86222L294.809 77.8382L278.595 136.9L5.48753 61.9238Z" stroke="#2F2F2F" stroke-width="2.60625"/>
<path d="M52.6223 32.5542L52.4843 33.0569C51.91 32.9172 51.456 32.8647 51.1222 32.8991C50.8097 32.9215 50.5619 33.0696 50.3785 33.3436C50.1998 33.6009 50.0253 34.0395 49.8552 34.6594L46.4329 47.1252C46.2673 47.7283 46.1934 48.1945 46.2112 48.5237C46.2289 48.8529 46.3664 49.1069 46.6236 49.2856C46.8976 49.4689 47.3148 49.6555 47.8753 49.8454L47.7373 50.3481C47.3612 50.2088 46.8799 50.0586 46.2934 49.8976C45.7284 49.7245 45.1526 49.5574 44.5662 49.3964C43.9127 49.2171 43.2989 49.0575 42.7246 48.9179C42.1549 48.7615 41.6896 48.6518 41.3285 48.5887L41.4665 48.086C42.0454 48.2089 42.491 48.2592 42.8035 48.2369C43.1326 48.2191 43.3889 48.0733 43.5722 47.7993C43.7556 47.5253 43.93 47.0867 44.0956 46.4835L47.8904 32.6606L47.9702 32.7636L37.2728 47.6104L36.8707 47.5L35.0151 29.4502L31.3721 42.7203C31.2065 43.3234 31.1257 43.8148 31.1296 44.1942C31.1549 44.5615 31.306 44.8643 31.583 45.1025C31.8813 45.3285 32.3526 45.548 32.9968 45.7609L32.8588 46.2635C32.5664 46.1472 32.1773 46.0224 31.6914 45.889C31.2101 45.7388 30.7516 45.6039 30.316 45.4844C29.8971 45.3694 29.4676 45.2604 29.0273 45.1576C28.6085 45.0426 28.252 44.9628 27.958 44.9181L28.096 44.4154C28.6748 44.5383 29.1251 44.5718 29.4467 44.516C29.7897 44.448 30.0575 44.2602 30.25 43.9527C30.4471 43.6285 30.6285 43.1648 30.7941 42.5616L34.1473 30.3471C34.3175 29.7272 34.3914 29.261 34.3691 28.9486C34.3513 28.6194 34.2055 28.3631 33.9315 28.1798C33.6788 27.9843 33.27 27.8 32.7049 27.6269L32.8429 27.1242C33.1231 27.2192 33.4704 27.3325 33.8847 27.4643C34.3157 27.6006 34.7407 27.7263 35.1595 27.8413C35.5281 27.9425 35.9074 28.0376 36.2974 28.1266C36.7041 28.2203 37.0438 28.2955 37.3165 28.3523L38.8956 44.9478L38.4132 45.0316L48.2285 31.4291C48.4295 31.4843 48.6222 31.5372 48.8065 31.5878C49.0076 31.643 49.2087 31.6982 49.4097 31.7534C49.9961 31.9143 50.5765 32.0647 51.1508 32.2043C51.7418 32.3485 52.2323 32.4652 52.6223 32.5542ZM52.9219 51.9606C52.2349 51.772 51.6746 51.4831 51.241 51.0937C50.8119 50.6877 50.5278 50.2133 50.3885 49.6705C50.2659 49.1324 50.2898 48.5533 50.46 47.9334C50.6623 47.1962 50.9955 46.639 51.4594 46.2619C51.94 45.8893 52.4875 45.6342 53.1019 45.4966C53.7162 45.3589 54.3419 45.2784 54.979 45.2551C55.6373 45.2197 56.2576 45.1917 56.8398 45.1714C57.4265 45.1343 57.9197 45.0444 58.3192 44.9019C58.7354 44.7639 58.9964 44.5022 59.1022 44.1168L59.53 42.5586C59.7232 41.8549 59.7615 41.2888 59.6449 40.8604C59.545 40.4366 59.3352 40.1178 59.0156 39.9039C58.7005 39.6733 58.3252 39.4982 57.8895 39.3786C57.4707 39.2636 57.0022 39.198 56.4841 39.1819C55.9827 39.1704 55.5391 39.3099 55.153 39.6003C55.453 39.7547 55.6834 39.9981 55.8444 40.3306C56.0054 40.6631 56.0284 41.0388 55.9134 41.4576C55.7984 41.8765 55.5724 42.1748 55.2353 42.3525C54.9028 42.5135 54.5271 42.5365 54.1082 42.4215C53.6223 42.2881 53.3035 42.0384 53.1517 41.6724C53.0213 41.2943 53.009 40.9126 53.1148 40.5272C53.2344 40.0916 53.4399 39.7696 53.7313 39.5613C54.0227 39.353 54.3682 39.1776 54.7677 39.035C55.2266 38.8727 55.783 38.7822 56.4368 38.7635C57.1119 38.7326 57.8348 38.823 58.6056 39.0346C59.2925 39.2232 59.856 39.468 60.2959 39.7689C60.7404 40.0531 61.0804 40.3897 61.3159 40.7787C61.6412 41.3004 61.7903 41.8728 61.7634 42.4961C61.741 43.1025 61.6195 43.8079 61.3987 44.6121L59.4806 51.599C59.3656 52.0179 59.3414 52.3356 59.4081 52.5521C59.4916 52.7732 59.6673 52.9205 59.9354 52.9941C60.1197 53.0447 60.3071 53.0511 60.4977 53.0134C60.6882 52.9756 60.9261 52.8967 61.2113 52.7768L61.3704 53.28C60.945 53.4515 60.5478 53.5857 60.1788 53.6826C59.8145 53.7627 59.3642 53.7292 58.8281 53.582C58.3422 53.4486 57.963 53.2545 57.6907 52.9995C57.4183 52.7446 57.2421 52.4349 57.1619 52.0706C57.1031 51.6941 57.1427 51.2545 57.2807 50.7518C56.6214 51.3816 55.9227 51.7934 55.1848 51.9873C54.4637 52.1857 53.7094 52.1768 52.9219 51.9606ZM54.1027 51.2037C54.6556 51.3555 55.2103 51.3366 55.7668 51.147C56.3401 50.9621 56.9069 50.6042 57.467 50.0733L58.8193 45.1473C58.5401 45.3769 58.1802 45.5394 57.7396 45.6346C57.3037 45.7131 56.8319 45.7908 56.3243 45.8677C55.8213 45.9278 55.3236 46.0344 54.8311 46.1875C54.36 46.3284 53.9329 46.5715 53.5498 46.9168C53.1667 47.2621 52.8832 47.7698 52.6992 48.44C52.5152 49.1102 52.544 49.6947 52.7854 50.1934C53.0436 50.6967 53.4827 51.0335 54.1027 51.2037ZM65.2459 60.2357C64.3578 59.9919 63.5454 59.6698 62.8085 59.2693C62.0716 58.8688 61.5154 58.4008 61.1399 57.8653C60.7765 57.3511 60.6777 56.7925 60.8433 56.1893C61.0043 55.6028 61.3768 55.1646 61.961 54.8745C62.5451 54.5844 63.2692 54.4409 64.1332 54.4438L64.1736 54.8874C63.7728 54.9035 63.4152 55.0575 63.1008 55.3496C62.7864 55.6416 62.5694 56.0055 62.4498 56.4411C62.2382 57.2119 62.4291 57.8949 63.0224 58.4902C63.6278 59.1069 64.5003 59.5716 65.6396 59.8844C66.3936 60.0914 67.1584 60.1932 67.9341 60.1899C68.7051 60.2034 69.3873 60.0484 69.9807 59.7248C70.574 59.4012 70.9719 58.8708 71.1743 58.1336C71.326 57.5806 71.2492 57.0731 70.9437 56.6108C70.6595 56.1364 69.9393 55.7405 68.7832 55.4231L66.9234 54.9125C66.3873 54.7654 65.8794 54.5809 65.3997 54.3591C64.9201 54.1373 64.5579 53.8487 64.3131 53.4932C64.0684 53.1378 64.0219 52.6836 64.1737 52.1306C64.3301 51.561 64.7141 51.0808 65.3259 50.6902C65.9422 50.2828 66.9546 49.9752 68.363 49.7673L68.6025 50.0763C67.95 50.2215 67.3706 50.3957 66.8644 50.5991C66.3627 50.7857 66.0544 51.0884 65.9394 51.5073C65.7922 52.0435 66.1207 52.4219 66.925 52.6427L70.0665 53.5052C70.7702 53.6984 71.3877 53.976 71.9189 54.338C72.4669 54.7047 72.8654 55.1564 73.1144 55.6933C73.3635 56.2301 73.3914 56.8503 73.1982 57.5541C72.982 58.3415 72.5283 59.0098 71.837 59.5587C71.1458 60.1077 70.24 60.4536 69.1197 60.5965C68.0116 60.7608 66.7203 60.6405 65.2459 60.2357ZM68.1383 50.1921C67.3173 49.9667 66.6085 49.6279 66.0119 49.1759C65.4199 48.707 65.0117 48.1265 64.7873 47.4343C64.5629 46.7421 64.5772 45.9352 64.8302 45.0137C65.0832 44.0921 65.4829 43.3911 66.0292 42.9104C66.5756 42.4298 67.2207 42.1474 67.9645 42.0633C68.7129 41.9625 69.4976 42.0248 70.3186 42.2501C71.1563 42.4801 71.8628 42.8272 72.4381 43.2915C73.0347 43.7435 73.4452 44.3157 73.6695 45.0079C73.8939 45.7001 73.8796 46.507 73.6266 47.4285C73.3736 48.3501 72.974 49.0511 72.4276 49.5318C71.8812 50.0124 71.2339 50.3032 70.4855 50.404C69.7584 50.4927 68.976 50.422 68.1383 50.1921ZM68.2625 49.7397C68.8992 49.9145 69.4624 49.7988 69.9523 49.3928C70.4589 48.9913 70.8962 48.1204 71.2641 46.78C71.6321 45.4396 71.7008 44.4674 71.4702 43.8636C71.2563 43.2643 70.831 42.8773 70.1944 42.7025C69.5744 42.5323 69.0111 42.648 68.5045 43.0494C67.9979 43.4509 67.5606 44.3218 67.1927 45.6622C66.8247 47.0026 66.756 47.9748 66.9866 48.5786C67.2172 49.1825 67.6425 49.5695 68.2625 49.7397ZM73.365 45.3297L72.9609 45.0296C73.3518 44.5243 73.892 44.132 74.5812 43.8528C75.2705 43.5736 75.9251 43.519 76.545 43.6892C76.9807 43.8088 77.298 44.0311 77.4971 44.356C77.7008 44.6642 77.7359 45.0612 77.6025 45.5471C77.46 46.0665 77.2163 46.396 76.8717 46.5356C76.5484 46.6631 76.2444 46.6877 75.9595 46.6095C75.7082 46.5405 75.4966 46.3924 75.3248 46.165C75.1576 45.9209 75.1101 45.6016 75.1824 45.207C75.2547 44.8125 75.5077 44.3504 75.9414 43.8208L76.2474 43.9859C75.4701 44.0608 74.8892 44.2076 74.5048 44.4264C74.125 44.6285 73.7451 44.9296 73.365 45.3297ZM87.2911 46.9096C87.9278 47.0844 88.4326 47.3131 88.8055 47.5956C89.1951 47.8828 89.4909 48.2162 89.693 48.596C89.9193 49.0185 90.0305 49.4995 90.0266 50.0389C90.0226 50.5784 89.9034 51.2754 89.6688 52.1299L87.8266 58.8403C87.6334 59.544 87.6447 60.0606 87.8605 60.3901C88.0931 60.7242 88.5529 60.9856 89.2399 61.1742L89.095 61.702C88.8147 61.607 88.3837 61.4707 87.8019 61.2929C87.2247 61.0984 86.6596 60.9253 86.1067 60.7735C85.5537 60.6217 85.0046 60.489 84.4592 60.3753C83.9352 60.2494 83.5369 60.1581 83.2642 60.1013L83.4091 59.5735C84.0123 59.7391 84.474 59.7307 84.7944 59.5484C85.1147 59.366 85.3714 58.923 85.5646 58.2193L87.5586 50.956C87.7012 50.4366 87.7904 49.9476 87.8262 49.4889C87.8621 49.0303 87.766 48.6255 87.538 48.2747C87.3267 47.9284 86.9195 47.6725 86.3163 47.5069C85.6126 47.3137 84.9375 47.3445 84.2909 47.5995C83.6611 47.859 83.0988 48.2992 82.6041 48.9201C82.1306 49.5289 81.7766 50.2605 81.542 51.115L80.0103 56.6945C79.8171 57.3982 79.8117 57.9102 79.994 58.2305C80.1764 58.5509 80.5691 58.7938 81.1723 58.9594L81.0274 59.4872C80.7639 59.3968 80.3664 59.2697 79.8348 59.1057C79.3246 58.9296 78.7931 58.7657 78.2402 58.6139C77.6872 58.4621 77.113 58.3225 76.5173 58.195C75.9263 58.0508 75.4861 57.9479 75.1966 57.8865L75.3415 57.3587C76.0285 57.5473 76.5489 57.555 76.9027 57.3819C77.2733 57.2134 77.5552 56.7772 77.7484 56.0735L79.908 48.207C80.115 47.453 80.1327 46.8633 79.9612 46.4379C79.7943 45.9957 79.3423 45.6734 78.6051 45.471L78.75 44.9432C79.2723 45.1406 79.7848 45.3084 80.2875 45.4464C80.7734 45.5798 81.241 45.6811 81.6905 45.7504C82.1613 45.8076 82.5971 45.8282 82.9979 45.8121L82.1837 48.7777C82.9321 47.758 83.7515 47.1361 84.6418 46.912C85.5535 46.6758 86.4366 46.675 87.2911 46.9096ZM100 50.3986C101.072 50.693 101.971 51.1921 102.697 51.8958C103.423 52.5995 103.899 53.523 104.126 54.6663C104.369 55.8142 104.27 57.1924 103.829 58.8009C103.387 60.4094 102.768 61.645 101.973 62.5077C101.199 63.3583 100.32 63.9008 99.3371 64.1354C98.3538 64.3699 97.326 64.34 96.2537 64.0456C95.1981 63.7558 94.2991 63.2568 93.5566 62.5484C92.8309 61.8447 92.344 60.9273 92.096 59.7961C91.8693 58.6528 91.9768 57.277 92.4183 55.6685C92.8599 54.06 93.47 52.8221 94.2487 51.9548C95.0441 51.0921 95.9334 50.5434 96.9167 50.3089C97.9168 50.0789 98.9446 50.1088 100 50.3986ZM99.8622 50.9013C98.9071 50.6391 97.9839 50.9172 97.0926 51.7355C96.218 52.5585 95.4726 54.0926 94.8562 56.3377C94.2398 58.5829 94.0976 60.2826 94.4294 61.4367C94.7825 62.5787 95.4366 63.2808 96.3916 63.543C97.3467 63.8052 98.2592 63.5331 99.1292 62.7269C100.02 61.9086 100.774 60.3768 101.391 58.1316C102.007 55.8865 102.141 54.1845 101.792 53.0258C101.461 51.8716 100.817 51.1635 99.8622 50.9013ZM113.122 47.109L108.354 64.4757C108.161 65.1794 108.172 65.696 108.388 66.0255C108.621 66.3596 109.08 66.621 109.767 66.8096L109.622 67.3374C109.342 67.2424 108.911 67.1061 108.329 66.9283C107.769 66.7384 107.195 66.563 106.609 66.402C106.039 66.2456 105.457 66.1036 104.861 65.9762C104.27 65.8319 103.83 65.7291 103.54 65.6676L103.685 65.1399C104.372 65.3285 104.893 65.3362 105.246 65.1631C105.617 64.9945 105.899 64.5584 106.092 63.8547L110.032 49.504C110.239 48.75 110.257 48.1603 110.085 47.7348C109.918 47.2926 109.466 46.9703 108.729 46.7679L108.874 46.2401C109.396 46.4376 109.909 46.6053 110.411 46.7433C110.897 46.8767 111.365 46.9781 111.814 47.0474C112.285 47.1046 112.721 47.1251 113.122 47.109ZM119.051 49.2503C119.486 49.3699 119.82 49.6325 120.051 50.0383C120.282 50.444 120.337 50.8647 120.218 51.3003C120.098 51.736 119.836 52.0693 119.43 52.3002C119.024 52.5312 118.603 52.5868 118.168 52.4672C117.732 52.3477 117.399 52.085 117.168 51.6792C116.937 51.2735 116.881 50.8528 117.001 50.4172C117.12 49.9816 117.383 49.6483 117.789 49.4173C118.195 49.1864 118.615 49.1307 119.051 49.2503ZM118.709 55.6157L115.721 66.4982C115.528 67.2019 115.539 67.7185 115.755 68.048C115.988 68.3821 116.448 68.6435 117.134 68.8321L116.99 69.3599C116.709 69.2649 116.278 69.1286 115.697 68.9508C115.136 68.7609 114.563 68.5855 113.976 68.4245C113.406 68.2681 112.824 68.1262 112.228 67.9987C111.637 67.8544 111.197 67.7516 110.908 67.6902L111.052 67.1624C111.739 67.351 112.26 67.3587 112.614 67.1856C112.984 67.017 113.266 66.5809 113.459 65.8772L115.619 58.0107C115.826 57.2567 115.844 56.667 115.672 56.2415C115.505 55.7993 115.053 55.477 114.316 55.2747L114.461 54.7469C114.983 54.9443 115.496 55.112 115.998 55.25C116.484 55.3834 116.952 55.4848 117.401 55.5541C117.872 55.6113 118.308 55.6318 118.709 55.6157ZM121.791 70.8672C121.104 70.6786 120.544 70.3897 120.11 70.0003C119.681 69.5943 119.397 69.1199 119.258 68.5771C119.135 68.039 119.159 67.46 119.329 66.84C119.532 66.1028 119.865 65.5456 120.329 65.1685C120.809 64.7959 121.357 64.5408 121.971 64.4032C122.585 64.2655 123.211 64.1851 123.848 64.1617C124.507 64.1263 125.127 64.0984 125.709 64.078C126.296 64.0409 126.789 63.951 127.188 63.8085C127.605 63.6705 127.866 63.4088 127.971 63.0234L128.399 61.4652C128.592 60.7615 128.631 60.1955 128.514 59.767C128.414 59.3432 128.204 59.0244 127.885 58.8105C127.57 58.5799 127.194 58.4048 126.759 58.2852C126.34 58.1702 125.871 58.1046 125.353 58.0885C124.852 58.077 124.408 58.2165 124.022 58.5069C124.322 58.6613 124.553 58.9047 124.714 59.2372C124.875 59.5697 124.898 59.9454 124.783 60.3642C124.668 60.7831 124.442 61.0814 124.104 61.2592C123.772 61.4201 123.396 61.4431 122.977 61.3281C122.492 61.1947 122.173 60.945 122.021 60.5791C121.891 60.2009 121.878 59.8192 121.984 59.4338C122.104 58.9982 122.309 58.6762 122.601 58.4679C122.892 58.2596 123.237 58.0842 123.637 57.9416C124.096 57.7793 124.652 57.6888 125.306 57.6701C125.981 57.6393 126.704 57.7296 127.475 57.9412C128.162 58.1298 128.725 58.3746 129.165 58.6755C129.61 58.9597 129.95 59.2963 130.185 59.6853C130.51 60.207 130.66 60.7795 130.633 61.4027C130.61 62.0091 130.489 62.7145 130.268 63.5187L128.35 70.5056C128.235 70.9245 128.211 71.2422 128.277 71.4587C128.361 71.6798 128.537 71.8271 128.805 71.9007C128.989 71.9513 129.176 71.9577 129.367 71.92C129.557 71.8822 129.795 71.8033 130.08 71.6834L130.24 72.1866C129.814 72.3581 129.417 72.4923 129.048 72.5892C128.684 72.6693 128.233 72.6358 127.697 72.4886C127.211 72.3552 126.832 72.1611 126.56 71.9061C126.288 71.6512 126.111 71.3415 126.031 70.9772C125.972 70.6007 126.012 70.1611 126.15 69.6585C125.491 70.2882 124.792 70.7 124.054 70.8939C123.333 71.0923 122.579 71.0834 121.791 70.8672ZM122.972 70.1103C123.525 70.2621 124.08 70.2432 124.636 70.0536C125.209 69.8687 125.776 69.5108 126.336 68.9799L127.689 64.0539C127.409 64.2835 127.049 64.446 126.609 64.5412C126.173 64.6198 125.701 64.6974 125.194 64.7743C124.691 64.8344 124.193 64.941 123.7 65.0941C123.229 65.235 122.802 65.4781 122.419 65.8234C122.036 66.1687 121.752 66.6764 121.568 67.3467C121.384 68.0169 121.413 68.6013 121.655 69.1C121.913 69.6033 122.352 69.9401 122.972 70.1103Z" fill="#2F2F2F"/>
<line x1="158.014" y1="97.2584" x2="170.445" y2="51.9772" stroke="#2F2F2F" stroke-width="1.04348"/>
<line x1="166.065" y1="99.4683" x2="178.495" y2="54.1871" stroke="#2F2F2F" stroke-width="1.04348"/>
<line x1="174.115" y1="101.678" x2="186.546" y2="56.3971" stroke="#2F2F2F" stroke-width="1.04348"/>
<line x1="182.165" y1="103.888" x2="194.596" y2="58.6071" stroke="#2F2F2F" stroke-width="1.04348"/>
</svg>
