<svg width="152" height="181" viewBox="0 0 152 181" fill="none" xmlns="http://www.w3.org/2000/svg">
<ellipse cx="75.9999" cy="90.4346" rx="53.2174" ry="76.6957" transform="rotate(19.3787 75.9999 90.4346)" fill="#2F2F2F"/>
<ellipse cx="76.9845" cy="90.7812" rx="38.6087" ry="60" transform="rotate(19.3787 76.9845 90.7812)" fill="#EFEEEB"/>
<path d="M87.6491 56.8102L88.0262 57.059L87.699 57.9892C87.3403 59.009 87.1752 59.9188 87.2036 60.7186C87.2458 61.5232 87.4467 62.2288 87.8063 62.8354C88.1659 63.4419 88.6426 63.958 89.2362 64.3836C89.8436 64.8141 90.5332 65.165 91.3049 65.4365C92.118 65.7225 92.7902 65.7266 93.3215 65.4489C93.8617 65.1898 94.2966 64.5917 94.6262 63.6546C94.7668 63.255 94.8256 62.9117 94.8026 62.6249C94.7885 62.3567 94.6772 62.1007 94.4687 61.857C94.2691 61.632 93.9569 61.375 93.5319 61.0862L84.2386 54.7511C83.8502 54.4906 83.5275 54.3074 83.2705 54.2015C83.0273 54.1005 82.8097 54.1246 82.6178 54.274C82.4348 54.4419 82.2395 54.7991 82.0319 55.3455L81.6475 55.1173C81.7866 54.8101 81.9361 54.4291 82.096 53.9743C82.2698 53.5244 82.4415 53.0582 82.6111 52.5759C82.8002 52.0384 82.9726 51.5261 83.1285 51.0389C83.2982 50.5566 83.4201 50.1659 83.4943 49.8668L83.8787 50.0949C83.7414 50.5731 83.6681 50.9577 83.6587 51.2486C83.6493 51.5396 83.7419 51.8044 83.9367 52.0433C84.1314 52.2821 84.455 52.5508 84.9075 52.8493L94.2009 59.1844C94.5982 59.4635 94.9234 59.6398 95.1763 59.7133C95.4381 59.8054 95.6605 59.7675 95.8435 59.5996C96.0402 59.4365 96.2283 59.1 96.4076 58.5901L96.7847 58.8389C96.674 59.1096 96.5269 59.4838 96.3434 59.9612C96.16 60.4387 95.9883 60.9049 95.8284 61.3596C95.6538 61.8558 95.4862 62.3543 95.3255 62.8553C95.1599 63.37 94.9875 63.8823 94.8081 64.3922C94.3186 65.7841 93.6656 66.7159 92.8493 67.1876C92.0467 67.6641 91.1769 67.7376 90.2398 67.408C89.1649 67.0299 88.3165 66.3598 87.6948 65.3978C87.082 64.4544 86.7335 63.3098 86.6494 61.9639C86.5791 60.6228 86.8154 59.1806 87.3583 57.6371L87.6491 56.8102ZM87.3346 72.4977C87.4897 72.0567 87.4608 71.5665 87.2479 71.027C87.0439 70.5062 86.6994 69.9669 86.2142 69.409C85.7379 68.8699 85.1738 68.3385 84.5217 67.8149C83.8648 67.3051 83.1609 66.8407 82.4101 66.4217C81.6592 66.0028 80.9186 65.6648 80.1882 65.4079C79.5681 65.1898 79.0794 65.1263 78.7221 65.2175C78.36 65.3224 78.1111 65.5678 77.9754 65.9536C77.8202 66.3946 77.8447 66.8756 78.0486 67.3964C78.2615 67.9358 78.6037 68.4821 79.0751 69.035C79.5602 69.5928 80.1313 70.1266 80.7882 70.6365C81.4451 71.1463 82.1421 71.6082 82.8792 72.0223C83.63 72.4413 84.3775 72.7816 85.1217 73.0434C85.7556 73.2664 86.2443 73.3299 86.5878 73.2339C86.9451 73.1427 87.194 72.8973 87.3346 72.4977ZM81.8471 63.9937C82.4535 64.207 83.0859 64.5224 83.7443 64.9398C84.4028 65.3572 85.0253 65.8549 85.6118 66.4329C86.1983 67.0108 86.6985 67.6359 87.1125 68.308C87.5216 68.994 87.787 69.7145 87.9085 70.4696C88.0439 71.2296 87.9758 71.9954 87.7044 72.7671C87.4038 73.6216 86.8952 74.2092 86.1784 74.5301C85.4705 74.8695 84.5653 74.8454 83.4628 74.4576C82.8564 74.2443 82.224 73.929 81.5656 73.5115C80.9071 73.0941 80.2847 72.5964 79.6982 72.0184C79.1117 71.4405 78.6138 70.8085 78.2047 70.1226C77.7907 69.4505 77.516 68.7344 77.3807 67.9745C77.2592 67.2194 77.3341 66.4559 77.6056 65.6842C77.9061 64.8298 78.4172 64.2352 79.1388 63.9006C79.8557 63.5797 80.7584 63.6108 81.8471 63.9937ZM74.6137 75.1147L75.2463 73.3163L83.2419 78.9161C83.3514 79.0011 83.4977 79.0913 83.681 79.1867C83.8731 79.3007 84.0592 79.3662 84.2391 79.383C84.419 79.3998 84.5478 79.298 84.6253 79.0775C84.7319 78.7743 84.6704 78.4429 84.4407 78.0834C84.211 77.7238 83.7587 77.2705 83.0839 76.7235L82.4136 76.1857L82.5518 75.793L83.879 76.8405C84.3851 77.2508 84.7413 77.6471 84.9475 78.0294C85.1489 78.4254 85.2514 78.7944 85.255 79.1364C85.2675 79.497 85.2253 79.8151 85.1284 80.0907C84.983 80.5041 84.7823 80.7665 84.5263 80.8778C84.2842 80.9939 84.0091 81.0056 83.701 80.9127C83.402 80.8385 83.0991 80.7087 82.7926 80.5235C82.4861 80.3382 82.1958 80.151 81.9217 79.9616L74.6137 75.1147ZM81.0727 83.9604C81.3282 84.1586 81.582 84.3176 81.8341 84.4373C82.0814 84.5707 82.3023 84.6252 82.4968 84.6007C82.7002 84.5948 82.8479 84.4609 82.94 84.1991C83.0757 83.8132 82.9848 83.3011 82.6673 82.6629C82.3587 82.0434 81.862 81.3421 81.1773 80.5593C80.5014 79.795 79.676 78.9937 78.7011 78.1552C77.7399 77.3216 76.6791 76.5071 75.5187 75.7118L78.5862 77.5573C80.017 78.7729 81.1177 79.826 81.8885 80.7165C82.6593 81.6071 83.1544 82.4007 83.374 83.0973C83.5887 83.8078 83.5845 84.48 83.3616 85.1139C83.2064 85.5549 82.9916 85.8355 82.717 85.9557C82.4514 86.0946 82.1528 86.1289 81.8213 86.0588C81.4898 85.9886 81.157 85.8561 80.8229 85.6612C80.484 85.48 80.1637 85.2899 79.8621 85.0909L72.8105 80.2412L73.4649 78.3808L81.0727 83.9604ZM79.255 89.1283C79.6337 89.4164 80.0022 89.6234 80.3605 89.7494C80.7326 89.8803 80.972 89.7942 81.0786 89.491C81.2241 89.0776 81.1356 88.5586 80.8132 87.9342C80.4908 87.3098 79.9666 86.5988 79.2405 85.8014C78.5281 85.0089 77.6573 84.1606 76.628 83.2565C75.6077 82.3711 74.4584 81.4558 73.1803 80.5107L75.659 81.9168C76.9032 82.9584 77.9415 83.8811 78.7737 84.6849C79.6198 85.4935 80.2753 86.2274 80.7404 86.8865C81.2054 87.5456 81.4933 88.1579 81.6041 88.7234C81.7287 89.2938 81.6941 89.8546 81.5002 90.4058C81.2966 90.9846 80.9931 91.3192 80.5896 91.4096C80.1862 91.5 79.7505 91.4397 79.2828 91.2287C78.8239 91.0363 78.3868 90.7819 77.9716 90.4655L72.6408 86.3372C72.262 86.0492 71.9552 85.887 71.7201 85.8508C71.4989 85.8194 71.3398 85.9416 71.2428 86.2172C71.1507 86.479 71.2057 86.7849 71.4079 87.1347C71.6052 87.4984 72.0664 87.9703 72.7914 88.5505L73.4618 89.0883L73.3236 89.4811L71.9964 88.4335C71.4854 88.037 71.1293 87.6407 70.9279 87.2446C70.7216 86.8624 70.6191 86.4934 70.6204 86.1376C70.603 85.7908 70.6452 85.4727 70.747 85.1833C70.8682 84.8388 71.0202 84.5826 71.2032 84.4146C71.3675 84.2556 71.5518 84.1501 71.7559 84.098C72.0759 84.0247 72.4192 84.0835 72.7857 84.2744C73.1659 84.4701 73.5819 84.7403 74.0336 85.085L79.255 89.1283ZM77.1044 100.79C77.2304 100.432 77.1185 99.9354 76.7685 99.3013C76.4275 98.6858 75.9053 97.9911 75.2019 97.2171C74.5074 96.4618 73.6955 95.6884 72.766 94.8969C71.8316 94.1192 70.8341 93.3889 69.7734 92.7061L71.8751 93.8634C73.472 95.091 74.7178 96.1719 75.6126 97.1061C76.5212 98.0451 77.1266 98.8775 77.4289 99.6033C77.7262 100.343 77.7683 101.016 77.555 101.622C77.3272 102.27 76.9042 102.702 76.2862 102.918C75.6633 103.148 74.8626 103.091 73.8841 102.747C73.264 102.529 72.6133 102.199 71.9322 101.758C71.2462 101.331 70.5985 100.817 69.9893 100.215C69.3753 99.6277 68.8454 98.9767 68.3998 98.2625C67.9631 97.5669 67.6702 96.8367 67.521 96.0718C67.3857 95.3119 67.4538 94.546 67.7252 93.7743C67.8706 93.3609 68.1255 93.0324 68.4899 92.7889C68.8495 92.5592 69.2829 92.4716 69.7903 92.5262L70.1455 92.837C69.5678 92.8506 69.1319 92.945 68.8379 93.1204C68.5391 93.3095 68.3291 93.5763 68.2079 93.9209C68.0431 94.3894 68.0647 94.9003 68.2728 95.4536C68.4946 96.0116 68.8457 96.5765 69.326 97.1481C69.8064 97.7197 70.3657 98.2648 71.004 98.7836C71.6512 99.321 72.3158 99.787 72.9977 100.182C73.6886 100.595 74.3441 100.911 74.9642 101.129C75.5706 101.342 76.05 101.41 76.4024 101.333C76.7637 101.274 76.9977 101.093 77.1044 100.79ZM81.7299 98.9325C81.6273 99.2681 81.541 99.6017 81.4708 99.9332C81.3958 100.278 81.3581 100.606 81.3576 100.915L67.0608 90.7763C66.5401 90.4074 66.1183 90.3519 65.7952 90.6099C65.4722 90.868 65.2016 91.3071 64.9835 91.9272L64.593 91.6505C64.7037 91.3797 64.8625 90.9942 65.0694 90.494C65.2577 90.0028 65.4512 89.4746 65.65 88.9096C65.8002 88.4824 65.946 88.0458 66.0874 87.6C66.2149 87.1493 66.3106 86.8113 66.3744 86.586L66.7649 86.8627C66.5903 87.3588 66.5608 87.751 66.6762 88.0394C66.7778 88.3229 67.0455 88.6184 67.4794 88.9259L81.7299 98.9325ZM76.834 92.3789C77.1687 93.1005 77.5085 93.7853 77.8536 94.4332C78.2125 95.086 78.6727 95.7589 79.2342 96.4519C79.7957 97.145 80.5408 97.9103 81.4695 98.7481L81.117 98.6937C80.2865 98.0609 79.5881 97.4049 79.0218 96.7256C78.4643 96.065 77.9835 95.3848 77.5792 94.6851C77.1887 93.9902 76.824 93.2658 76.4853 92.5117L76.834 92.3789ZM78.6227 109.681C78.9568 109.876 79.2039 110.165 79.3639 110.546C79.5191 110.941 79.5361 111.311 79.4149 111.656C79.2889 112.014 79.061 112.244 78.7313 112.344C78.3968 112.459 78.0625 112.419 77.7284 112.224C77.3943 112.029 77.1497 111.734 76.9945 111.339C76.8345 110.957 76.8174 110.587 76.9435 110.229C77.0647 109.884 77.2925 109.655 77.6271 109.54C77.9568 109.439 78.2887 109.486 78.6227 109.681ZM73.3288 107.099C74.0815 107.689 74.5426 107.743 74.7123 107.261C74.8237 106.944 74.7508 106.601 74.4936 106.231C74.2363 105.862 73.7978 105.414 73.1782 104.886L72.5151 104.327L72.6533 103.935L73.9732 105.003C74.4793 105.413 74.8331 105.816 75.0345 106.212C75.2358 106.609 75.3359 106.984 75.3347 107.34C75.3424 107.715 75.2978 108.04 75.2008 108.315C75.0457 108.756 74.8422 109.049 74.5903 109.192C74.3385 109.336 74.0606 109.378 73.7566 109.317C73.4527 109.257 73.1406 109.131 72.8203 108.941C72.5138 108.756 72.2214 108.553 71.9432 108.331L66.4577 103.916C66.1066 103.637 65.8066 103.478 65.5577 103.437C65.3179 103.414 65.1519 103.534 65.0598 103.796C64.9628 104.071 65.0223 104.387 65.2382 104.741C65.4542 105.096 65.9085 105.565 66.6011 106.15L67.2642 106.708L67.126 107.101L65.8061 106.033C65.3365 105.651 64.9916 105.266 64.7716 104.879C64.5654 104.497 64.456 104.125 64.4435 103.765C64.4171 103.399 64.4597 103.058 64.5712 102.741C64.7796 102.149 65.058 101.797 65.4064 101.688C65.7547 101.578 66.1397 101.628 66.5613 101.838C66.9829 102.049 67.4102 102.331 67.8433 102.684L73.3288 107.099ZM71.5681 117.322C71.7523 116.799 71.7229 116.2 71.4799 115.526C71.232 114.866 70.8111 114.191 70.2172 113.502C69.6233 112.813 68.8969 112.171 68.0382 111.574C67.1745 110.992 66.219 110.516 65.1717 110.148C64.4688 109.901 63.9129 109.852 63.5038 110.003C63.1037 110.172 62.8285 110.47 62.6782 110.897C62.5037 111.393 62.4759 111.956 62.5949 112.586C62.7139 113.217 63.0672 113.93 63.6547 114.725L63.3439 115.08C62.9813 114.658 62.6614 114.158 62.3845 113.581C62.1076 113.004 61.9258 112.398 61.8392 111.763C61.7616 111.147 61.827 110.543 62.0354 109.951C62.3262 109.124 62.8139 108.552 63.4983 108.235C64.1827 107.918 65.0279 107.937 66.0339 108.291C66.6678 108.514 67.3185 108.843 67.9859 109.279C68.6622 109.734 69.298 110.26 69.8935 110.856C70.4978 111.471 70.9998 112.136 71.3992 112.849C71.8124 113.568 72.0843 114.314 72.2148 115.087C72.3453 115.861 72.2748 116.634 72.0033 117.406C71.7901 118.012 71.4474 118.48 70.9753 118.809C70.517 119.144 70.0122 119.214 69.461 119.02C69.1992 118.928 68.9591 118.774 68.7409 118.558C68.5316 118.36 68.3831 118.122 68.2953 117.844C68.2075 117.565 68.2169 117.274 68.3235 116.971C68.4253 116.681 68.5762 116.494 68.7763 116.41C68.9901 116.33 69.2073 116.329 69.4278 116.407C69.8275 116.547 70.1093 116.825 70.2735 117.239C70.4514 117.657 70.5045 118.079 70.4329 118.503C70.6743 118.433 70.8889 118.307 71.0767 118.125C71.2783 117.948 71.4421 117.681 71.5681 117.322ZM59.6893 118.734C59.573 119.065 59.6464 119.516 59.9096 120.089C60.1865 120.666 60.6057 121.302 61.1672 121.995C61.7287 122.688 62.3988 123.38 63.1775 124.072C63.9562 124.764 64.796 125.393 65.6969 125.957L63.5879 124.821C62.3113 123.783 61.3173 122.845 60.6057 122.006C59.9079 121.172 59.4537 120.416 59.2431 119.738C59.0463 119.065 59.0448 118.453 59.2387 117.902C59.4665 117.254 59.8729 116.847 60.4578 116.681C61.0378 116.529 61.693 116.582 62.4234 116.838C63.0849 117.071 63.7628 117.433 64.4569 117.925C65.1649 118.422 65.8369 118.999 66.4729 119.657C67.1041 120.328 67.6469 121.03 68.1015 121.762C68.5561 122.495 68.8721 123.226 69.0495 123.954C69.2221 124.696 69.1994 125.377 68.9812 125.998C68.8116 126.48 68.442 126.76 67.8724 126.839C67.3117 126.936 66.6308 126.758 65.8297 126.306L65.7857 126.035C66.4821 126.388 67.0848 126.546 67.5937 126.508C68.1163 126.475 68.4552 126.238 68.6103 125.797C68.7363 125.439 68.6905 124.997 68.4727 124.471C68.2639 123.964 67.9218 123.418 67.4463 122.833C66.9797 122.266 66.4277 121.7 65.7902 121.135C65.1478 120.584 64.4584 120.078 63.7221 119.618C62.9948 119.176 62.2659 118.827 61.5355 118.57C60.9429 118.362 60.5077 118.278 60.2298 118.32C59.947 118.375 59.7669 118.513 59.6893 118.734ZM68.1102 127.55C68.0076 127.885 67.9188 128.226 67.8438 128.571C67.7688 128.916 67.7311 129.244 67.7306 129.553L59.5027 123.755C59.3883 123.684 59.2375 123.585 59.0502 123.457C58.8718 123.348 58.6926 123.285 58.5127 123.268C58.3279 123.265 58.1944 123.38 58.112 123.615C58.015 123.89 58.0721 124.212 58.2832 124.581C58.4942 124.949 58.9534 125.405 59.6606 125.948L60.3382 126.465L60.2 126.858L58.8728 125.81C58.3894 125.423 58.0377 125.037 57.8177 124.649C57.6066 124.281 57.4899 123.93 57.4677 123.597C57.4317 123.259 57.4622 122.953 57.5591 122.677C57.7481 122.139 58.0606 121.823 58.4965 121.729C58.8764 121.661 59.2586 121.742 59.643 121.97C60.0411 122.203 60.4344 122.449 60.8228 122.71L68.1102 127.55Z" fill="#2F2F2F"/>
</svg>
