<svg width="224" height="105" viewBox="0 0 224 105" fill="none" xmlns="http://www.w3.org/2000/svg">
<path d="M2.76099 3.45654L221.053 3.45654L221.053 100.753L132.531 100.753H111.907H89.3577L2.76099 100.753L2.76099 3.45654Z" stroke="#2F2F2F" stroke-width="5"/>
<path d="M57.4297 64.3054V63.6454C58.1777 63.6014 58.7387 63.5134 59.1127 63.3815C59.5087 63.2495 59.7727 62.9855 59.9047 62.5895C60.0367 62.1935 60.1027 61.5995 60.1027 60.8075L60.1027 44.4401C60.1027 43.6262 60.0367 43.0322 59.9047 42.6582C59.7727 42.2622 59.5087 41.9982 59.1127 41.8662C58.7387 41.7122 58.1777 41.6243 57.4297 41.6023V40.9423C57.9357 40.9643 58.5737 40.9863 59.3437 41.0083C60.1137 41.0303 60.8726 41.0413 61.6206 41.0413C62.4786 41.0413 63.2815 41.0303 64.0295 41.0083C64.7775 40.9863 65.3825 40.9643 65.8444 40.9423V41.6023C65.0965 41.6243 64.5245 41.7122 64.1285 41.8662C63.7545 41.9982 63.5015 42.2622 63.3695 42.6582C63.2375 43.0322 63.1715 43.6262 63.1715 44.4401L63.1715 60.8075C63.1715 61.5995 63.2375 62.1935 63.3695 62.5895C63.5015 62.9855 63.7545 63.2495 64.1285 63.3815C64.5245 63.5134 65.0965 63.6014 65.8444 63.6454V64.3054C65.3825 64.2614 64.7775 64.2394 64.0295 64.2394C63.2815 64.2174 62.4786 64.2064 61.6206 64.2064C60.8726 64.2064 60.1137 64.2174 59.3437 64.2394C58.5737 64.2394 57.9357 64.2614 57.4297 64.3054ZM43.6363 64.3054V63.6454C44.3842 63.6014 44.9452 63.5134 45.3192 63.3815C45.7152 63.2495 45.9792 62.9855 46.1112 62.5895C46.2432 62.1935 46.3092 61.5995 46.3092 60.8075L46.3092 44.4401C46.3092 43.6262 46.2432 43.0322 46.1112 42.6582C45.9792 42.2622 45.7152 41.9982 45.3192 41.8662C44.9452 41.7122 44.3842 41.6243 43.6363 41.6023V40.9423C44.0982 40.9643 44.7032 40.9863 45.4512 41.0083C46.1992 41.0303 47.0021 41.0413 47.8601 41.0413C48.6301 41.0413 49.389 41.0303 50.137 41.0083C50.907 40.9863 51.545 40.9643 52.0509 40.9423V41.6023C51.303 41.6243 50.731 41.7122 50.335 41.8662C49.961 41.9982 49.708 42.2622 49.576 42.6582C49.444 43.0322 49.378 43.6262 49.378 44.4401L49.378 60.8075C49.378 61.5995 49.444 62.1935 49.576 62.5895C49.708 62.9855 49.961 63.2495 50.335 63.3815C50.731 63.5134 51.303 63.6014 52.0509 63.6454V64.3054C51.545 64.2614 50.907 64.2394 50.137 64.2394C49.389 64.2174 48.6301 64.2064 47.8601 64.2064C47.0021 64.2064 46.1992 64.2174 45.4512 64.2394C44.7032 64.2394 44.0982 64.2614 43.6363 64.3054ZM48.2231 52.8878V52.2279H61.2576V52.8878H48.2231ZM72.7066 64.5364C71.8047 64.5364 71.0237 64.3714 70.3637 64.0414C69.7038 63.6894 69.1978 63.2055 68.8458 62.5895C68.5158 61.9735 68.3508 61.2585 68.3508 60.4446C68.3508 59.4766 68.5708 58.6846 69.0108 58.0686C69.4728 57.4527 70.0557 56.9577 70.7597 56.5837C71.4637 56.2097 72.2007 55.9017 72.9706 55.6597C73.7626 55.3957 74.5106 55.1538 75.2146 54.9338C75.9185 54.6918 76.4905 54.4168 76.9305 54.1088C77.3925 53.8008 77.6235 53.3938 77.6235 52.8878V50.8419C77.6235 49.9179 77.4805 49.214 77.1945 48.73C76.9305 48.246 76.5675 47.927 76.1055 47.773C75.6435 47.597 75.1266 47.509 74.5546 47.509C74.0046 47.509 73.4106 47.586 72.7726 47.74C72.1567 47.894 71.6617 48.213 71.2877 48.697C71.7057 48.785 72.0687 49.005 72.3767 49.357C72.6846 49.709 72.8386 50.1599 72.8386 50.7099C72.8386 51.2599 72.6626 51.6999 72.3107 52.0299C71.9587 52.3379 71.5077 52.4919 70.9577 52.4919C70.3197 52.4919 69.8467 52.2939 69.5388 51.8979C69.2528 51.4799 69.1098 51.0179 69.1098 50.5119C69.1098 49.9399 69.2528 49.478 69.5388 49.126C69.8247 48.774 70.1877 48.444 70.6277 48.136C71.1337 47.784 71.7827 47.487 72.5746 47.245C73.3886 46.9811 74.3016 46.8491 75.3135 46.8491C76.2155 46.8491 76.9855 46.9591 77.6235 47.179C78.2614 47.377 78.7894 47.674 79.2074 48.07C79.7794 48.598 80.1534 49.247 80.3294 50.0169C80.5054 50.7649 80.5934 51.6669 80.5934 52.7228V61.8965C80.5934 62.4465 80.6704 62.8425 80.8243 63.0845C81.0003 63.3265 81.2643 63.4475 81.6163 63.4475C81.8583 63.4475 82.0893 63.3925 82.3093 63.2825C82.5293 63.1725 82.7933 62.9965 83.1013 62.7545L83.4642 63.3155C83.0023 63.6674 82.5623 63.9644 82.1443 64.2064C81.7263 64.4264 81.1653 64.5364 80.4614 64.5364C79.8234 64.5364 79.2954 64.4264 78.8774 64.2064C78.4594 63.9864 78.1404 63.6674 77.9205 63.2495C77.7225 62.8095 77.6235 62.2595 77.6235 61.5995C77.0295 62.5895 76.3145 63.3265 75.4785 63.8104C74.6646 64.2944 73.7406 64.5364 72.7066 64.5364ZM73.8946 63.2165C74.6206 63.2165 75.2915 63.0075 75.9075 62.5895C76.5455 62.1715 77.1175 61.5445 77.6235 60.7086V54.2408C77.3595 54.6148 76.9745 54.9338 76.4685 55.1978C75.9625 55.4397 75.4125 55.6927 74.8186 55.9567C74.2246 56.1987 73.6526 56.4957 73.1026 56.8477C72.5746 57.1777 72.1347 57.6177 71.7827 58.1676C71.4307 58.7176 71.2547 59.4326 71.2547 60.3126C71.2547 61.1925 71.4857 61.8965 71.9477 62.4245C72.4317 62.9525 73.0806 63.2165 73.8946 63.2165ZM90.5314 47.311V48.004C89.9814 48.004 89.4974 48.048 89.0795 48.136C88.6615 48.202 88.3865 48.422 88.2545 48.796C88.1225 49.17 88.2215 49.8299 88.5515 50.7759L91.9833 60.6096L91.7524 60.5766L96.6032 47.179L97.2632 47.443L91.2244 64.4704C91.1364 64.4704 91.0484 64.4704 90.9604 64.4704C90.8724 64.4704 90.7734 64.4704 90.6634 64.4704L85.2516 49.8519C84.8996 48.972 84.5476 48.444 84.1956 48.268C83.8656 48.092 83.5797 48.004 83.3377 48.004V47.311C83.7776 47.377 84.2286 47.432 84.6906 47.476C85.1746 47.498 85.6916 47.509 86.2416 47.509C86.9235 47.509 87.6385 47.487 88.3865 47.443C89.1565 47.399 89.8714 47.355 90.5314 47.311ZM108.648 47.311V47.971C108.23 48.015 107.834 48.202 107.46 48.532C107.108 48.84 106.789 49.423 106.503 50.2809L101.718 64.4704C101.63 64.4704 101.542 64.4704 101.454 64.4704C101.366 64.4704 101.267 64.4704 101.157 64.4704L95.8442 50.9739L96.6032 47.179C96.7352 47.179 96.8562 47.179 96.9662 47.179C97.0982 47.179 97.2302 47.179 97.3622 47.179L102.51 60.8075L102.246 61.0055L105.513 51.0729C105.755 50.3249 105.843 49.742 105.777 49.324C105.733 48.884 105.513 48.565 105.117 48.367C104.743 48.147 104.16 48.015 103.368 47.971V47.311C103.764 47.333 104.105 47.355 104.391 47.377C104.677 47.377 104.952 47.388 105.216 47.41C105.502 47.41 105.81 47.41 106.14 47.41C106.646 47.41 107.097 47.399 107.493 47.377C107.911 47.355 108.296 47.333 108.648 47.311ZM117.483 46.8491C118.891 46.8491 120.156 47.157 121.278 47.773C122.4 48.389 123.291 49.357 123.951 50.6769C124.633 51.9969 124.974 53.7128 124.974 55.8247C124.974 57.9367 124.633 59.6526 123.951 60.9725C123.291 62.2705 122.4 63.2275 121.278 63.8434C120.156 64.4594 118.891 64.7674 117.483 64.7674C116.097 64.7674 114.832 64.4594 113.688 63.8434C112.566 63.2275 111.664 62.2705 110.982 60.9725C110.322 59.6526 109.992 57.9367 109.992 55.8247C109.992 53.7128 110.322 51.9969 110.982 50.6769C111.664 49.357 112.566 48.389 113.688 47.773C114.832 47.157 116.097 46.8491 117.483 46.8491ZM117.483 47.509C116.229 47.509 115.195 48.158 114.381 49.456C113.589 50.7539 113.193 52.8768 113.193 55.8247C113.193 58.7726 113.589 60.8955 114.381 62.1935C115.195 63.4695 116.229 64.1074 117.483 64.1074C118.737 64.1074 119.76 63.4695 120.552 62.1935C121.366 60.8955 121.773 58.7726 121.773 55.8247C121.773 52.8768 121.366 50.7539 120.552 49.456C119.76 48.158 118.737 47.509 117.483 47.509ZM137.739 46.8491C138.333 46.8491 138.85 46.9701 139.29 47.212C139.752 47.454 140.104 47.773 140.346 48.169C140.61 48.543 140.742 48.972 140.742 49.456C140.742 50.0059 140.566 50.4899 140.214 50.9079C139.884 51.3259 139.433 51.5349 138.861 51.5349C138.399 51.5349 137.992 51.3919 137.64 51.1059C137.288 50.7979 137.112 50.3689 137.112 49.819C137.112 49.401 137.222 49.049 137.442 48.763C137.684 48.455 137.948 48.213 138.234 48.037C138.08 47.817 137.849 47.707 137.541 47.707C136.859 47.707 136.232 47.916 135.66 48.334C135.088 48.73 134.604 49.247 134.208 49.8849C133.812 50.5229 133.504 51.2049 133.284 51.9309C133.064 52.6348 132.954 53.2948 132.954 53.9108V60.9065C132.954 61.9845 133.262 62.7105 133.878 63.0845C134.516 63.4365 135.374 63.6124 136.452 63.6124V64.3054C135.946 64.2834 135.231 64.2614 134.307 64.2394C133.383 64.1954 132.404 64.1734 131.37 64.1734C130.623 64.1734 129.875 64.1954 129.127 64.2394C128.401 64.2614 127.851 64.2834 127.477 64.3054V63.6124C128.379 63.6124 129.017 63.4475 129.391 63.1175C129.787 62.7875 129.985 62.1605 129.985 61.2365V50.9079C129.985 49.9179 129.809 49.192 129.457 48.73C129.105 48.246 128.445 48.004 127.477 48.004V47.311C128.181 47.377 128.863 47.41 129.523 47.41C130.161 47.41 130.766 47.377 131.338 47.311C131.931 47.223 132.47 47.102 132.954 46.9481V51.0729C133.196 50.4349 133.537 49.797 133.977 49.159C134.439 48.499 134.989 47.949 135.627 47.509C136.265 47.0691 136.969 46.8491 137.739 46.8491ZM147.484 41.8332V47.344H152.368V48.004H147.484V60.7745C147.484 61.8085 147.671 62.5345 148.045 62.9525C148.419 63.3705 148.936 63.5794 149.596 63.5794C150.256 63.5794 150.828 63.3155 151.312 62.7875C151.796 62.2375 152.214 61.3245 152.566 60.0486L153.226 60.2136C153.006 61.4895 152.566 62.5675 151.906 63.4475C151.268 64.3274 150.278 64.7674 148.936 64.7674C148.188 64.7674 147.572 64.6684 147.088 64.4704C146.604 64.2944 146.175 64.0304 145.801 63.6784C145.317 63.1725 144.976 62.5675 144.778 61.8635C144.602 61.1595 144.514 60.2246 144.514 59.0586V48.004H141.346V47.344H144.514V42.2952C145.064 42.2732 145.592 42.2292 146.098 42.1632C146.604 42.0972 147.066 41.9872 147.484 41.8332ZM157.599 39.0613C158.171 39.0613 158.666 39.2703 159.084 39.6883C159.502 40.1063 159.711 40.6013 159.711 41.1733C159.711 41.7452 159.502 42.2402 159.084 42.6582C158.666 43.0762 158.171 43.2852 157.599 43.2852C157.027 43.2852 156.532 43.0762 156.114 42.6582C155.696 42.2402 155.487 41.7452 155.487 41.1733C155.487 40.6013 155.696 40.1063 156.114 39.6883C156.532 39.2703 157.027 39.0613 157.599 39.0613ZM159.315 46.9481V61.2365C159.315 62.1605 159.502 62.7875 159.876 63.1175C160.272 63.4475 160.921 63.6124 161.823 63.6124V64.3054C161.449 64.2834 160.877 64.2614 160.107 64.2394C159.359 64.1954 158.6 64.1734 157.83 64.1734C157.082 64.1734 156.323 64.1954 155.553 64.2394C154.783 64.2614 154.211 64.2834 153.837 64.3054V63.6124C154.739 63.6124 155.377 63.4475 155.751 63.1175C156.147 62.7875 156.345 62.1605 156.345 61.2365V50.9079C156.345 49.9179 156.169 49.192 155.817 48.73C155.465 48.246 154.805 48.004 153.837 48.004V47.311C154.541 47.377 155.223 47.41 155.883 47.41C156.521 47.41 157.126 47.377 157.698 47.311C158.292 47.223 158.831 47.102 159.315 46.9481ZM168.19 64.5364C167.288 64.5364 166.508 64.3714 165.848 64.0414C165.188 63.6894 164.682 63.2055 164.33 62.5895C164 61.9735 163.835 61.2585 163.835 60.4446C163.835 59.4766 164.055 58.6846 164.495 58.0686C164.957 57.4527 165.54 56.9577 166.244 56.5837C166.947 56.2097 167.684 55.9017 168.454 55.6597C169.246 55.3957 169.994 55.1538 170.698 54.9338C171.402 54.6918 171.974 54.4168 172.414 54.1088C172.876 53.8008 173.107 53.3938 173.107 52.8878V50.8419C173.107 49.9179 172.964 49.214 172.678 48.73C172.414 48.246 172.051 47.927 171.589 47.773C171.127 47.597 170.61 47.509 170.038 47.509C169.488 47.509 168.894 47.586 168.256 47.74C167.64 47.894 167.145 48.213 166.771 48.697C167.189 48.785 167.552 49.005 167.86 49.357C168.168 49.709 168.322 50.1599 168.322 50.7099C168.322 51.2599 168.146 51.6999 167.794 52.0299C167.442 52.3379 166.991 52.4919 166.442 52.4919C165.804 52.4919 165.331 52.2939 165.023 51.8979C164.737 51.4799 164.594 51.0179 164.594 50.5119C164.594 49.9399 164.737 49.478 165.023 49.126C165.309 48.774 165.672 48.444 166.112 48.136C166.618 47.784 167.266 47.487 168.058 47.245C168.872 46.9811 169.785 46.8491 170.797 46.8491C171.699 46.8491 172.469 46.9591 173.107 47.179C173.745 47.377 174.273 47.674 174.691 48.07C175.263 48.598 175.637 49.247 175.813 50.0169C175.989 50.7649 176.077 51.6669 176.077 52.7228V61.8965C176.077 62.4465 176.154 62.8425 176.308 63.0845C176.484 63.3265 176.748 63.4475 177.1 63.4475C177.342 63.4475 177.573 63.3925 177.793 63.2825C178.013 63.1725 178.277 62.9965 178.585 62.7545L178.948 63.3155C178.486 63.6674 178.046 63.9644 177.628 64.2064C177.21 64.4264 176.649 64.5364 175.945 64.5364C175.307 64.5364 174.779 64.4264 174.361 64.2064C173.943 63.9864 173.624 63.6674 173.404 63.2495C173.206 62.8095 173.107 62.2595 173.107 61.5995C172.513 62.5895 171.798 63.3265 170.962 63.8104C170.148 64.2944 169.224 64.5364 168.19 64.5364ZM169.378 63.2165C170.104 63.2165 170.775 63.0075 171.391 62.5895C172.029 62.1715 172.601 61.5445 173.107 60.7086V54.2408C172.843 54.6148 172.458 54.9338 171.952 55.1978C171.446 55.4397 170.896 55.6927 170.302 55.9567C169.708 56.1987 169.136 56.4957 168.586 56.8477C168.058 57.1777 167.618 57.6177 167.266 58.1676C166.914 58.7176 166.738 59.4326 166.738 60.3126C166.738 61.1925 166.969 61.8965 167.431 62.4245C167.915 62.9525 168.564 63.2165 169.378 63.2165Z" fill="#2F2F2F"/>
</svg>
