<svg width="502" height="194" viewBox="0 0 502 194" fill="none" xmlns="http://www.w3.org/2000/svg">
<g clip-path="url(#clip0_247_1255)">
<path d="M450.304 96.6088C450.304 103.687 446.387 110.586 438.958 117.012C431.533 123.435 420.717 129.274 407.246 134.203C380.314 144.056 343.027 150.174 301.783 150.174C260.538 150.174 223.251 144.056 196.319 134.203C182.849 129.274 172.033 123.435 164.607 117.012C157.178 110.586 153.261 103.687 153.261 96.6088C153.261 89.5302 157.178 82.6315 164.607 76.2057C172.033 69.7827 182.849 63.9432 196.319 59.0149C223.251 49.1618 260.538 43.0436 301.783 43.0436C343.027 43.0436 380.314 49.1618 407.246 59.0149C420.717 63.9432 431.533 69.7827 438.958 76.2057C446.387 82.6315 450.304 89.5302 450.304 96.6088Z" stroke="#2F2F2F" stroke-width="2.43478"/>
<line x1="97.2609" y1="1.13037" x2="97.2609" y2="193.13" stroke="#2F2F2F" stroke-width="3.13043" stroke-dasharray="14.61 14.61"/>
</g>
<rect x="2.30435" y="1.65213" width="497.739" height="189.913" stroke="#2F2F2F" stroke-width="3.13043"/>
<defs>
<clipPath id="clip0_247_1255">
<rect x="0.739136" y="0.0869141" width="500.87" height="193.043" fill="white"/>
</clipPath>
</defs>
</svg>
