<svg width="267" height="104" viewBox="0 0 267 104" fill="none" xmlns="http://www.w3.org/2000/svg">
<rect x="0.826172" y="0.739258" width="265.311" height="102.876" rx="8.12177" fill="#2F2F2F"/>
<path d="M29.7485 52.6564L29.894 52.0743H31.2036C32.6394 52.0743 33.852 51.8803 34.8415 51.4923C35.831 51.0848 36.6265 50.5222 37.228 49.8043C37.8294 49.0864 38.266 48.2618 38.5376 47.3305C38.8092 46.3798 38.945 45.3612 38.945 44.2747C38.945 43.13 38.654 42.286 38.0719 41.7427C37.5093 41.1801 36.5683 40.8988 35.249 40.8988C34.6863 40.8988 34.2303 40.9764 33.8811 41.1316C33.5513 41.2674 33.2797 41.5196 33.0662 41.8883C32.8722 42.2375 32.6879 42.742 32.5133 43.4016L28.6717 57.8367C28.5165 58.4382 28.4292 58.9232 28.4097 59.2919C28.3903 59.6411 28.5165 59.903 28.7881 60.0776C29.0791 60.2329 29.6127 60.3202 30.3888 60.3396L30.2723 60.9216C29.8261 60.8828 29.2828 60.8634 28.6426 60.8634C28.0023 60.844 27.3426 60.8343 26.6636 60.8343C25.9069 60.8343 25.189 60.844 24.5099 60.8634C23.8309 60.8634 23.2876 60.8828 22.8802 60.9216L22.9966 60.3396C23.6563 60.3008 24.1704 60.2232 24.539 60.1067C24.9077 59.9903 25.1987 59.7575 25.4121 59.4083C25.6256 59.059 25.8196 58.5352 25.9942 57.8367L29.8358 43.4016C30.0104 42.7808 30.088 42.2957 30.0686 41.9465C30.0686 41.5778 29.9231 41.3159 29.6321 41.1607C29.341 40.9861 28.8366 40.8988 28.1187 40.8988L28.2642 40.3167C28.6523 40.3361 29.1858 40.3555 29.8649 40.3749C30.544 40.3943 31.2036 40.404 31.8439 40.404C32.5424 40.404 33.2408 40.3943 33.9393 40.3749C34.6572 40.3555 35.3751 40.3458 36.0929 40.3458C38.0525 40.3458 39.5077 40.7532 40.4584 41.5681C41.4091 42.3636 41.8844 43.421 41.8844 44.7404C41.8844 46.2537 41.4188 47.6119 40.4875 48.8148C39.5756 49.9983 38.2951 50.9393 36.6459 51.6378C34.9967 52.3168 33.0856 52.6564 30.9126 52.6564H29.7485ZM44.4998 60.9216H41.9679L45.4602 48.4364C45.6543 47.7768 45.7125 47.3111 45.6349 47.0395C45.5767 46.7679 45.3826 46.6321 45.0528 46.6321C44.626 46.6321 44.2379 46.8552 43.8887 47.3014C43.5394 47.7477 43.1708 48.514 42.7828 49.6006L42.4044 50.6774H41.8515L42.579 48.5529C42.8701 47.738 43.2096 47.1171 43.5977 46.6903C44.0051 46.2634 44.4222 45.9724 44.8491 45.8172C45.2953 45.6426 45.7125 45.5552 46.1005 45.5552C46.6826 45.5552 47.09 45.6814 47.3228 45.9336C47.5751 46.1858 47.7109 46.5156 47.7303 46.9231C47.7691 47.3305 47.74 47.7768 47.643 48.2618C47.5654 48.7275 47.4684 49.1834 47.3519 49.6297L44.4998 60.9216ZM51.9793 46.2828C51.5331 46.2828 51.0674 46.4962 50.5824 46.9231C50.1167 47.3305 49.6317 47.932 49.1272 48.7275C48.6422 49.5036 48.1474 50.4445 47.643 51.5505C47.1579 52.637 46.6729 53.8496 46.1878 55.1883C45.7222 56.5271 45.2662 57.9725 44.82 59.5247L45.5476 55.7995C46.1878 53.8981 46.7796 52.2974 47.3228 50.9975C47.8855 49.6976 48.4385 48.6499 48.9817 47.8544C49.525 47.0395 50.0779 46.4574 50.6406 46.1082C51.2226 45.7396 51.8338 45.5552 52.4741 45.5552C53.0173 45.5552 53.4345 45.7105 53.7255 46.0209C54.0359 46.3313 54.1911 46.7291 54.1911 47.2141C54.1911 47.6022 54.0941 47.9611 53.9001 48.2909C53.7061 48.6014 53.4539 48.8536 53.1434 49.0476C52.8524 49.2222 52.5226 49.3095 52.1539 49.3095C51.8241 49.3095 51.5428 49.2222 51.3099 49.0476C51.0965 48.8536 50.9898 48.5917 50.9898 48.2618C50.9898 47.9514 51.048 47.6798 51.1644 47.4469C51.2808 47.1947 51.4361 46.9813 51.6301 46.8067C51.8241 46.6321 52.0472 46.4962 52.2995 46.3992C52.2606 46.3604 52.2121 46.3313 52.1539 46.3119C52.1151 46.2925 52.0569 46.2828 51.9793 46.2828ZM58.8704 40.6659C58.9674 40.1615 59.2196 39.7249 59.627 39.3563C60.0539 38.9877 60.5098 38.8033 60.9949 38.8033C61.4993 38.8033 61.8874 38.9877 62.159 39.3563C62.45 39.7249 62.547 40.1615 62.45 40.6659C62.353 41.1704 62.0911 41.6069 61.6643 41.9756C61.2568 42.3442 60.8009 42.5285 60.2964 42.5285C59.8114 42.5285 59.4233 42.3442 59.1323 41.9756C58.8607 41.6069 58.7734 41.1704 58.8704 40.6659ZM57.9682 48.4364C58.3756 47.2335 58.2398 46.6321 57.5607 46.6321C57.1145 46.6321 56.7167 46.8746 56.3675 47.3596C56.0183 47.8447 55.6496 48.5917 55.2616 49.6006L54.8541 50.6774H54.3012L55.0579 48.5529C55.3489 47.738 55.6981 47.1171 56.1056 46.6903C56.513 46.2634 56.9399 45.9724 57.3861 45.8172C57.8518 45.6426 58.2786 45.5552 58.6666 45.5552C59.2875 45.5552 59.7435 45.6814 60.0345 45.9336C60.3255 46.1858 60.5001 46.5156 60.5583 46.9231C60.6165 47.3305 60.5971 47.7768 60.5001 48.2618C60.4031 48.7275 60.277 49.1834 60.1218 49.6297L57.0078 58.4479C56.8138 59.0105 56.7458 59.4568 56.8041 59.7866C56.8817 60.097 57.1048 60.2523 57.4734 60.2523C57.8615 60.2523 58.2301 60.0388 58.5793 59.612C58.9286 59.1852 59.3166 58.4091 59.7435 57.2838L60.1509 56.2069H60.7039L59.9472 58.3315C59.6755 59.0881 59.3457 59.6896 58.9577 60.1358C58.5696 60.5627 58.1525 60.8634 57.7062 61.038C57.26 61.2321 56.8138 61.3291 56.3675 61.3291C55.5332 61.3291 54.9706 61.1351 54.6795 60.747C54.3885 60.359 54.2818 59.8545 54.3594 59.2337C54.437 58.6128 54.6019 57.9531 54.8541 57.2547L57.9682 48.4364ZM65.6734 60.9216H63.1415L66.6338 48.4364C66.692 48.2618 66.7405 48.0387 66.7793 47.7671C66.8375 47.476 66.8375 47.2141 66.7793 46.9813C66.7211 46.7485 66.5368 46.6321 66.2264 46.6321C65.7995 46.6321 65.4115 46.8552 65.0623 47.3014C64.713 47.7477 64.3444 48.514 63.9563 49.6006L63.578 50.6774H63.025L63.7526 48.5529C64.0437 47.738 64.3832 47.1171 64.7712 46.6903C65.1787 46.2634 65.5958 45.9724 66.0227 45.8172C66.4689 45.6426 66.886 45.5552 67.2741 45.5552C67.8561 45.5552 68.2733 45.6911 68.5255 45.9627C68.7777 46.2149 68.9136 46.5544 68.933 46.9813C68.9718 47.3887 68.9427 47.8253 68.8456 48.2909C68.7486 48.7566 68.6419 49.2028 68.5255 49.6297L65.6734 60.9216ZM73.9096 48.9312C74.0454 48.5237 74.1327 48.1357 74.1715 47.7671C74.2297 47.3984 74.2006 47.0977 74.0842 46.8649C73.9872 46.6127 73.7544 46.4865 73.3857 46.4865C72.8425 46.4865 72.241 46.8261 71.5813 47.5051C70.9411 48.1648 70.2814 49.0961 69.6023 50.299C68.9427 51.4826 68.3024 52.8698 67.6815 54.4608C67.0607 56.0323 66.5077 57.7203 66.0227 59.5247L66.9831 54.8682C67.8755 52.54 68.7098 50.6968 69.4859 49.3386C70.262 47.9805 71.0381 47.0104 71.8142 46.4283C72.6096 45.8463 73.4536 45.5552 74.3461 45.5552C74.967 45.5552 75.4132 45.7008 75.6849 45.9918C75.9759 46.2634 76.1505 46.6224 76.2087 47.0686C76.2669 47.5148 76.2475 47.9902 76.1505 48.4946C76.0729 48.9991 75.9759 49.4841 75.8595 49.9498L72.891 60.9216H70.2717L73.9096 48.9312ZM81.1853 48.9312C81.3793 48.3297 81.4764 47.7768 81.4764 47.2723C81.4764 46.7485 81.2629 46.4865 80.8361 46.4865C80.254 46.4865 79.6429 46.8261 79.0026 47.5051C78.3623 48.1842 77.7027 49.1543 77.0236 50.4154C76.3445 51.6572 75.6655 53.122 74.9864 54.81C74.3267 56.4786 73.6864 58.3218 73.0656 60.3396L73.735 56.6144C74.4916 54.5966 75.1901 52.8892 75.8304 51.4923C76.4706 50.0759 77.1012 48.9312 77.7221 48.0581C78.3429 47.185 78.9832 46.5544 79.6429 46.1664C80.3025 45.759 81.0204 45.5552 81.7965 45.5552C82.6114 45.5552 83.1643 45.7881 83.4554 46.2537C83.7464 46.7194 83.8628 47.2917 83.8046 47.9708C83.7658 48.6305 83.6397 49.2901 83.4263 49.9498L80.6033 58.4479C80.4092 59.0493 80.3413 59.5053 80.3995 59.8157C80.4577 60.1067 80.6809 60.2523 81.0689 60.2523C81.4375 60.2523 81.7965 60.0485 82.1457 59.6411C82.5144 59.2337 82.9024 58.4479 83.3098 57.2838L83.6882 56.2069H84.2411L83.5136 58.3315C83.2419 59.1463 82.9024 59.7672 82.495 60.1941C82.1069 60.6209 81.6898 60.9119 81.2435 61.0671C80.8167 61.2418 80.3995 61.3291 79.9921 61.3291C79.507 61.3291 79.119 61.2515 78.828 61.0962C78.5563 60.9604 78.3429 60.7761 78.1877 60.5433C77.9549 60.1747 77.8773 59.7187 77.9549 59.1755C78.0325 58.6128 78.1877 57.9725 78.4205 57.2547L81.1853 48.9312ZM97.2384 50.852C96.5399 52.7922 95.8705 54.4317 95.2302 55.7704C94.59 57.1091 93.9497 58.1859 93.3095 59.0008C92.6886 59.8157 92.0483 60.4075 91.3887 60.7761C90.7484 61.1448 90.079 61.3291 89.3805 61.3291C88.5269 61.3291 87.906 61.1351 87.518 60.747C87.1299 60.359 86.9359 59.8351 86.9359 59.1755C86.9359 58.5158 87.0717 57.7688 87.3433 56.9345L90.1663 48.4364C90.3603 47.8544 90.4283 47.4081 90.37 47.0977C90.3118 46.7873 90.0887 46.6321 89.7007 46.6321C89.332 46.6321 88.9634 46.8358 88.5948 47.2432C88.2455 47.6507 87.8672 48.4364 87.4597 49.6006L87.0814 50.6774H86.5285L87.256 48.5529C87.5471 47.738 87.8866 47.1171 88.2746 46.6903C88.6821 46.2634 89.0992 45.9724 89.5261 45.8172C89.9723 45.6426 90.3894 45.5552 90.7775 45.5552C91.6312 45.5552 92.1938 45.759 92.4655 46.1664C92.7565 46.5544 92.8632 47.0589 92.7856 47.6798C92.7274 48.3006 92.5819 48.9506 92.3491 49.6297L89.5843 57.9531C89.041 59.5829 89.2544 60.3978 90.2245 60.3978C90.6902 60.3978 91.1849 60.1941 91.7088 59.7866C92.2326 59.3598 92.7662 58.7583 93.3095 57.9822C93.8527 57.1867 94.3863 56.2457 94.9101 55.1592C95.4534 54.0533 95.9675 52.831 96.4526 51.4923C96.957 50.1341 97.413 48.679 97.8204 47.1268L97.2384 50.852ZM97.151 58.4479C97.0152 58.9717 96.9473 59.4083 96.9473 59.7575C96.9667 60.0873 97.1705 60.2523 97.5585 60.2523C97.9853 60.2523 98.3734 60.0291 98.7226 59.5829C99.0912 59.1172 99.4599 58.3509 99.8285 57.2838L100.207 56.2069H100.76L100.032 58.3315C99.7606 59.1463 99.4211 59.7672 99.0136 60.1941C98.6256 60.6209 98.2085 60.9119 97.7622 61.0671C97.3354 61.2418 96.9182 61.3291 96.5108 61.3291C96.2004 61.3291 95.9093 61.2612 95.6377 61.1254C95.3661 60.9895 95.1623 60.7955 95.0265 60.5433C94.8713 60.2135 94.8131 59.7963 94.8519 59.2919C94.9101 58.7874 95.0459 58.1083 95.2594 57.2547L98.1114 45.9627C98.5965 45.9433 99.0621 45.9045 99.5084 45.8463C99.974 45.7881 100.391 45.6911 100.76 45.5552L97.151 58.4479ZM105.166 58.4479C105.01 59.0105 104.962 59.4568 105.02 59.7866C105.078 60.097 105.292 60.2523 105.66 60.2523C106.048 60.2523 106.407 60.0388 106.737 59.612C107.086 59.1657 107.455 58.3897 107.843 57.2838L108.221 56.2069H108.774L108.047 58.3315C107.794 59.0687 107.484 59.6605 107.115 60.1067C106.766 60.5336 106.378 60.844 105.951 61.038C105.524 61.2321 105.059 61.3291 104.554 61.3291C103.914 61.3291 103.439 61.203 103.128 60.9507C102.837 60.7179 102.653 60.3978 102.575 59.9903C102.517 59.5829 102.527 59.1463 102.604 58.6807C102.701 58.1956 102.818 57.7203 102.954 57.2547L107.697 41.5099C107.892 40.8503 107.872 40.3652 107.639 40.0548C107.406 39.7443 106.815 39.5891 105.864 39.5891L106.068 38.978C107.135 38.9586 108.076 38.8518 108.891 38.6578C109.706 38.4444 110.491 38.1534 111.248 37.7847L105.166 58.4479ZM114.11 60.3978C114.576 60.3978 115.109 60.1067 115.711 59.5247C116.312 58.9232 116.923 58.118 117.544 57.1091C118.165 56.1002 118.738 54.9555 119.261 53.675C119.785 52.3944 120.202 51.0654 120.513 49.6879L120.018 52.831C119.281 54.8876 118.544 56.5465 117.806 57.8076C117.069 59.0493 116.322 59.9515 115.565 60.5142C114.809 61.0574 114.042 61.3291 113.266 61.3291C112.354 61.3291 111.665 60.9992 111.2 60.3396C110.754 59.6799 110.53 58.8359 110.53 57.8076C110.53 56.8763 110.686 55.8674 110.996 54.7809C111.307 53.675 111.733 52.5788 112.277 51.4923C112.839 50.4057 113.48 49.4162 114.197 48.5237C114.915 47.6313 115.691 46.9134 116.526 46.3701C117.379 45.8269 118.243 45.5552 119.116 45.5552C119.795 45.5552 120.309 45.8948 120.658 46.5738C121.027 47.2335 121.105 48.1648 120.891 49.3677L120.571 49.5424C120.707 48.514 120.639 47.6895 120.367 47.0686C120.096 46.4283 119.649 46.1082 119.029 46.1082C118.524 46.1082 117.991 46.3604 117.428 46.8649C116.885 47.3499 116.351 48.0193 115.827 48.873C115.323 49.7073 114.857 50.6483 114.43 51.696C114.023 52.7437 113.693 53.8302 113.441 54.9555C113.208 56.0614 113.092 57.1285 113.092 58.1568C113.092 58.9911 113.179 59.5732 113.353 59.903C113.547 60.2329 113.8 60.3978 114.11 60.3978ZM121.444 45.9627C121.91 45.9433 122.375 45.9045 122.841 45.8463C123.307 45.7881 123.734 45.6911 124.122 45.5552L120.484 58.4188C120.445 58.5934 120.387 58.8262 120.309 59.1172C120.251 59.3889 120.251 59.6411 120.309 59.8739C120.387 60.1067 120.59 60.2232 120.92 60.2232C121.308 60.2232 121.687 60.0097 122.055 59.5829C122.424 59.156 122.793 58.38 123.161 57.2547L123.51 56.1778H124.063L123.336 58.3024C123.064 59.0784 122.734 59.6896 122.346 60.1358C121.978 60.5627 121.59 60.8634 121.182 61.038C120.775 61.2321 120.377 61.3291 119.989 61.3291C119.232 61.3291 118.699 61.0768 118.388 60.5724C118.136 60.1261 118.068 59.612 118.185 59.0299C118.301 58.4285 118.437 57.827 118.592 57.2255L121.444 45.9627ZM146.309 40.4331C145.416 40.4331 144.533 40.7047 143.66 41.248C142.807 41.7719 142.011 42.5091 141.274 43.4598C140.537 44.3911 139.887 45.4679 139.324 46.6903C138.761 47.8932 138.315 49.1834 137.985 50.561C137.675 51.9385 137.52 53.3257 137.52 54.7227C137.52 56.6241 137.888 58.118 138.626 59.2046C139.382 60.2717 140.352 60.8052 141.536 60.8052C142.428 60.8052 143.301 60.5433 144.155 60.0194C145.028 59.4762 145.833 58.7389 146.571 57.8076C147.308 56.8569 147.958 55.7801 148.521 54.5772C149.083 53.3548 149.52 52.0549 149.83 50.6774C150.16 49.2998 150.325 47.9126 150.325 46.5156C150.325 44.6142 149.947 43.13 149.19 42.0629C148.453 40.9764 147.492 40.4331 146.309 40.4331ZM134.435 54.3444C134.435 53.0638 134.619 51.7445 134.988 50.3863C135.356 49.0282 135.89 47.7283 136.588 46.4865C137.287 45.2448 138.131 44.1292 139.12 43.1397C140.129 42.1502 141.255 41.3644 142.496 40.7823C143.738 40.2003 145.096 39.9093 146.571 39.9093C148.724 39.9093 150.403 40.5204 151.606 41.7427C152.828 42.9457 153.439 44.6725 153.439 46.9231C153.439 48.2036 153.245 49.523 152.857 50.8811C152.488 52.2198 151.955 53.5101 151.256 54.7518C150.558 55.9935 149.704 57.1091 148.695 58.0986C147.706 59.0881 146.58 59.8739 145.319 60.456C144.078 61.038 142.729 61.3291 141.274 61.3291C139.12 61.3291 137.442 60.7276 136.239 59.5247C135.036 58.3024 134.435 56.5756 134.435 54.3444ZM163.756 46.4865C163.252 46.4865 162.68 46.8455 162.039 47.5634C161.419 48.2618 160.778 49.2222 160.119 50.4445C159.478 51.6475 158.867 53.0056 158.285 54.519C157.722 56.0323 157.247 57.6039 156.859 59.2337L157.354 56.0905C158.188 53.5489 158.993 51.5117 159.769 49.9789C160.565 48.4267 161.351 47.3014 162.127 46.603C162.922 45.9045 163.747 45.5552 164.6 45.5552C165.512 45.5552 166.24 45.8948 166.783 46.5738C167.346 47.2529 167.627 48.2812 167.627 49.6588C167.627 50.5319 167.501 51.4923 167.249 52.54C167.016 53.5877 166.657 54.6257 166.172 55.654C165.706 56.6823 165.124 57.633 164.426 58.5061C163.747 59.3598 162.961 60.0485 162.068 60.5724C161.176 61.0768 160.186 61.3291 159.1 61.3291C158.518 61.3291 157.994 61.1545 157.528 60.8052C157.082 60.456 156.781 59.9515 156.626 59.2919L156.859 58.7098C157.131 59.4277 157.441 59.9321 157.79 60.2232C158.159 60.5142 158.586 60.6597 159.071 60.6597C159.731 60.6597 160.361 60.4075 160.963 59.903C161.564 59.3792 162.117 58.6904 162.621 57.8367C163.126 56.983 163.562 56.042 163.931 55.0137C164.319 53.966 164.61 52.928 164.804 51.8997C165.018 50.852 165.124 49.8916 165.124 49.0185C165.124 48.1648 164.998 47.5342 164.746 47.1268C164.513 46.7 164.183 46.4865 163.756 46.4865ZM156.975 59.1172C156.51 59.4859 156.044 59.8642 155.579 60.2523C155.113 60.6209 154.647 60.9992 154.182 61.3873L153.745 61.1836C153.881 60.9119 153.988 60.6403 154.065 60.3687C154.162 60.0776 154.24 59.7866 154.298 59.4956L159.391 41.5099C159.546 40.8503 159.517 40.3652 159.304 40.0548C159.09 39.7443 158.508 39.5891 157.558 39.5891L157.703 38.978C158.77 38.9586 159.711 38.8518 160.526 38.6578C161.341 38.4444 162.107 38.1534 162.825 37.7847L156.975 59.1172ZM178.131 46.1373C177.393 46.1373 176.656 46.438 175.919 47.0395C175.201 47.641 174.541 48.4655 173.94 49.5133C173.338 50.561 172.853 51.7542 172.485 53.0929C172.135 54.4317 171.961 55.8383 171.961 57.3129C171.961 58.3024 172.145 59.0202 172.514 59.4665C172.902 59.8933 173.397 60.1067 173.998 60.1067C174.696 60.1067 175.414 59.8933 176.152 59.4665C176.889 59.0396 177.626 58.283 178.363 57.1964L178.946 57.4293C178.577 58.0695 178.092 58.6904 177.49 59.2919C176.889 59.8933 176.21 60.3881 175.453 60.7761C174.716 61.1448 173.93 61.3291 173.096 61.3291C171.932 61.3291 171 60.9701 170.302 60.2523C169.603 59.5344 169.254 58.4673 169.254 57.0509C169.254 56.1584 169.38 55.198 169.633 54.1697C169.904 53.122 170.283 52.0937 170.768 51.0848C171.272 50.0565 171.883 49.1349 172.601 48.32C173.319 47.4857 174.134 46.8164 175.046 46.3119C175.958 45.8075 176.957 45.5552 178.043 45.5552C178.897 45.5552 179.634 45.7784 180.255 46.2246C180.876 46.6515 181.186 47.2529 181.186 48.029C181.186 48.3976 181.099 48.7663 180.925 49.1349C180.769 49.4841 180.536 49.7752 180.226 50.008C179.916 50.2408 179.547 50.3572 179.12 50.3572C178.713 50.3572 178.412 50.2505 178.218 50.0371C178.024 49.8043 177.927 49.5327 177.927 49.2222C177.927 48.6596 178.15 48.1842 178.596 47.7962C179.043 47.3887 179.547 47.1365 180.11 47.0395C179.916 46.7679 179.663 46.5544 179.353 46.3992C179.043 46.2246 178.635 46.1373 178.131 46.1373ZM190.14 46.1373C189.519 46.1373 188.917 46.3895 188.335 46.894C187.773 47.379 187.249 48.0484 186.764 48.9021C186.298 49.7364 185.881 50.6774 185.512 51.7251C185.163 52.7728 184.891 53.8593 184.697 54.9846C184.503 56.1099 184.406 57.1867 184.406 58.2151C184.406 59.0881 184.542 59.7284 184.814 60.1358C185.105 60.5433 185.522 60.747 186.065 60.747C186.686 60.747 187.278 60.5045 187.841 60.0194C188.423 59.515 188.956 58.8456 189.441 58.0113C189.926 57.1576 190.343 56.2069 190.693 55.1592C191.042 54.1115 191.314 53.0347 191.508 51.9288C191.702 50.8035 191.799 49.717 191.799 48.6693C191.799 47.7768 191.663 47.1365 191.391 46.7485C191.12 46.341 190.702 46.1373 190.14 46.1373ZM181.904 56.7599C181.904 55.9062 182.02 54.9749 182.253 53.966C182.486 52.9571 182.835 51.9579 183.3 50.9684C183.766 49.9789 184.329 49.0767 184.988 48.2618C185.668 47.4469 186.453 46.797 187.346 46.3119C188.238 45.8075 189.228 45.5552 190.314 45.5552C191.517 45.5552 192.478 45.9336 193.196 46.6903C193.933 47.4275 194.301 48.5723 194.301 50.1244C194.301 50.9781 194.185 51.9094 193.952 52.9183C193.719 53.9272 193.37 54.9264 192.904 55.9159C192.439 56.9054 191.866 57.8076 191.187 58.6225C190.528 59.4374 189.752 60.097 188.859 60.6015C187.967 61.0865 186.977 61.3291 185.891 61.3291C184.688 61.3291 183.718 60.9507 182.98 60.1941C182.262 59.4374 181.904 58.2927 181.904 56.7599ZM199.053 60.9216H196.521L200.014 48.4364C200.091 48.2036 200.15 47.9514 200.188 47.6798C200.247 47.3887 200.237 47.1462 200.159 46.9522C200.082 46.7388 199.888 46.6321 199.577 46.6321C199.15 46.6321 198.772 46.8455 198.442 47.2723C198.112 47.6798 197.744 48.4558 197.336 49.6006L196.958 50.6774H196.405L197.133 48.5529C197.559 47.3305 198.083 46.5253 198.704 46.1373C199.344 45.7493 199.975 45.5552 200.596 45.5552C201.178 45.5552 201.595 45.6814 201.847 45.9336C202.119 46.1858 202.264 46.5156 202.284 46.9231C202.323 47.3111 202.294 47.7477 202.197 48.2327C202.119 48.6984 202.022 49.164 201.905 49.6297L199.053 60.9216ZM200.392 54.8682C201.071 53.122 201.731 51.6572 202.371 50.4737C203.011 49.2901 203.642 48.3394 204.263 47.6216C204.884 46.8843 205.514 46.3604 206.155 46.05C206.814 45.7202 207.493 45.5552 208.192 45.5552C209.104 45.5552 209.725 45.7784 210.054 46.2246C210.404 46.6515 210.559 47.2044 210.52 47.8835C210.481 48.5432 210.345 49.2319 210.113 49.9498L207.29 58.4479C207.115 58.9717 207.037 59.4083 207.057 59.7575C207.096 60.0873 207.328 60.2523 207.755 60.2523C208.124 60.2523 208.483 60.0485 208.832 59.6411C209.201 59.2337 209.589 58.4479 209.996 57.2838L210.374 56.2069H210.927L210.2 58.3315C209.928 59.1463 209.589 59.7672 209.181 60.1941C208.793 60.6209 208.376 60.9119 207.93 61.0671C207.503 61.2418 207.086 61.3291 206.678 61.3291C206.213 61.3291 205.825 61.2515 205.514 61.0962C205.223 60.941 205 60.7373 204.845 60.4851C204.631 60.1358 204.564 59.6799 204.641 59.1172C204.719 58.5546 204.874 57.9337 205.107 57.2547L207.872 48.9312C207.969 48.6596 208.046 48.3394 208.104 47.9708C208.182 47.5828 208.172 47.2432 208.075 46.9522C207.978 46.6418 207.697 46.4865 207.231 46.4865C206.766 46.4865 206.271 46.6903 205.747 47.0977C205.223 47.5051 204.68 48.0872 204.117 48.8439C203.555 49.5812 203.002 50.4737 202.458 51.5214C201.915 52.5497 201.391 53.6944 200.887 54.9555C200.402 56.1972 199.956 57.5263 199.548 58.9426L200.392 54.8682ZM217.885 40.6659C217.982 40.1615 218.235 39.7249 218.642 39.3563C219.069 38.9877 219.525 38.8033 220.01 38.8033C220.514 38.8033 220.902 38.9877 221.174 39.3563C221.465 39.7249 221.562 40.1615 221.465 40.6659C221.368 41.1704 221.106 41.6069 220.679 41.9756C220.272 42.3442 219.816 42.5285 219.311 42.5285C218.826 42.5285 218.438 42.3442 218.147 41.9756C217.876 41.6069 217.788 41.1704 217.885 40.6659ZM216.983 48.4364C217.391 47.2335 217.255 46.6321 216.576 46.6321C216.129 46.6321 215.732 46.8746 215.382 47.3596C215.033 47.8447 214.665 48.5917 214.277 49.6006L213.869 50.6774H213.316L214.073 48.5529C214.364 47.738 214.713 47.1171 215.121 46.6903C215.528 46.2634 215.955 45.9724 216.401 45.8172C216.867 45.6426 217.294 45.5552 217.682 45.5552C218.302 45.5552 218.758 45.6814 219.049 45.9336C219.34 46.1858 219.515 46.5156 219.573 46.9231C219.632 47.3305 219.612 47.7768 219.515 48.2618C219.418 48.7275 219.292 49.1834 219.137 49.6297L216.023 58.4479C215.829 59.0105 215.761 59.4568 215.819 59.7866C215.897 60.097 216.12 60.2523 216.488 60.2523C216.876 60.2523 217.245 60.0388 217.594 59.612C217.944 59.1852 218.332 58.4091 218.758 57.2838L219.166 56.2069H219.719L218.962 58.3315C218.691 59.0881 218.361 59.6896 217.973 60.1358C217.585 60.5627 217.167 60.8634 216.721 61.038C216.275 61.2321 215.829 61.3291 215.382 61.3291C214.548 61.3291 213.986 61.1351 213.694 60.747C213.403 60.359 213.297 59.8545 213.374 59.2337C213.452 58.6128 213.617 57.9531 213.869 57.2547L216.983 48.4364ZM230.567 46.1373C229.83 46.1373 229.093 46.438 228.355 47.0395C227.637 47.641 226.978 48.4655 226.376 49.5133C225.775 50.561 225.29 51.7542 224.921 53.0929C224.572 54.4317 224.397 55.8383 224.397 57.3129C224.397 58.3024 224.582 59.0202 224.95 59.4665C225.338 59.8933 225.833 60.1067 226.435 60.1067C227.133 60.1067 227.851 59.8933 228.588 59.4665C229.325 59.0396 230.063 58.283 230.8 57.1964L231.382 57.4293C231.013 58.0695 230.528 58.6904 229.927 59.2919C229.325 59.8933 228.646 60.3881 227.89 60.7761C227.152 61.1448 226.367 61.3291 225.532 61.3291C224.368 61.3291 223.437 60.9701 222.738 60.2523C222.04 59.5344 221.691 58.4673 221.691 57.0509C221.691 56.1584 221.817 55.198 222.069 54.1697C222.341 53.122 222.719 52.0937 223.204 51.0848C223.709 50.0565 224.32 49.1349 225.038 48.32C225.755 47.4857 226.57 46.8164 227.482 46.3119C228.394 45.8075 229.393 45.5552 230.48 45.5552C231.334 45.5552 232.071 45.7784 232.692 46.2246C233.313 46.6515 233.623 47.2529 233.623 48.029C233.623 48.3976 233.536 48.7663 233.361 49.1349C233.206 49.4841 232.973 49.7752 232.663 50.008C232.352 50.2408 231.984 50.3572 231.557 50.3572C231.149 50.3572 230.849 50.2505 230.654 50.0371C230.46 49.8043 230.363 49.5327 230.363 49.2222C230.363 48.6596 230.587 48.1842 231.033 47.7962C231.479 47.3887 231.984 47.1365 232.546 47.0395C232.352 46.7679 232.1 46.5544 231.79 46.3992C231.479 46.2246 231.072 46.1373 230.567 46.1373ZM237.571 60.3978C238.036 60.3978 238.57 60.1067 239.171 59.5247C239.773 58.9232 240.384 58.118 241.005 57.1091C241.626 56.1002 242.198 54.9555 242.722 53.675C243.246 52.3944 243.663 51.0654 243.973 49.6879L243.478 52.831C242.741 54.8876 242.004 56.5465 241.267 57.8076C240.529 59.0493 239.782 59.9515 239.026 60.5142C238.269 61.0574 237.503 61.3291 236.727 61.3291C235.815 61.3291 235.126 60.9992 234.66 60.3396C234.214 59.6799 233.991 58.8359 233.991 57.8076C233.991 56.8763 234.146 55.8674 234.457 54.7809C234.767 53.675 235.194 52.5788 235.737 51.4923C236.3 50.4057 236.94 49.4162 237.658 48.5237C238.376 47.6313 239.152 46.9134 239.986 46.3701C240.84 45.8269 241.703 45.5552 242.576 45.5552C243.255 45.5552 243.769 45.8948 244.119 46.5738C244.487 47.2335 244.565 48.1648 244.352 49.3677L244.031 49.5424C244.167 48.514 244.099 47.6895 243.828 47.0686C243.556 46.4283 243.11 46.1082 242.489 46.1082C241.985 46.1082 241.451 46.3604 240.888 46.8649C240.345 47.3499 239.811 48.0193 239.288 48.873C238.783 49.7073 238.318 50.6483 237.891 51.696C237.483 52.7437 237.153 53.8302 236.901 54.9555C236.668 56.0614 236.552 57.1285 236.552 58.1568C236.552 58.9911 236.639 59.5732 236.814 59.903C237.008 60.2329 237.26 60.3978 237.571 60.3978ZM244.905 45.9627C245.37 45.9433 245.836 45.9045 246.301 45.8463C246.767 45.7881 247.194 45.6911 247.582 45.5552L243.944 58.4188C243.905 58.5934 243.847 58.8262 243.769 59.1172C243.711 59.3889 243.711 59.6411 243.769 59.8739C243.847 60.1067 244.051 60.2232 244.381 60.2232C244.769 60.2232 245.147 60.0097 245.516 59.5829C245.884 59.156 246.253 58.38 246.622 57.2547L246.971 56.1778H247.524L246.796 58.3024C246.525 59.0784 246.195 59.6896 245.807 60.1358C245.438 60.5627 245.05 60.8634 244.643 61.038C244.235 61.2321 243.837 61.3291 243.449 61.3291C242.693 61.3291 242.159 61.0768 241.849 60.5724C241.596 60.1261 241.529 59.612 241.645 59.0299C241.761 58.4285 241.897 57.827 242.052 57.2255L244.905 45.9627Z" fill="#EFEEEB"/>
<path d="M23.8406 51.9579L125.489 51.9579V52.54L23.8406 52.54V51.9579Z" fill="#EFEEEB"/>
<line x1="23.7827" y1="76.3913" x2="249.174" y2="76.3913" stroke="#EFEEEB" stroke-width="1.04348"/>
<line x1="23.7827" y1="25.261" x2="249.174" y2="25.261" stroke="#EFEEEB" stroke-width="1.04348"/>
</svg>
