<svg width="186" height="286" viewBox="0 0 186 286" fill="none" xmlns="http://www.w3.org/2000/svg">
<circle cx="69.9686" cy="212.959" r="63.2672" transform="rotate(14.6427 69.9686 212.959)" stroke="#2F2F2F" stroke-width="7.30435"/>
<path d="M82.5511 224.138C80.873 223.689 79.4999 222.956 78.4317 221.94C77.3476 220.92 76.6291 219.675 76.2762 218.207C75.919 216.753 75.9843 215.117 76.4721 213.296C76.9471 211.523 77.719 210.067 78.7877 208.928C79.8564 207.789 81.1316 207.02 82.6132 206.619C84.079 206.215 85.6272 206.231 87.2577 206.668C88.9358 207.117 90.3168 207.852 91.4009 208.872C92.4691 209.888 93.1797 211.13 93.5326 212.599C93.8856 214.068 93.8203 215.705 93.3367 217.51C92.8616 219.283 92.0898 220.739 91.0211 221.878C89.9366 223.012 88.6693 223.784 87.2193 224.193C85.7535 224.598 84.1974 224.579 82.5511 224.138ZM82.7606 223.736C83.6471 223.974 84.5182 223.825 85.374 223.291C86.2139 222.753 86.9835 221.907 87.6827 220.754C88.3661 219.597 88.9283 218.195 89.3695 216.548C89.8191 214.87 90.0136 213.353 89.9529 211.996C89.8722 210.651 89.5827 209.547 89.0843 208.684C88.5659 207.833 87.8872 207.294 87.0482 207.07C86.1617 206.832 85.2985 206.983 84.4586 207.521C83.6028 208.055 82.8332 208.901 82.1498 210.058C81.4464 211.227 80.8762 212.627 80.4393 214.257C79.9855 215.951 79.7989 217.471 79.8796 218.816C79.9445 220.157 80.2362 221.253 80.7546 222.104C81.2529 222.967 81.9215 223.511 82.7606 223.736ZM67.6013 221.685L71.9916 205.3C72.1698 204.635 72.1798 204.155 72.0218 203.858C71.848 203.557 71.484 203.332 70.93 203.183L71.0636 202.685C71.3601 202.781 71.8071 202.918 72.4044 203.095C72.9975 203.288 73.6027 203.467 74.2201 203.632C74.8375 203.798 75.467 203.949 76.1087 204.087C76.7304 204.237 77.2016 204.346 77.5225 204.415L77.3888 204.914C76.8348 204.766 76.4151 204.78 76.1299 204.958C75.8288 205.132 75.5892 205.552 75.411 206.217L71.7843 219.752C71.5934 220.464 71.5642 221.016 71.6968 221.408C71.8093 221.811 72.1584 222.092 72.7441 222.249L72.6105 222.747C72.1166 222.564 71.6322 222.409 71.1573 222.281C70.5083 222.108 69.8845 221.966 69.2861 221.856C68.6834 221.763 68.1218 221.706 67.6013 221.685ZM60.7802 213.444C59.3871 213.07 58.4051 212.366 57.8341 211.331C57.2631 210.296 57.2279 208.844 57.7285 206.976L65.5408 209.069L65.4674 209.533L60.5995 208.229C60.3759 209 60.2325 209.725 60.1694 210.404C60.102 211.099 60.1341 211.676 60.2655 212.135C60.3969 212.594 60.6605 212.877 61.0563 212.983C61.6103 213.132 62.1786 212.911 62.761 212.32C63.3275 211.725 63.8667 210.631 64.3785 209.038L64.3455 208.876C64.4122 208.69 64.4811 208.497 64.552 208.295C64.6072 208.089 64.6644 207.876 64.7238 207.654C65.0165 206.562 65.1037 205.635 64.9853 204.874C64.8511 204.108 64.5889 203.503 64.1988 203.06C63.8045 202.631 63.362 202.352 62.8712 202.22C62.5388 202.131 62.1857 202.087 61.812 202.089C61.4182 202.102 61.0032 202.195 60.567 202.366C60.1265 202.554 59.6801 202.858 59.2278 203.28L58.8385 203.023C59.1897 202.472 59.6474 201.967 60.2117 201.508C60.776 201.048 61.4235 200.721 62.1543 200.527C62.8851 200.332 63.6938 200.354 64.5803 200.591C65.6567 200.88 66.5451 201.364 67.2452 202.043C67.9454 202.723 68.4078 203.593 68.6325 204.655C68.8413 205.712 68.7527 206.961 68.3667 208.401C67.9722 209.873 67.3981 211.034 66.6444 211.884C65.8748 212.73 64.9911 213.274 63.9931 213.516C62.9751 213.769 61.9041 213.745 60.7802 213.444ZM55.0871 198.226C55.7995 198.417 56.3571 198.71 56.7599 199.107C57.1627 199.503 57.4155 199.952 57.5184 200.455C57.617 200.974 57.5942 201.502 57.45 202.04C57.2676 202.721 56.9687 203.235 56.5534 203.581C56.1223 203.924 55.6253 204.164 55.0624 204.302C54.4996 204.439 53.9257 204.523 53.3408 204.553C52.7401 204.579 52.1731 204.605 51.6399 204.632C51.0867 204.67 50.63 204.76 50.2698 204.901C49.8896 205.054 49.6507 205.312 49.5531 205.676L49.0568 207.528C48.9466 207.94 48.9202 208.323 48.9779 208.678C49.0154 209.044 49.1534 209.353 49.3917 209.603C49.6141 209.849 49.947 210.032 50.3902 210.151C50.7068 210.235 51.0362 210.273 51.3782 210.263C51.7161 210.268 52.0154 210.196 52.2764 210.045C51.8756 209.768 51.6009 209.432 51.4526 209.035C51.2841 208.651 51.255 208.253 51.3653 207.841C51.5095 207.303 51.814 206.927 52.2788 206.712C52.7277 206.493 53.2055 206.451 53.7121 206.587C54.282 206.74 54.6707 207.03 54.8781 207.459C55.0655 207.9 55.0913 208.373 54.9556 208.88C54.8326 209.339 54.62 209.689 54.3177 209.93C53.9997 210.168 53.5988 210.366 53.1151 210.524C52.604 210.659 52.0206 210.715 51.3651 210.692C50.6937 210.665 49.9939 210.553 49.2657 210.358C48.5375 210.163 47.9017 209.908 47.3584 209.593C46.8108 209.293 46.3922 208.893 46.1025 208.391C45.8359 207.929 45.7194 207.414 45.7528 206.847C45.7819 206.294 45.9047 205.615 46.121 204.807L47.8517 198.348C47.9577 197.953 47.9924 197.665 47.9556 197.486C47.9146 197.322 47.7992 197.215 47.6092 197.164C47.4667 197.125 47.3216 197.129 47.1737 197.174C47.01 197.215 46.8342 197.27 46.6462 197.338L46.5169 196.871C46.9257 196.675 47.3729 196.557 47.8586 196.518C48.3242 196.49 48.8261 196.548 49.3644 196.692C49.9501 196.849 50.3959 197.054 50.7017 197.305C51.0034 197.573 51.1951 197.87 51.2771 198.197C51.3432 198.52 51.3254 198.872 51.2236 199.252C51.7647 198.752 52.351 198.4 52.9826 198.196C53.6099 198.008 54.3114 198.018 55.0871 198.226ZM52.9939 199.294C52.6773 199.209 52.3733 199.204 52.0818 199.278C51.7703 199.365 51.4491 199.55 51.1184 199.835L49.814 204.702C50.0201 204.503 50.2753 204.343 50.5794 204.22C50.8836 204.098 51.2058 203.973 51.5459 203.843C51.8817 203.729 52.216 203.59 52.5488 203.425C52.8657 203.255 53.15 203.017 53.4016 202.711C53.6532 202.406 53.8448 202.007 53.9763 201.517C54.1417 200.899 54.1301 200.404 53.9416 200.031C53.7531 199.658 53.4372 199.412 52.9939 199.294Z" fill="#2F2F2F"/>
<line x1="182.324" y1="30.6037" x2="130.744" y2="228.02" stroke="#2F2F2F" stroke-width="7.30435"/>
</svg>
