<svg width="244" height="158" viewBox="0 0 244 158" fill="none" xmlns="http://www.w3.org/2000/svg">
<path d="M0.695801 57.8389L216.379 0.0466868L242.855 98.8573L154.935 122.415L135.014 127.753L113.233 133.59L27.172 156.649L0.695801 57.8389Z" fill="#2F2F2F"/>
<rect x="6.61523" y="60.8079" width="213.392" height="93.4966" rx="28.1739" transform="rotate(-15 6.61523 60.8079)" fill="#EFEEEB"/>
<path d="M80.7452 55.633L81.8559 55.3353C82.3539 55.2019 82.8309 55.0673 83.2871 54.9313C83.7433 54.7954 84.1356 54.6766 84.4642 54.5749L84.471 54.9836C84.0404 55.1126 83.7157 55.2544 83.4971 55.4087C83.2751 55.5503 83.1246 55.7548 83.0458 56.0223C82.9762 56.2735 82.9409 56.6524 82.9398 57.159L82.9571 67.335C82.9654 67.8254 83.0067 68.1838 83.081 68.4102C83.1681 68.6332 83.3241 68.7556 83.5489 68.7775C83.7737 68.7993 84.1002 68.7666 84.5283 68.6792L84.5543 69.0828C84.2155 69.1462 83.8163 69.2395 83.3567 69.3626C82.9065 69.4696 82.4324 69.5898 81.9345 69.7232C81.3983 69.8669 80.8893 70.0101 80.4076 70.1528C79.9352 70.2794 79.5556 70.3948 79.2688 70.499L79.2428 70.0955C79.6828 69.9502 80.0074 69.8085 80.2167 69.6703C80.4387 69.5287 80.5892 69.3242 80.6681 69.0568C80.7469 68.7893 80.7822 68.4104 80.774 67.92L80.785 56.8538L76.1729 71.4312L75.7516 71.5441L71.0733 59.5997L71.1077 70.2227C71.1219 70.6842 71.1666 71.0553 71.2419 71.3362C71.3299 71.6137 71.5059 71.7854 71.7699 71.8515C72.0467 71.9142 72.4439 71.8899 72.9614 71.7786L72.9683 72.1872C72.8244 72.2121 72.6312 72.257 72.3886 72.322C72.1554 72.3708 71.9111 72.4295 71.6558 72.4979C71.4098 72.5501 71.1783 72.6053 70.9612 72.6635C70.6293 72.7524 70.299 72.8477 69.9705 72.9494C69.6386 73.0384 69.3675 73.1247 69.1573 73.2084L69.1504 72.7997C69.5904 72.6545 69.9146 72.4855 70.123 72.2928C70.3441 72.0967 70.4937 71.8377 70.5716 71.5158C70.6495 71.1939 70.6814 70.8022 70.6673 70.3407L70.6643 60.4482C70.6654 59.9416 70.6241 59.5833 70.5405 59.3731C70.4533 59.1501 70.2974 59.0277 70.0726 59.0058C69.8571 58.9678 69.5307 59.0005 69.0932 59.104L69.0863 58.6954C69.3323 58.6431 69.6294 58.5772 69.9775 58.4976C70.3384 58.4146 70.7167 58.3201 71.1125 58.214C71.4189 58.1319 71.7236 58.0434 72.0266 57.9486C72.3296 57.8537 72.5879 57.7708 72.8015 57.6999L76.7783 68.2517L80.7452 55.633ZM87.1451 63.7909C87.7346 63.3866 88.265 62.9913 88.7362 62.6051C89.2202 62.2154 89.5969 61.834 89.8664 61.4607C90.2327 60.9384 90.4781 60.3732 90.6025 59.7651C90.7363 59.1409 90.716 58.5032 90.5415 57.8521C90.4525 57.5201 90.3706 57.3163 90.2955 57.2406C90.2171 57.1522 90.1268 57.1216 90.0247 57.149C89.7183 57.2311 89.424 57.4605 89.1418 57.8371C88.8723 58.2104 88.6319 58.6921 88.4206 59.2824C88.2059 59.8599 88.0356 60.5008 87.9095 61.2051C87.7929 61.8932 87.7392 62.6122 87.7487 63.3623C87.7674 64.0962 87.8674 64.8015 88.0488 65.4781C88.2266 66.142 88.4745 66.5819 88.7923 66.7978C89.1229 67.0102 89.4925 67.0617 89.9011 66.9522C90.3224 66.8394 90.7541 66.5868 91.1964 66.1946C91.6353 65.7897 92.013 65.1822 92.3296 64.3721L92.677 64.4432C92.5346 64.933 92.3121 65.4305 92.0096 65.9357C91.7071 66.4409 91.3284 66.8914 90.8733 67.287C90.4277 67.6664 89.9048 67.9365 89.3047 68.0973C88.7813 68.2375 88.2879 68.2602 87.8246 68.1654C87.3614 68.0706 86.9618 67.8561 86.6259 67.5219C86.2994 67.1715 86.0575 66.7027 85.9001 66.1154C85.7428 65.5281 85.6739 64.8624 85.6934 64.1183C85.7223 63.3579 85.8376 62.5881 86.0393 61.8088C86.2538 61.0261 86.5538 60.2821 86.9395 59.5766C87.3218 58.8584 87.8004 58.2444 88.3754 57.7346C88.9503 57.2248 89.608 56.8707 90.3485 56.6722C90.8081 56.5491 91.2219 56.5614 91.5899 56.7091C91.9545 56.844 92.1966 57.1349 92.3163 57.5817C92.4532 58.0924 92.4346 58.6105 92.2607 59.1361C92.0962 59.6454 91.8192 60.1438 91.4299 60.6313C91.0405 61.1187 90.5962 61.5799 90.0969 62.0147C89.6104 62.4461 89.1073 62.8409 88.5875 63.1991C88.0805 63.5539 87.6207 63.855 87.208 64.1024L87.1451 63.7909ZM97.3984 65.6412L95.3875 66.18L95.4791 57.3295C95.496 57.1882 95.4886 57.0328 95.4569 56.8634C95.4345 56.6778 95.3871 56.5263 95.3145 56.4089C95.2386 56.2787 95.1113 56.2376 94.9325 56.2855C94.6644 56.3573 94.4595 56.5628 94.3177 56.9018C94.1725 57.2281 94.0722 57.7475 94.0169 58.4602L93.9452 59.3415L93.5813 59.439L93.6803 57.8936C93.7316 57.3188 93.8536 56.8551 94.0465 56.5024C94.2393 56.1497 94.4672 55.8765 94.73 55.6829C95.0057 55.4859 95.2839 55.3498 95.5648 55.2745C95.9606 55.1685 96.2764 55.1728 96.5124 55.2875C96.7484 55.4021 96.9232 55.5948 97.0367 55.8654C97.1469 56.1232 97.2174 56.4122 97.2485 56.7323C97.2795 57.0524 97.2961 57.3695 97.2982 57.6837L97.3984 65.6412ZM100.431 56.3517C100.439 56.0758 100.427 55.826 100.394 55.6021C100.374 55.3748 100.313 55.1995 100.212 55.0761C100.123 54.9494 99.9704 54.9151 99.7533 54.9732C99.4214 55.0622 99.1123 55.364 98.826 55.8785C98.5397 56.3931 98.2914 57.0754 98.0813 57.9254C97.8712 58.7753 97.6999 59.7449 97.5676 60.834C97.448 61.9197 97.3825 63.0798 97.3712 64.3143L97.1638 61.7016C97.3141 59.9646 97.5197 58.5616 97.7807 57.4928C98.0382 56.4112 98.3821 55.6007 98.8122 55.0612C99.239 54.509 99.7715 54.1474 100.41 53.9763C100.831 53.8634 101.162 53.8707 101.401 53.9981C101.65 54.1093 101.839 54.3049 101.969 54.5849C102.095 54.8521 102.179 55.1649 102.22 55.5233C102.258 55.8689 102.277 56.2197 102.276 56.5756L102.243 64.343L100.175 64.8972L100.431 56.3517ZM105.333 55.0381C105.349 54.6371 105.317 54.2897 105.239 53.9961C105.157 53.6897 104.994 53.569 104.752 53.634C104.407 53.7263 104.096 54.0217 103.819 54.5201C103.542 55.0185 103.294 55.7008 103.074 56.5669C102.868 57.4297 102.694 58.4409 102.553 59.6007C102.412 60.7605 102.312 62.0462 102.253 63.4579L102.025 61.3842C102.144 59.8881 102.29 58.6176 102.461 57.5728C102.63 56.5151 102.843 55.6507 103.101 54.9795C103.368 54.292 103.686 53.7689 104.055 53.41C104.434 53.0349 104.885 52.7773 105.408 52.637C105.944 52.4933 106.354 52.541 106.637 52.7799C106.933 53.0154 107.126 53.3536 107.217 53.7945C107.32 54.232 107.359 54.7074 107.332 55.2209L106.959 61.3349C106.934 61.7521 106.971 62.0432 107.07 62.2083C107.169 62.3733 107.327 62.4268 107.544 62.3686C107.761 62.3105 107.952 62.1293 108.116 61.8252C108.281 61.521 108.396 60.9772 108.459 60.1939L108.517 59.3369L108.881 59.2394L108.777 60.7656C108.742 61.3497 108.628 61.8182 108.435 62.1709C108.242 62.5236 108.006 62.7921 107.727 62.9763C107.464 63.1699 107.192 63.3043 106.911 63.3796C106.567 63.4719 106.279 63.4944 106.047 63.447C105.815 63.3996 105.618 63.3019 105.455 63.154C105.224 62.9559 105.078 62.6666 105.017 62.2861C104.966 61.8894 104.952 61.4279 104.975 60.9017L105.333 55.0381ZM114.555 50.9865C114.249 51.0686 113.961 51.3717 113.691 51.8956C113.433 52.4161 113.202 53.0869 112.998 53.9079C112.807 54.7255 112.66 55.6337 112.558 56.6325C112.469 57.6279 112.44 58.6415 112.47 59.6734L112.252 57.5562C112.355 55.9001 112.526 54.5474 112.765 53.4982C113.004 52.449 113.31 51.6487 113.682 51.0974C114.067 50.5427 114.534 50.1918 115.083 50.0447C115.734 49.8702 116.308 49.9696 116.805 50.3427C117.311 50.6997 117.687 51.3378 117.934 52.2571C118.091 52.8443 118.179 53.5049 118.198 54.2388C118.226 54.9565 118.171 55.6965 118.033 56.4586C117.892 57.208 117.66 57.9269 117.338 58.6152C117.029 59.3001 116.619 59.8889 116.108 60.3817C115.597 60.8744 114.978 61.2183 114.25 61.4132C113.88 61.5125 113.514 61.501 113.153 61.3788C112.804 61.2532 112.523 61.0207 112.309 60.6812L112.365 60.2763C112.633 60.6149 112.892 60.8397 113.141 60.951C113.386 61.0495 113.649 61.0611 113.93 60.9858C114.351 60.8729 114.709 60.5992 115.003 60.1646C115.297 59.73 115.53 59.1955 115.702 58.561C115.884 57.9103 116.005 57.2141 116.066 56.4725C116.128 55.7308 116.131 55.0046 116.078 54.2937C116.033 53.5667 115.933 52.9095 115.775 52.3222C115.632 51.786 115.457 51.4154 115.252 51.2105C115.043 50.9928 114.811 50.9181 114.555 50.9865ZM112.518 60.5431C112.218 60.8014 111.914 61.0951 111.605 61.4241C111.306 61.7369 111.016 62.0608 110.736 62.3957L110.413 62.3386C110.455 62.136 110.483 61.9367 110.499 61.7408C110.499 61.5357 110.492 61.3322 110.479 61.1304L110.698 48.3871C110.696 47.9223 110.592 47.6082 110.384 47.445C110.189 47.2784 109.778 47.2788 109.153 47.4465L109.16 47.0135C109.922 46.7955 110.58 46.544 111.133 46.2589C111.696 45.9577 112.206 45.6157 112.665 45.2329L112.518 60.5431ZM123.113 58.751L121.102 59.2897L121.194 50.4393C121.199 49.9999 121.161 49.7024 121.078 49.5467C120.995 49.391 120.852 49.3405 120.647 49.3952C120.392 49.4637 120.192 49.661 120.047 49.9873C119.901 50.3135 119.796 50.8411 119.732 51.57L119.66 52.4513L119.296 52.5488L119.395 51.0033C119.446 50.4286 119.568 49.9648 119.761 49.6121C119.954 49.2594 120.182 48.9863 120.445 48.7927C120.72 48.5957 121.005 48.4578 121.299 48.3791C121.695 48.2731 122.004 48.2791 122.227 48.3972C122.45 48.5153 122.617 48.7032 122.727 48.9611C122.837 49.2189 122.91 49.5143 122.944 49.8471C122.988 50.1638 123.011 50.4792 123.013 50.7934L123.113 58.751ZM125.424 47.7663C125.143 47.8416 124.882 48.0415 124.641 48.3662C124.396 48.6781 124.177 49.113 123.985 49.6709C123.792 50.2288 123.626 50.9097 123.485 51.7136C123.358 52.5141 123.256 53.4376 123.181 54.484C123.115 55.5143 123.083 56.6723 123.085 57.9579L122.878 55.3452C122.938 53.9335 123.028 52.7393 123.15 51.7626C123.271 50.7858 123.434 49.9896 123.638 49.3738C123.852 48.7418 124.113 48.2613 124.422 47.9323C124.74 47.5871 125.116 47.3563 125.55 47.24C125.959 47.1305 126.304 47.168 126.586 47.3524C126.877 47.5206 127.071 47.7835 127.167 48.141C127.245 48.4346 127.247 48.7215 127.172 49.0017C127.093 49.2692 126.959 49.5103 126.77 49.7251C126.591 49.9237 126.361 50.0606 126.08 50.1358C125.812 50.2077 125.576 50.1956 125.372 50.0997C125.165 49.9909 125.026 49.8025 124.954 49.5344C124.889 49.2918 124.882 49.0611 124.933 48.8422C124.984 48.6233 125.073 48.4215 125.201 48.2366C125.33 48.0516 125.488 47.8999 125.675 47.7813C125.642 47.7626 125.605 47.752 125.564 47.7495C125.522 47.747 125.475 47.7526 125.424 47.7663ZM131.35 56.0307C131.631 55.9554 131.9 55.7056 132.155 55.2813C132.411 54.857 132.641 54.3097 132.844 53.6394C133.044 52.9563 133.195 52.1907 133.296 51.3426C133.397 50.4945 133.434 49.609 133.405 48.6861L133.62 50.8659C133.511 52.195 133.326 53.2915 133.065 54.1551C132.813 55.0025 132.495 55.6555 132.112 56.114C131.725 56.5598 131.282 56.8494 130.784 56.9828C130.146 57.1538 129.611 57.0715 129.179 56.7357C128.743 56.3871 128.432 55.8617 128.243 55.1596C128.072 54.5212 127.991 53.8108 128.001 53.0284C128.023 52.2425 128.123 51.4425 128.302 50.6283C128.493 49.8107 128.755 49.0497 129.086 48.3452C129.417 47.6407 129.817 47.0408 130.287 46.5456C130.753 46.0376 131.267 45.7083 131.828 45.5578C132.262 45.4415 132.649 45.5568 132.988 45.9038C133.337 46.2345 133.55 46.8001 133.628 47.6003L133.448 47.7716C133.376 47.1476 133.21 46.6791 132.948 46.3661C132.696 46.0369 132.391 45.9202 132.033 46.016C131.727 46.0981 131.444 46.3449 131.185 46.7565C130.922 47.1553 130.698 47.6736 130.514 48.3115C130.338 48.9333 130.201 49.6201 130.101 50.372C130.014 51.1205 129.992 51.8791 130.033 52.6479C130.072 53.4039 130.183 54.1266 130.368 54.816C130.505 55.3267 130.652 55.6705 130.809 55.8474C130.978 56.0209 131.159 56.082 131.35 56.0307ZM133.413 45.4205C133.793 45.3051 134.156 45.1804 134.503 45.0463C134.85 44.9122 135.165 44.7594 135.448 44.588L135.289 53.7233C135.288 53.874 135.293 54.0439 135.302 54.2329C135.321 54.4057 135.367 54.5508 135.439 54.6682C135.525 54.7822 135.663 54.8135 135.855 54.7622C136.084 54.7006 136.282 54.5178 136.446 54.2136C136.608 53.8967 136.709 53.3564 136.751 52.5926L136.809 51.7356L137.173 51.6381L137.068 53.1644C137.03 53.7357 136.921 54.196 136.741 54.5453C136.56 54.8946 136.339 55.166 136.076 55.3596C135.829 55.5626 135.572 55.6999 135.304 55.7718C134.742 55.9223 134.299 55.8496 133.973 55.5537C133.732 55.3173 133.584 54.9944 133.529 54.5849C133.483 54.1593 133.46 53.714 133.458 53.2491L133.413 45.4205ZM141.497 53.8249L139.487 54.3637L139.578 45.5132C139.585 45.3336 139.579 45.1573 139.56 44.9845C139.55 44.7955 139.504 44.6504 139.422 44.5492C139.341 44.448 139.204 44.423 139.012 44.4743C138.757 44.5427 138.555 44.7337 138.406 45.0472C138.271 45.3573 138.174 45.8895 138.116 46.6439L138.044 47.5252L137.68 47.6227L137.779 46.0773C137.852 45.2233 138.056 44.6074 138.393 44.2299C138.742 43.8489 139.147 43.5968 139.606 43.4736C140.015 43.3642 140.337 43.3668 140.573 43.4814C140.809 43.5961 140.982 43.7823 141.092 44.0402C141.212 44.2818 141.289 44.5691 141.323 44.902C141.367 45.2186 141.392 45.5404 141.397 45.8674L141.497 53.8249ZM141.282 49.8802C141.413 48.5314 141.58 47.392 141.782 46.462C141.994 45.5159 142.239 44.7455 142.518 44.1509C142.796 43.5562 143.119 43.1004 143.485 42.7832C143.861 42.4498 144.285 42.2199 144.758 42.0933C145.371 41.9291 145.83 41.9566 146.135 42.1759C146.453 42.3918 146.659 42.7266 146.753 43.1803C146.856 43.6178 146.896 44.0996 146.873 44.6258L146.519 50.7347C146.484 51.1136 146.513 51.4001 146.606 51.5941C146.695 51.7753 146.861 51.8334 147.104 51.7684C147.321 51.7103 147.506 51.5308 147.658 51.2301C147.822 50.926 147.937 50.3822 148 49.5988L148.077 48.7367L148.441 48.6392L148.337 50.1655C148.302 50.7496 148.182 51.2197 147.976 51.5758C147.783 51.9285 147.547 52.197 147.268 52.3813C147.005 52.5748 146.733 52.7093 146.453 52.7845C146.133 52.8701 145.852 52.8908 145.607 52.8468C145.363 52.8029 145.159 52.7069 144.996 52.5589C144.778 52.3574 144.639 52.0664 144.578 51.6859C144.513 51.2926 144.499 50.8312 144.535 50.3016L144.874 44.443C144.887 44.2344 144.881 44.0101 144.858 43.77C144.835 43.53 144.776 43.3338 144.68 43.1815C144.581 43.0164 144.397 42.9698 144.129 43.0417C143.848 43.1169 143.58 43.3395 143.323 43.7093C143.066 44.0791 142.823 44.5753 142.593 45.198C142.372 45.8045 142.184 46.505 142.027 47.2995C141.871 48.0941 141.744 48.949 141.647 49.8644C141.547 50.767 141.486 51.7139 141.464 52.7049L141.282 49.8802ZM152.857 50.2679C153.138 50.1926 153.407 49.9429 153.662 49.5185C153.918 49.0942 154.148 48.5469 154.351 47.8766C154.551 47.1936 154.702 46.428 154.803 45.5798C154.904 44.7317 154.941 43.8462 154.912 42.9233L155.127 45.1031C155.018 46.4323 154.833 47.5287 154.572 48.3923C154.32 49.2398 154.002 49.8928 153.619 50.3513C153.232 50.797 152.789 51.0866 152.291 51.22C151.653 51.3911 151.118 51.3087 150.686 50.9729C150.25 50.6244 149.938 50.099 149.75 49.3968C149.579 48.7584 149.498 48.048 149.508 47.2656C149.53 46.4797 149.63 45.6797 149.809 44.8655C150 44.048 150.262 43.2869 150.593 42.5824C150.924 41.8779 151.324 41.278 151.794 40.7828C152.26 40.2748 152.773 39.9455 153.335 39.795C153.769 39.6787 154.156 39.794 154.495 40.141C154.844 40.4718 155.057 41.0373 155.135 41.8375L154.955 42.0089C154.883 41.3849 154.717 40.9164 154.455 40.6034C154.202 40.2742 153.898 40.1575 153.54 40.2532C153.234 40.3354 152.951 40.5822 152.692 40.9937C152.429 41.3925 152.205 41.9108 152.021 42.5488C151.845 43.1705 151.707 43.8573 151.608 44.6092C151.521 45.3577 151.499 46.1164 151.54 46.8851C151.579 47.6411 151.69 48.3638 151.875 49.0533C152.012 49.5639 152.159 49.9077 152.316 50.0846C152.485 50.2581 152.666 50.3192 152.857 50.2679ZM154.92 39.6577C155.3 39.5423 155.663 39.4176 156.01 39.2835C156.357 39.1494 156.672 38.9967 156.955 38.8252L156.796 47.9606C156.795 48.1113 156.8 48.2811 156.809 48.4701C156.828 48.6429 156.874 48.788 156.946 48.9054C157.032 49.0194 157.17 49.0508 157.361 48.9994C157.591 48.9379 157.789 48.755 157.953 48.4509C158.115 48.1339 158.216 47.5936 158.258 46.8298L158.316 45.9728L158.68 45.8753L158.575 47.4016C158.537 47.9729 158.428 48.4333 158.248 48.7826C158.067 49.1318 157.846 49.4033 157.583 49.5969C157.336 49.7998 157.079 49.9372 156.811 50.009C156.249 50.1595 155.806 50.0868 155.48 49.7909C155.239 49.5545 155.091 49.2316 155.036 48.8222C154.99 48.3965 154.966 47.9512 154.965 47.4864L154.92 39.6577Z" fill="#2F2F2F"/>
<line x1="121.164" y1="72.0118" x2="132.507" y2="114.345" stroke="#2F2F2F" stroke-width="2.08696" stroke-linecap="round"/>
<line x1="44.6972" y1="93.0412" x2="109.204" y2="75.7566" stroke="#2F2F2F" stroke-width="1.04348"/>
<line x1="46.8579" y1="101.105" x2="111.365" y2="83.8201" stroke="#2F2F2F" stroke-width="1.04348"/>
<line x1="49.0185" y1="109.168" x2="113.526" y2="91.8833" stroke="#2F2F2F" stroke-width="1.04348"/>
<line x1="51.1789" y1="117.231" x2="115.686" y2="99.9465" stroke="#2F2F2F" stroke-width="1.04348"/>
<line x1="53.3396" y1="125.295" x2="117.847" y2="108.01" stroke="#2F2F2F" stroke-width="1.04348"/>
<line x1="55.5002" y1="133.358" x2="120.007" y2="116.073" stroke="#2F2F2F" stroke-width="1.04348"/>
<line x1="135.7" y1="85.9416" x2="200.207" y2="68.657" stroke="#2F2F2F" stroke-width="1.04348"/>
<line x1="137.86" y1="94.0051" x2="202.367" y2="76.7205" stroke="#2F2F2F" stroke-width="1.04348"/>
</svg>
