<svg width="417" height="104" viewBox="0 0 417 104" fill="none" xmlns="http://www.w3.org/2000/svg">
<rect width="411.884" height="74.6682" transform="translate(0.977051 28.6428) rotate(-3.91704)" fill="#EFEEEB"/>
<path d="M3.1701 30.2495L316.276 10.2618L407.83 39.6768L320.76 80.4947L7.65355 100.482L3.1701 30.2495Z" stroke="#2F2F2F" stroke-width="3.48971"/>
<path d="M11.7408 36.6957L314.067 17.3961L389.772 40.8293L317.661 73.6986L15.335 92.9981L13.5379 64.8469L11.7408 36.6957Z" stroke="#2F2F2F" stroke-width="1.16324"/>
<path d="M94.8533 51.8439C94.6864 52.357 94.5189 52.9801 94.3507 53.7131C94.1819 54.4332 94.0151 55.3148 93.8504 56.358L93.4249 56.3805C93.4926 55.7045 93.4952 55.1419 93.4327 54.6926C93.3823 54.2297 93.2649 53.8416 93.0802 53.528C92.8093 53.051 92.4349 52.6958 91.9571 52.4624C91.4921 52.2283 90.9953 52.1253 90.4666 52.1532C89.7961 52.1886 89.1555 52.4229 88.5447 52.856C87.9333 53.2763 87.3745 53.836 86.8684 54.5351C86.3622 55.2343 85.9253 56.0203 85.5576 56.8931C85.1893 57.7531 84.9132 58.647 84.7295 59.5748C84.5451 60.4897 84.4757 61.3792 84.5213 62.2431C84.5881 63.5068 84.8832 64.4417 85.4066 65.0476C85.9428 65.6529 86.6365 65.9331 87.4876 65.8881C88.0292 65.8595 88.6091 65.6995 89.2273 65.4082C89.8584 65.1163 90.3996 64.7127 90.8508 64.1975C91.1806 63.8309 91.4557 63.4091 91.6762 62.9319C91.9089 62.4412 92.1602 61.8137 92.4302 61.0494L92.8557 61.0269C92.5953 62.2174 92.394 63.1785 92.2516 63.9101C92.1214 64.6282 92.0241 65.2346 91.9598 65.7294L91.5342 65.7519C91.5586 65.479 91.5664 65.2588 91.5575 65.0912C91.5418 64.7946 91.4818 64.6361 91.3772 64.6158C91.272 64.5825 91.1136 64.6426 90.9018 64.7961C90.5659 65.0466 90.229 65.2777 89.8911 65.4896C89.5525 65.6885 89.1799 65.8569 88.7734 65.9947C88.3669 66.1326 87.8799 66.2165 87.3126 66.2465C85.8941 66.3214 84.765 65.9996 83.9254 65.2811C83.0979 64.5489 82.6446 63.4349 82.5656 61.9391C82.5193 61.0623 82.6077 60.1654 82.8308 59.2484C83.0532 58.3186 83.3937 57.4213 83.8523 56.5565C84.311 55.6918 84.8711 54.9122 85.5326 54.2178C86.1942 53.5233 86.9403 52.9602 87.7709 52.5284C88.6016 52.0966 89.5069 51.8548 90.4869 51.803C91.0414 51.7737 91.4961 51.8143 91.8511 51.9249C92.2054 52.0226 92.5037 52.162 92.746 52.3431C93.0006 52.5107 93.2304 52.699 93.4354 52.908C93.6254 53.079 93.7944 53.0959 93.9423 52.9588C94.1025 52.8081 94.2707 52.4436 94.4471 51.8653L94.8533 51.8439ZM96.2716 65.5016L94.5888 65.5905L97.737 52.4868C97.8428 52.0415 97.8064 51.7202 97.6279 51.5227C97.4622 51.3246 97.0635 51.2422 96.4316 51.2756L96.5262 50.8632C97.2348 50.8129 97.8693 50.7082 98.4299 50.5493C98.9898 50.3775 99.5018 50.1565 99.966 49.8862L96.2716 65.5016ZM96.662 62.6103C97.0804 61.2304 97.484 60.0583 97.8727 59.0938C98.2743 58.1286 98.6793 57.3507 99.0878 56.7602C99.4955 56.1567 99.9247 55.7138 100.375 55.4314C100.826 55.149 101.303 54.9945 101.806 54.9679C102.412 54.9359 102.832 55.0624 103.067 55.3474C103.314 55.6188 103.437 55.9808 103.435 56.4335C103.433 56.8862 103.367 57.3488 103.236 57.8211L101.659 63.5683C101.573 63.909 101.543 64.1951 101.568 64.4265C101.593 64.6579 101.748 64.7661 102.031 64.7511C102.276 64.7382 102.508 64.5902 102.726 64.3071C102.956 64.0234 103.187 63.4875 103.417 62.6995L103.63 61.9706L103.998 61.9512L103.589 63.3887C103.437 63.9398 103.233 64.3644 102.977 64.6624C102.734 64.9597 102.467 65.1678 102.176 65.2866C101.899 65.4176 101.624 65.4903 101.354 65.5046C100.838 65.5319 100.471 65.4349 100.252 65.2137C100.033 64.9925 99.9262 64.6749 99.9302 64.2609C99.9471 63.8462 100.026 63.3765 100.166 62.8519L101.711 57.2229C101.766 57.026 101.812 56.7973 101.85 56.5367C101.888 56.276 101.863 56.0575 101.776 55.8811C101.702 55.6911 101.509 55.6042 101.2 55.6206C100.878 55.6376 100.537 55.8043 100.179 56.1206C99.8329 56.4234 99.4807 56.8558 99.1225 57.4178C98.7643 57.9798 98.4183 58.6511 98.0845 59.4317C97.7508 60.2123 97.4347 61.0824 97.1362 62.0421C96.85 62.9883 96.5872 64.0108 96.3479 65.1096L96.662 62.6103ZM107.473 64.9097L105.791 64.9986L107.673 56.5781C107.779 56.1329 107.801 55.8214 107.74 55.6435C107.692 55.4651 107.558 55.3816 107.339 55.3932C107.055 55.4082 106.805 55.5701 106.589 55.8789C106.373 56.1878 106.154 56.7101 105.935 57.4458L105.721 58.1748L105.354 58.1942L105.763 56.7567C105.927 56.2048 106.131 55.7803 106.374 55.483C106.63 55.185 106.897 54.9769 107.175 54.8588C107.466 54.727 107.74 54.6544 107.998 54.6407C108.385 54.6203 108.66 54.6898 108.823 54.8493C109 55.008 109.102 55.2225 109.129 55.4926C109.169 55.762 109.165 56.0596 109.118 56.3854C109.083 56.6976 109.034 57.0041 108.972 57.3047L107.473 64.9097ZM111.93 54.9179C111.634 54.9335 111.332 55.0917 111.024 55.3924C110.729 55.6796 110.428 56.0964 110.121 56.6428C109.826 57.1756 109.53 57.8184 109.233 58.5711C108.949 59.3103 108.669 60.1332 108.394 61.04C108.132 61.9461 107.879 62.9228 107.637 63.9701L107.99 61.4687C108.349 60.1825 108.686 59.0979 109.001 58.2148C109.329 57.3311 109.66 56.6154 109.993 56.0676C110.326 55.5069 110.673 55.1007 111.035 54.8488C111.408 54.5834 111.808 54.4394 112.234 54.4169C112.595 54.3978 112.877 54.4864 113.082 54.6825C113.299 54.8779 113.416 55.1368 113.433 55.4591C113.447 55.717 113.395 55.959 113.278 56.185C113.159 56.3982 113.001 56.5747 112.801 56.7145C112.614 56.8408 112.398 56.9104 112.153 56.9233C111.934 56.9349 111.743 56.8868 111.583 56.7789C111.434 56.6574 111.354 56.4871 111.342 56.2679C111.331 56.0616 111.361 55.879 111.43 55.7202C111.498 55.5484 111.594 55.4012 111.717 55.2783C111.84 55.1554 111.983 55.0573 112.147 54.984C112.12 54.9596 112.087 54.9419 112.047 54.9311C112.021 54.9195 111.982 54.9151 111.93 54.9179ZM118.802 63.5354L117.58 65.0158L115.64 56.196C115.555 55.7996 115.463 55.5265 115.364 55.3765C115.266 55.2265 115.133 55.156 114.965 55.1648C114.823 55.1723 114.668 55.2969 114.5 55.5386C114.331 55.7673 114.137 56.256 113.918 57.0046L113.704 57.7336L113.337 57.753L113.746 56.3155C113.975 55.5146 114.283 54.9746 114.669 54.6956C115.054 54.4037 115.453 54.2468 115.866 54.225C116.266 54.2039 116.582 54.3165 116.815 54.5628C117.047 54.7962 117.226 55.2523 117.352 55.9309L118.802 63.5354ZM114.751 67.2601C115.289 66.9343 115.855 66.4971 116.446 65.9486C117.052 65.4123 117.667 64.6944 118.292 63.7951C119.001 62.7877 119.634 61.6681 120.19 60.4362C120.757 59.1907 121.131 57.9489 121.312 56.711C121.099 56.6058 120.866 56.4759 120.612 56.3212C120.371 56.1529 120.166 55.9568 119.999 55.7329C119.832 55.4961 119.746 55.229 119.744 54.9318C119.754 54.6338 119.845 54.4027 120.017 54.2384C120.19 54.0742 120.411 53.9849 120.682 53.9706C121.03 53.9522 121.289 54.0743 121.458 54.3369C121.639 54.5859 121.743 54.9684 121.771 55.4842C121.805 56.1418 121.733 56.8568 121.554 57.6292C121.375 58.3887 121.118 59.1651 120.785 59.9586C120.465 60.7514 120.098 61.5207 119.685 62.2667C119.271 62.9998 118.848 63.6687 118.414 64.2735C118.221 64.5423 117.955 64.8797 117.614 65.2856C117.273 65.6915 116.862 66.1076 116.38 66.534C115.912 66.9725 115.376 67.3564 114.773 67.6857C114.396 67.8866 114.067 68.0269 113.787 68.1063C113.52 68.198 113.296 68.2486 113.116 68.2581C112.858 68.2718 112.629 68.2128 112.428 68.0811C112.227 67.9624 112.121 67.7741 112.107 67.5162C112.092 67.2325 112.19 67.0075 112.401 66.8412C112.6 66.6884 112.835 66.6049 113.105 66.5906C113.402 66.5749 113.683 66.6377 113.949 66.7788C114.228 66.9192 114.495 67.0797 114.751 67.2601ZM123.807 63.7558C123.913 63.8019 124.025 63.8413 124.143 63.8738C124.273 63.8928 124.461 63.8958 124.706 63.8829C125.273 63.8529 125.729 63.6608 126.072 63.3064C126.427 62.9385 126.588 62.4322 126.554 61.7874C126.533 61.3877 126.435 60.9985 126.26 60.6198C126.097 60.2275 125.815 59.7834 125.413 59.2873C125.095 58.8904 124.789 58.4863 124.496 58.0751C124.202 57.6509 124.039 57.1423 124.008 56.5491C123.979 55.9946 124.089 55.5104 124.339 55.0963C124.588 54.6694 124.932 54.3279 125.371 54.072C125.823 53.8153 126.319 53.6727 126.861 53.6441C127.235 53.6243 127.605 53.6501 127.971 53.7212C128.336 53.7924 128.642 53.9444 128.887 54.1771C129.144 54.3963 129.285 54.738 129.31 55.2022C129.316 55.3183 129.291 55.4618 129.235 55.6329C129.192 55.7903 129.109 55.9305 128.986 56.0534C128.863 56.1762 128.692 56.2434 128.473 56.255C128.267 56.2659 128.082 56.2045 127.92 56.0709C127.757 55.9243 127.669 55.7285 127.656 55.4835C127.644 55.2514 127.678 55.0298 127.757 54.8187C127.849 54.5941 127.973 54.3741 128.129 54.159C127.876 54.0172 127.55 53.9568 127.15 53.978C126.673 54.0032 126.282 54.1855 125.976 54.5249C125.671 54.8643 125.534 55.3241 125.564 55.9044C125.58 56.201 125.639 56.4629 125.742 56.6903C125.844 56.9047 125.985 57.13 126.165 57.3662C126.359 57.6016 126.588 57.8999 126.853 58.2609C127.201 58.7339 127.497 59.1902 127.74 59.63C127.983 60.0697 128.118 60.541 128.144 61.0439C128.175 61.6371 128.049 62.174 127.764 62.6545C127.491 63.1215 127.11 63.4972 126.621 63.7817C126.131 64.0662 125.584 64.2244 124.978 64.2565C124.539 64.2796 124.117 64.2373 123.71 64.1295C123.304 64.0216 122.964 63.8391 122.692 63.582C122.432 63.3112 122.29 62.9437 122.265 62.4795C122.256 62.299 122.304 62.1089 122.41 61.9094C122.502 61.6976 122.69 61.5842 122.974 61.5693C123.283 61.5529 123.509 61.6703 123.652 61.9214C123.794 62.1595 123.873 62.4334 123.889 62.7429C123.9 62.9492 123.891 63.1372 123.861 63.3069C123.843 63.463 123.825 63.6126 123.807 63.7558ZM132.583 63.234C132.892 63.2176 133.236 63.0055 133.616 62.5975C133.994 62.1766 134.372 61.62 134.749 60.9277C135.127 60.2353 135.467 59.4544 135.77 58.585C136.073 57.7155 136.304 56.8176 136.462 55.8911L136.243 57.9975C135.826 59.3902 135.394 60.5186 134.948 61.3827C134.502 62.2339 134.037 62.8597 133.554 63.2602C133.07 63.6479 132.57 63.8553 132.054 63.8826C131.448 63.9146 130.979 63.7196 130.646 63.2975C130.326 62.8747 130.149 62.3216 130.112 61.6382C130.08 61.0192 130.147 60.3433 130.316 59.6102C130.483 58.8643 130.728 58.1208 131.051 57.3796C131.387 56.6377 131.778 55.9576 132.224 55.3392C132.669 54.7208 133.16 54.2165 133.695 53.8261C134.244 53.4351 134.808 53.2242 135.388 53.1936C135.84 53.1697 136.193 53.3773 136.449 53.8164C136.717 54.2419 136.802 54.8581 136.702 55.6651L136.495 55.7924C136.549 55.1042 136.475 54.5585 136.273 54.1554C136.07 53.7394 135.762 53.5423 135.35 53.5641C135.014 53.5818 134.669 53.7682 134.312 54.1232C133.968 54.4647 133.637 54.9283 133.319 55.5141C133.013 56.0863 132.737 56.728 132.49 57.4393C132.256 58.15 132.075 58.8837 131.947 59.6404C131.831 60.3836 131.791 61.0969 131.827 61.7804C131.856 62.3349 131.935 62.7186 132.062 62.9317C132.203 63.1441 132.376 63.2449 132.583 63.234ZM136.95 53.3826C137.259 53.3534 137.567 53.3112 137.874 53.2562C138.182 53.2011 138.462 53.1217 138.715 53.0178L136.749 61.6949C136.729 61.8123 136.699 61.9691 136.657 62.1652C136.628 62.3478 136.637 62.5154 136.684 62.6681C136.744 62.8201 136.883 62.8904 137.102 62.8788C137.36 62.8652 137.604 62.71 137.834 62.4134C138.064 62.1168 138.282 61.588 138.488 60.8272L138.682 60.0992L139.049 60.0798L138.64 61.5174C138.487 62.0427 138.289 62.4605 138.047 62.7707C137.817 63.0673 137.57 63.2808 137.305 63.4112C137.041 63.5544 136.78 63.6329 136.522 63.6465C136.019 63.6731 135.656 63.5242 135.432 63.1998C135.249 62.9121 135.185 62.5727 135.242 62.1818C135.299 61.778 135.368 61.3735 135.45 60.9683L136.95 53.3826ZM142.532 63.0574L140.849 63.1463L142.732 54.7258C142.775 54.5683 142.805 54.3987 142.821 54.2168C142.85 54.0213 142.835 53.8605 142.776 53.7342C142.717 53.5951 142.585 53.531 142.378 53.5419C142.095 53.5569 141.851 53.712 141.647 54.0073C141.442 54.2897 141.224 54.8184 140.993 55.5935L140.78 56.3225L140.412 56.3419L140.821 54.9043C141.062 54.077 141.382 53.5234 141.781 53.2437C142.193 52.9634 142.605 52.8123 143.018 52.7905C143.404 52.77 143.686 52.8392 143.863 52.998C144.052 53.1561 144.16 53.3702 144.187 53.6403C144.227 53.8968 144.223 54.188 144.175 54.5138C144.14 54.826 144.092 55.1389 144.031 55.4524L142.532 63.0574ZM143.209 58.9872C143.599 57.8028 143.986 56.8061 144.37 55.997C144.754 55.1879 145.14 54.5339 145.527 54.035C145.914 53.5232 146.315 53.1529 146.729 52.9241C147.156 52.6817 147.602 52.5483 148.066 52.5237C148.672 52.4917 149.092 52.6182 149.327 52.9032C149.574 53.1746 149.697 53.5367 149.695 53.9894C149.692 54.4292 149.626 54.8917 149.497 55.377L147.919 61.1241C147.821 61.4784 147.785 61.7713 147.81 62.0027C147.848 62.2205 148.008 62.322 148.292 62.307C148.537 62.294 148.768 62.146 148.986 61.863C149.217 61.5792 149.447 61.0434 149.677 60.2554L149.891 59.5264L150.258 59.507L149.849 60.9445C149.697 61.4957 149.493 61.9202 149.238 62.2182C148.995 62.5155 148.728 62.7236 148.437 62.8424C148.159 62.9735 147.885 63.0462 147.614 63.0605C147.305 63.0768 147.044 63.0389 146.832 62.9466C146.633 62.8537 146.478 62.7261 146.366 62.5639C146.212 62.3393 146.151 62.0387 146.182 61.662C146.214 61.2853 146.296 60.8672 146.426 60.4077L147.972 54.7787C148.027 54.5948 148.067 54.3793 148.093 54.1322C148.131 53.8716 148.112 53.6463 148.038 53.4563C147.962 53.2533 147.77 53.1601 147.46 53.1764C147.151 53.1928 146.829 53.3455 146.495 53.6347C146.161 53.9239 145.821 54.3298 145.473 54.8525C145.125 55.3623 144.789 55.9749 144.465 56.6903C144.14 57.3928 143.832 58.172 143.541 59.0278C143.262 59.8702 143.012 60.7691 142.791 61.7248L143.209 58.9872ZM158.12 52.2641L158.083 52.654L152.067 52.9718L152.144 52.5798L158.12 52.2641ZM153.646 60.8215C153.552 61.2532 153.594 61.5613 153.772 61.7459C153.962 61.9169 154.199 61.9949 154.483 61.9799C154.767 61.9649 155.044 61.8274 155.315 61.5674C155.598 61.3067 155.861 60.7692 156.102 59.9547L156.333 59.186L156.701 59.1666L156.359 60.4066C156.119 61.2598 155.782 61.853 155.347 62.1864C154.925 62.519 154.418 62.701 153.824 62.7323C153.296 62.7603 152.884 62.6721 152.589 62.4679C152.305 62.2501 152.127 61.9362 152.054 61.5263C151.98 61.1164 152.007 60.643 152.134 60.1062L154.58 49.5029C154.889 49.4736 155.191 49.4318 155.485 49.3775C155.793 49.3224 156.066 49.2433 156.307 49.1401L153.646 60.8215ZM159.399 62.1663L157.716 62.2552L160.864 49.1514C160.97 48.7062 160.934 48.3849 160.755 48.1874C160.59 47.9892 160.191 47.9069 159.559 47.9402L159.654 47.5279C160.362 47.4776 160.997 47.3729 161.557 47.214C162.117 47.0422 162.629 46.8211 163.093 46.5509L159.399 62.1663ZM159.789 59.275C160.208 57.8951 160.611 56.7229 161 55.7584C161.402 54.7933 161.807 54.0154 162.215 53.4249C162.623 52.8214 163.052 52.3785 163.503 52.0961C163.953 51.8137 164.43 51.6592 164.933 51.6326C165.539 51.6006 165.959 51.7271 166.194 52.0121C166.441 52.2835 166.564 52.6455 166.562 53.0982C166.56 53.5509 166.494 54.0134 166.364 54.4858L164.786 60.233C164.701 60.5737 164.67 60.8597 164.696 61.0912C164.721 61.3226 164.875 61.4308 165.159 61.4158C165.404 61.4029 165.635 61.2549 165.853 60.9718C166.084 60.6881 166.314 60.1522 166.544 59.3642L166.758 58.6353L167.125 58.6158L166.716 60.0534C166.564 60.6045 166.36 61.0291 166.105 61.3271C165.862 61.6244 165.595 61.8325 165.303 61.9513C165.026 62.0823 164.752 62.155 164.481 62.1693C163.965 62.1966 163.598 62.0996 163.379 61.8784C163.161 61.6572 163.053 61.3396 163.057 60.9256C163.074 60.5109 163.153 60.0412 163.293 59.5166L164.839 53.8875C164.893 53.6907 164.939 53.462 164.977 53.2014C165.015 52.9407 164.99 52.7222 164.903 52.5458C164.829 52.3557 164.637 52.2689 164.327 52.2853C164.005 52.3023 163.665 52.469 163.306 52.7853C162.96 53.0881 162.608 53.5205 162.25 54.0825C161.892 54.6445 161.546 55.3158 161.212 56.0964C160.878 56.877 160.562 57.7471 160.264 58.7068C159.977 59.653 159.715 60.6755 159.475 61.7743L159.789 59.275ZM169.653 57.2215C170.362 56.9384 171.001 56.6654 171.569 56.4026C172.149 56.1263 172.606 55.8435 172.94 55.5543C173.384 55.1558 173.728 54.6851 173.971 54.1421C174.214 53.5991 174.319 53.0117 174.285 52.3798C174.265 52.0059 174.227 51.7687 174.17 51.6682C174.113 51.5678 174.033 51.5203 173.93 51.5258C173.607 51.5428 173.267 51.703 172.908 52.0065C172.549 52.3099 172.202 52.7226 171.868 53.2446C171.532 53.7537 171.227 54.3324 170.951 54.9806C170.687 55.6281 170.485 56.3177 170.342 57.0493C170.199 57.7681 170.146 58.4821 170.184 59.1913C170.219 59.8489 170.366 60.3196 170.627 60.6032C170.887 60.874 171.217 60.9988 171.617 60.9777C172.081 60.9531 172.563 60.7854 173.064 60.4745C173.565 60.1635 174.041 59.634 174.493 58.886L174.811 59.0244C174.588 59.4629 174.288 59.8926 173.909 60.3134C173.53 60.7343 173.097 61.087 172.607 61.3714C172.13 61.6423 171.614 61.7924 171.06 61.8217C170.544 61.849 170.087 61.7697 169.69 61.5838C169.292 61.3979 168.979 61.1105 168.752 60.7217C168.524 60.32 168.394 59.8225 168.363 59.2293C168.333 58.6748 168.404 58.0504 168.574 57.3561C168.744 56.6489 168.997 55.9437 169.335 55.2405C169.685 54.5237 170.109 53.8612 170.607 53.253C171.105 52.6448 171.667 52.1496 172.294 51.7674C172.92 51.3851 173.601 51.1746 174.336 51.1358C174.736 51.1147 175.077 51.2066 175.359 51.4115C175.654 51.6028 175.812 51.9112 175.835 52.3368C175.862 52.8526 175.733 53.3443 175.447 53.812C175.174 54.2661 174.795 54.6934 174.312 55.0939C173.841 55.4808 173.323 55.8315 172.758 56.1458C172.193 56.4602 171.638 56.7352 171.095 56.9708C170.551 57.2064 170.07 57.3999 169.651 57.5514L169.653 57.2215ZM178.893 61.1363L177.21 61.2252L179.093 52.8047C179.125 52.6866 179.15 52.5366 179.166 52.3547C179.195 52.1592 179.185 51.9851 179.139 51.8325C179.092 51.6798 178.965 51.6089 178.759 51.6198C178.475 51.6347 178.225 51.7967 178.009 52.1055C177.792 52.4144 177.574 52.9367 177.354 53.6724L177.141 54.4014L176.773 54.4208L177.182 52.9832C177.347 52.4314 177.551 52.0069 177.794 51.7095C178.049 51.4115 178.317 51.2035 178.595 51.0853C178.885 50.9536 179.159 50.8809 179.417 50.8673C179.804 50.8469 180.086 50.9225 180.263 51.0942C180.44 51.2529 180.542 51.4738 180.57 51.7568C180.61 52.0263 180.606 52.3174 180.558 52.6303C180.51 52.9432 180.454 53.2435 180.392 53.5313L178.893 61.1363ZM183.946 52.878C184.022 52.6025 184.066 52.3415 184.079 52.0951C184.105 51.8481 184.075 51.6492 183.989 51.4986C183.916 51.3343 183.757 51.2587 183.512 51.2716C183.151 51.2907 182.763 51.5375 182.348 52.012C181.946 52.4729 181.54 53.115 181.131 53.9384C180.734 54.7481 180.358 55.6926 180.001 56.7718C179.643 57.8381 179.335 58.9793 179.076 60.1956L179.551 57.0671C180.062 55.4884 180.552 54.234 181.02 53.3041C181.488 52.3742 181.97 51.7023 182.465 51.2881C182.974 50.8734 183.524 50.6503 184.117 50.619C184.53 50.5972 184.832 50.6782 185.023 50.8621C185.226 51.0324 185.354 51.2648 185.409 51.5594C185.463 51.8539 185.467 52.1705 185.42 52.5092C185.386 52.8472 185.339 53.173 185.278 53.4865L183.69 60.8829L181.949 60.9748L183.946 52.878ZM188.781 52.6225C188.889 52.216 188.934 51.8451 188.917 51.5098C188.898 51.1616 188.747 50.995 188.464 51.01C188.077 51.0305 187.682 51.2776 187.281 51.7514C186.879 52.2252 186.475 52.8931 186.068 53.7551C185.66 54.6043 185.26 55.6017 184.868 56.7474C184.488 57.8795 184.127 59.127 183.786 60.4899L184.1 57.9905C184.532 56.6229 184.936 55.4636 185.312 54.5127C185.688 53.5489 186.067 52.7659 186.449 52.1639C186.831 51.5618 187.234 51.1202 187.659 50.8392C188.083 50.5452 188.553 50.3846 189.069 50.3573C189.611 50.3287 189.986 50.4641 190.196 50.7633C190.406 51.0626 190.503 51.4389 190.489 51.8923C190.486 52.332 190.425 52.7749 190.307 53.2208L188.729 58.9679C188.621 59.3745 188.592 59.6799 188.641 59.8842C188.69 60.0756 188.844 60.1644 189.102 60.1508C189.347 60.1379 189.578 59.9899 189.796 59.7068C190.027 59.4231 190.257 58.8872 190.487 58.0992L190.7 57.3702L191.068 57.3508L190.659 58.7884C190.507 59.3395 190.303 59.7641 190.047 60.0621C189.804 60.3594 189.537 60.5674 189.246 60.6863C188.969 60.8173 188.695 60.89 188.424 60.9043C188.101 60.9213 187.841 60.8834 187.642 60.7904C187.457 60.7097 187.308 60.5947 187.197 60.4454C187.029 60.2086 186.962 59.9083 186.994 59.5445C187.026 59.1678 187.107 58.7368 187.236 58.2515L188.781 52.6225ZM199.518 53.3354C199.122 54.6494 198.735 55.7626 198.356 56.6748C197.978 57.587 197.59 58.3252 197.193 58.8893C196.809 59.4527 196.404 59.8684 195.979 60.1366C195.566 60.4041 195.128 60.5501 194.664 60.5746C194.096 60.6046 193.677 60.4975 193.405 60.2532C193.134 60.0089 192.986 59.6676 192.963 59.2291C192.94 58.7907 193.004 58.2895 193.155 57.7255L194.733 51.9783C194.842 51.5847 194.871 51.2857 194.821 51.0814C194.772 50.8772 194.618 50.7818 194.36 50.7955C194.115 50.8084 193.877 50.9567 193.647 51.2405C193.429 51.5235 193.205 52.0591 192.975 52.8471L192.761 53.576L192.394 53.5955L192.803 52.1579C192.968 51.6061 193.172 51.1815 193.415 50.8842C193.67 50.5862 193.937 50.3782 194.216 50.26C194.506 50.1283 194.78 50.0556 195.038 50.042C195.605 50.012 195.987 50.1276 196.181 50.3889C196.388 50.6366 196.477 50.9681 196.447 51.3835C196.43 51.7981 196.357 52.2352 196.226 52.6947L194.68 58.3237C194.377 59.426 194.547 59.9601 195.192 59.926C195.501 59.9097 195.823 59.7569 196.157 59.4677C196.49 59.1656 196.823 58.7472 197.157 58.2123C197.49 57.6645 197.812 57.0204 198.122 56.2799C198.444 55.5258 198.743 54.6953 199.018 53.7886C199.306 52.8682 199.558 51.8851 199.774 50.8392L199.518 53.3354ZM199.727 58.3869C199.655 58.7398 199.625 59.0323 199.637 59.2644C199.662 59.483 199.803 59.5854 200.061 59.5718C200.345 59.5568 200.595 59.3949 200.811 59.086C201.04 58.7636 201.258 58.2413 201.465 57.5191L201.679 56.7902L202.047 56.7708L201.638 58.2083C201.486 58.7594 201.282 59.184 201.026 59.482C200.783 59.7793 200.516 59.9874 200.225 60.1062C199.947 60.2373 199.673 60.3099 199.402 60.3242C199.196 60.3351 199 60.3002 198.815 60.2195C198.63 60.1388 198.488 60.017 198.388 59.8541C198.274 59.6404 198.22 59.3652 198.228 59.0285C198.249 58.6912 198.316 58.2351 198.428 57.6603L199.927 50.0552C200.248 50.0253 200.556 49.9832 200.851 49.9288C201.158 49.8738 201.432 49.7947 201.673 49.6915L199.727 58.3869ZM205.508 59.7301L203.825 59.819L205.708 51.3985C205.74 51.2804 205.765 51.1304 205.781 50.9485C205.809 50.7531 205.8 50.579 205.753 50.4263C205.706 50.2736 205.58 50.2027 205.373 50.2136C205.09 50.2286 204.84 50.3905 204.623 50.6993C204.407 51.0082 204.189 51.5305 203.969 52.2662L203.755 52.9952L203.388 53.0146L203.797 51.577C203.962 51.0252 204.165 50.6007 204.408 50.3034C204.664 50.0054 204.931 49.7973 205.209 49.6791C205.5 49.5474 205.774 49.4747 206.032 49.4611C206.419 49.4407 206.701 49.5163 206.878 49.688C207.055 49.8467 207.157 50.0676 207.185 50.3506C207.225 50.6201 207.221 50.9112 207.173 51.2241C207.124 51.537 207.069 51.8373 207.007 52.1251L205.508 59.7301ZM210.561 51.4718C210.637 51.1963 210.681 50.9353 210.694 50.6889C210.72 50.4419 210.69 50.243 210.604 50.0924C210.531 49.9282 210.372 49.8525 210.127 49.8655C209.766 49.8845 209.378 50.1313 208.963 50.6058C208.561 51.0667 208.155 51.7088 207.746 52.5322C207.349 53.3419 206.972 54.2864 206.616 55.3656C206.258 56.4319 205.95 57.5732 205.691 58.7894L206.166 55.6609C206.677 54.0822 207.167 52.8279 207.635 51.898C208.103 50.9681 208.585 50.2961 209.08 49.882C209.588 49.4672 210.139 49.2441 210.732 49.2128C211.145 49.191 211.447 49.272 211.637 49.4559C211.84 49.6262 211.969 49.8586 212.023 50.1532C212.078 50.4477 212.081 50.7643 212.035 51.103C212.001 51.441 211.953 51.7668 211.892 52.0804L210.305 59.4767L208.564 59.5687L210.561 51.4718ZM215.396 51.2163C215.504 50.8098 215.549 50.4389 215.531 50.1036C215.513 49.7554 215.362 49.5889 215.078 49.6039C214.691 49.6243 214.297 49.8714 213.895 50.3452C213.494 50.819 213.089 51.4869 212.682 52.349C212.275 53.1981 211.875 54.1955 211.483 55.3412C211.103 56.4733 210.742 57.7208 210.4 59.0837L210.714 56.5844C211.146 55.2167 211.551 54.0574 211.927 53.1065C212.303 52.1427 212.682 51.3598 213.064 50.7577C213.446 50.1556 213.849 49.714 214.274 49.433C214.698 49.139 215.168 48.9784 215.684 48.9512C216.225 48.9226 216.601 49.0579 216.811 49.3571C217.021 49.6564 217.118 50.0327 217.103 50.4861C217.101 50.9259 217.04 51.3687 216.921 51.8146L215.344 57.5618C215.236 57.9683 215.207 58.2737 215.256 58.478C215.305 58.6694 215.458 58.7583 215.716 58.7446C215.961 58.7317 216.193 58.5837 216.411 58.3006C216.641 58.0169 216.872 57.481 217.102 56.693L217.315 55.9641L217.683 55.9446L217.274 57.3822C217.122 57.9333 216.918 58.3579 216.662 58.6559C216.419 58.9532 216.152 59.1613 215.861 59.2801C215.583 59.4111 215.309 59.4838 215.039 59.4981C214.716 59.5152 214.456 59.4772 214.257 59.3843C214.071 59.3035 213.923 59.1885 213.812 59.0392C213.644 58.8024 213.576 58.5021 213.609 58.1383C213.641 57.7616 213.721 57.3307 213.851 56.8454L215.396 51.2163ZM224.491 49.1453L224.586 48.7524L230.292 48.4509L230.197 48.8439L224.491 49.1453ZM230.44 43.5358C230.195 43.5487 229.985 43.6116 229.81 43.7242C229.635 43.8369 229.48 43.9615 229.345 44.098C229.124 44.3294 228.936 44.6756 228.779 45.1365C228.635 45.5838 228.5 46.1016 228.376 46.6901C228.265 47.2778 228.143 47.8985 228.009 48.5521L225.135 62.0681C224.826 62.0974 224.524 62.1392 224.23 62.1935C223.935 62.2479 223.661 62.327 223.408 62.4309L226.326 48.641C226.543 47.5951 226.781 46.7291 227.042 46.0429C227.316 45.356 227.661 44.7882 228.077 44.3395C228.358 44.0272 228.707 43.7761 229.124 43.5859C229.553 43.3822 229.993 43.2685 230.444 43.2446C231.037 43.2133 231.496 43.3248 231.82 43.5793C232.156 43.8201 232.334 44.134 232.354 44.5209C232.366 44.7401 232.319 44.9559 232.214 45.1684C232.109 45.3808 231.963 45.5566 231.776 45.6958C231.59 45.835 231.374 45.911 231.129 45.924C230.884 45.9369 230.687 45.8891 230.539 45.7805C230.391 45.672 230.318 45.5142 230.32 45.3072C230.303 44.9848 230.392 44.7086 230.587 44.4785C230.781 44.2354 231.037 44.0603 231.354 43.953C231.348 43.8369 231.259 43.7382 231.087 43.6568C230.913 43.5625 230.698 43.5222 230.44 43.5358ZM232.255 58.317L230.572 58.4059L232.455 49.9853C232.56 49.5401 232.583 49.2286 232.522 49.0508C232.473 48.8723 232.34 48.7888 232.12 48.8004C231.837 48.8154 231.587 48.9773 231.37 49.2862C231.154 49.595 230.936 50.1173 230.716 50.8531L230.502 51.582L230.135 51.6014L230.544 50.1639C230.709 49.6121 230.912 49.1875 231.155 48.8902C231.411 48.5922 231.678 48.3841 231.956 48.266C232.247 48.1343 232.521 48.0616 232.779 48.048C233.166 48.0275 233.441 48.097 233.605 48.2565C233.781 48.4153 233.883 48.6297 233.91 48.8998C233.95 49.1693 233.947 49.4669 233.899 49.7926C233.864 50.1048 233.815 50.4113 233.754 50.712L232.255 58.317ZM236.712 48.3251C236.415 48.3408 236.113 48.4989 235.806 48.7997C235.511 49.0868 235.209 49.5036 234.902 50.05C234.607 50.5828 234.311 51.2256 234.015 51.9783C233.73 52.7175 233.451 53.5404 233.175 54.4472C232.913 55.3533 232.66 56.33 232.418 57.3773L232.771 54.8759C233.13 53.5897 233.467 52.5051 233.782 51.6221C234.111 50.7383 234.441 50.0226 234.775 49.4748C235.107 48.9142 235.454 48.5079 235.816 48.256C236.19 47.9906 236.589 47.8466 237.015 47.8242C237.376 47.8051 237.659 47.8936 237.863 48.0897C238.08 48.2851 238.197 48.544 238.214 48.8664C238.228 49.1243 238.176 49.3662 238.059 49.5923C237.941 49.8054 237.782 49.9819 237.582 50.1217C237.395 50.248 237.179 50.3176 236.934 50.3306C236.715 50.3421 236.525 50.294 236.364 50.1861C236.215 50.0647 236.135 49.8943 236.123 49.6751C236.113 49.4688 236.142 49.2862 236.211 49.1274C236.279 48.9557 236.375 48.8084 236.498 48.6855C236.621 48.5626 236.764 48.4645 236.928 48.3912C236.901 48.3668 236.868 48.3491 236.829 48.3383C236.802 48.3268 236.763 48.3224 236.712 48.3251ZM245.475 50.9073C245.079 52.2213 244.692 53.3344 244.313 54.2467C243.935 55.1589 243.547 55.8971 243.15 56.4611C242.766 57.0245 242.361 57.4403 241.936 57.7085C241.523 57.976 241.085 58.122 240.621 58.1465C240.053 58.1765 239.634 58.0693 239.362 57.8251C239.091 57.5808 238.943 57.2394 238.92 56.801C238.897 56.3626 238.961 55.8613 239.112 55.2973L240.69 49.5502C240.799 49.1566 240.828 48.8576 240.779 48.6533C240.729 48.449 240.575 48.3537 240.317 48.3673C240.072 48.3803 239.835 48.5286 239.604 48.8124C239.386 49.0954 239.162 49.6309 238.932 50.4189L238.719 51.1479L238.351 51.1673L238.76 49.7298C238.925 49.178 239.129 48.7534 239.372 48.4561C239.627 48.1581 239.894 47.95 240.173 47.8319C240.463 47.7002 240.737 47.6275 240.995 47.6139C241.563 47.5839 241.944 47.6995 242.139 47.9608C242.346 48.2084 242.434 48.54 242.404 48.9553C242.388 49.37 242.314 49.8071 242.183 50.2666L240.638 55.8956C240.334 56.9979 240.504 57.532 241.149 57.4979C241.458 57.4815 241.78 57.3288 242.114 57.0396C242.447 56.7375 242.781 56.319 243.114 55.7842C243.448 55.2364 243.769 54.5922 244.079 53.8517C244.401 53.0976 244.7 52.2672 244.975 51.3604C245.263 50.4401 245.515 49.4569 245.731 48.411L245.475 50.9073ZM245.684 55.9587C245.612 56.3117 245.582 56.6042 245.595 56.8363C245.619 57.0548 245.76 57.1573 246.018 57.1437C246.302 57.1287 246.552 56.9667 246.768 56.6579C246.997 56.3355 247.215 55.8132 247.423 55.091L247.636 54.3621L248.004 54.3426L247.595 55.7802C247.443 56.3313 247.239 56.7559 246.983 57.0539C246.74 57.3512 246.473 57.5593 246.182 57.6781C245.905 57.8091 245.63 57.8818 245.36 57.8961C245.153 57.907 244.957 57.8721 244.772 57.7914C244.587 57.7107 244.445 57.5889 244.346 57.426C244.231 57.2122 244.177 56.937 244.186 56.6004C244.206 56.2631 244.273 55.807 244.385 55.2321L245.884 47.6271C246.206 47.5972 246.514 47.555 246.808 47.5007C247.116 47.4457 247.389 47.3665 247.63 47.2633L245.684 55.9587ZM255.853 47.1004L255.815 47.4903L249.799 47.8082L249.876 47.4162L255.853 47.1004ZM251.378 55.6579C251.284 56.0896 251.327 56.3977 251.504 56.5822C251.694 56.7532 251.931 56.8312 252.215 56.8162C252.499 56.8013 252.776 56.6638 253.047 56.4038C253.33 56.1431 253.593 55.6055 253.834 54.791L254.065 54.0224L254.433 54.003L254.091 55.243C253.852 56.0962 253.514 56.6894 253.079 57.0227C252.657 57.3554 252.15 57.5374 251.557 57.5687C251.028 57.5966 250.616 57.5085 250.321 57.3043C250.038 57.0865 249.859 56.7726 249.786 56.3627C249.713 55.9528 249.739 55.4794 249.866 54.9425L252.312 44.3392C252.621 44.31 252.923 44.2682 253.217 44.2138C253.525 44.1588 253.799 44.0797 254.039 43.9764L251.378 55.6579ZM257.015 52.6058C257.724 52.3226 258.363 52.0496 258.931 51.7869C259.511 51.5105 259.968 51.2278 260.302 50.9386C260.746 50.5401 261.09 50.0694 261.333 49.5264C261.576 48.9834 261.681 48.3959 261.647 47.7641C261.627 47.3901 261.589 47.1529 261.532 47.0525C261.475 46.9521 261.395 46.9046 261.292 46.91C260.969 46.9271 260.629 47.0873 260.27 47.3907C259.911 47.6942 259.564 48.1069 259.229 48.6289C258.894 49.138 258.589 49.7166 258.313 50.3648C258.049 51.0123 257.847 51.7019 257.704 52.4336C257.561 53.1523 257.508 53.8663 257.546 54.5756C257.581 55.2332 257.728 55.7038 257.989 55.9875C258.249 56.2582 258.579 56.383 258.979 56.3619C259.443 56.3374 259.925 56.1697 260.426 55.8587C260.927 55.5478 261.403 55.0183 261.855 54.2703L262.173 54.4087C261.95 54.8472 261.65 55.2768 261.271 55.6977C260.892 56.1186 260.458 56.4712 259.969 56.7557C259.492 57.0266 258.976 57.1767 258.422 57.206C257.906 57.2332 257.449 57.1539 257.052 56.968C256.654 56.7822 256.341 56.4948 256.114 56.1059C255.886 55.7042 255.756 55.2068 255.725 54.6136C255.695 54.0591 255.766 53.4347 255.936 52.7404C256.105 52.0331 256.359 51.3279 256.697 50.6247C257.047 49.908 257.471 49.2455 257.969 48.6373C258.467 48.0291 259.029 47.5339 259.656 47.1516C260.282 46.7694 260.963 46.5589 261.698 46.52C262.098 46.4989 262.439 46.5908 262.721 46.7957C263.016 46.987 263.174 47.2955 263.197 47.721C263.224 48.2368 263.095 48.7285 262.809 49.1962C262.536 49.6503 262.157 50.0776 261.674 50.4782C261.203 50.8651 260.685 51.2157 260.12 51.5301C259.555 51.8444 259 52.1194 258.457 52.355C257.913 52.5907 257.432 52.7842 257.013 52.9356L257.015 52.6058ZM265.04 56.2938C265.146 56.3399 265.258 56.3793 265.376 56.4118C265.507 56.4308 265.694 56.4338 265.939 56.4209C266.507 56.3909 266.962 56.1987 267.305 55.8444C267.661 55.4765 267.822 54.9701 267.788 54.3254C267.767 53.9256 267.668 53.5364 267.493 53.1577C267.33 52.7655 267.048 52.3214 266.647 51.8253C266.329 51.4283 266.023 51.0243 265.73 50.613C265.436 50.1889 265.273 49.6803 265.242 49.0871C265.212 48.5326 265.322 48.0483 265.572 47.6343C265.821 47.2073 266.165 46.8659 266.604 46.6099C267.056 46.3533 267.553 46.2107 268.095 46.1821C268.468 46.1623 268.838 46.188 269.204 46.2592C269.57 46.3304 269.875 46.4824 270.121 46.7151C270.378 46.9343 270.519 47.276 270.543 47.7402C270.549 47.8562 270.525 47.9998 270.469 48.1708C270.426 48.3283 270.342 48.4685 270.22 48.5913C270.097 48.7142 269.926 48.7814 269.707 48.793C269.5 48.8039 269.316 48.7425 269.154 48.6088C268.991 48.4623 268.903 48.2665 268.89 48.0215C268.878 47.7894 268.911 47.5678 268.991 47.3567C269.082 47.132 269.206 46.9121 269.363 46.6969C269.11 46.5551 268.783 46.4948 268.384 46.5159C267.907 46.5411 267.515 46.7234 267.21 47.0628C266.905 47.4023 266.767 47.8621 266.798 48.4424C266.814 48.7389 266.873 49.0009 266.975 49.2282C267.077 49.4427 267.218 49.668 267.399 49.9041C267.592 50.1396 267.822 50.4378 268.086 50.7988C268.435 51.2718 268.73 51.7282 268.973 52.1679C269.216 52.6077 269.351 53.079 269.378 53.5819C269.409 54.1751 269.282 54.7119 268.997 55.1925C268.725 55.6595 268.344 56.0352 267.854 56.3197C267.365 56.6042 266.817 56.7624 266.211 56.7944C265.773 56.8176 265.35 56.7753 264.944 56.6674C264.537 56.5596 264.198 56.3771 263.926 56.1199C263.666 55.8492 263.523 55.4817 263.499 55.0175C263.489 54.837 263.538 54.6469 263.643 54.4474C263.736 54.2356 263.924 54.1222 264.207 54.1072C264.517 54.0909 264.743 54.2082 264.885 54.4593C265.027 54.6975 265.106 54.9713 265.123 55.2808C265.134 55.4871 265.124 55.6751 265.094 55.8448C265.077 56.0009 265.059 56.1506 265.04 56.2938ZM277.01 46.099C276.52 46.1249 276.04 46.3506 275.571 46.7762C275.115 47.2012 274.706 47.7724 274.343 48.4898C273.98 49.2073 273.7 50.0174 273.502 50.9201C273.316 51.8221 273.25 52.7631 273.302 53.7431C273.336 54.4007 273.484 54.8714 273.745 55.155C274.018 55.4251 274.354 55.5496 274.754 55.5284C275.218 55.5039 275.688 55.3369 276.163 55.0273C276.638 54.7177 277.101 54.1889 277.553 53.4409L277.948 53.5752C277.725 54.0137 277.425 54.4434 277.046 54.8642C276.668 55.2851 276.234 55.6377 275.744 55.9222C275.267 56.1931 274.751 56.3432 274.197 56.3725C273.423 56.4134 272.792 56.2075 272.302 55.7549C271.813 55.3024 271.543 54.6054 271.494 53.6641C271.462 53.0709 271.512 52.4282 271.644 51.7359C271.788 51.03 272.003 50.3333 272.29 49.6457C272.589 48.9446 272.963 48.3106 273.411 47.7438C273.859 47.1641 274.377 46.6906 274.966 46.3233C275.554 45.9561 276.209 45.7533 276.931 45.7152C277.499 45.6852 277.997 45.8076 278.425 46.0824C278.852 46.3443 279.08 46.7331 279.107 47.2489C279.12 47.4939 279.075 47.742 278.972 47.9931C278.881 48.2307 278.736 48.4323 278.538 48.5979C278.34 48.7636 278.099 48.8539 277.816 48.8689C277.545 48.8832 277.341 48.8228 277.205 48.6878C277.068 48.5399 276.994 48.3627 276.983 48.1564C276.963 47.7825 277.095 47.4587 277.378 47.1851C277.66 46.8987 277.986 46.7133 278.357 46.6291C278.218 46.4554 278.043 46.3224 277.831 46.2301C277.619 46.125 277.345 46.0812 277.01 46.099ZM281.023 51.3373C281.732 51.0542 282.371 50.7812 282.939 50.5184C283.519 50.2421 283.976 49.9593 284.31 49.6701C284.754 49.2716 285.098 48.8009 285.341 48.2579C285.584 47.7149 285.689 47.1275 285.655 46.4956C285.635 46.1217 285.597 45.8845 285.54 45.784C285.483 45.6836 285.403 45.6361 285.3 45.6416C284.977 45.6586 284.637 45.8188 284.278 46.1223C283.919 46.4257 283.572 46.8384 283.238 47.3604C282.902 47.8695 282.597 48.4482 282.321 49.0964C282.057 49.7439 281.855 50.4335 281.712 51.1651C281.569 51.8839 281.516 52.5979 281.554 53.3071C281.589 53.9647 281.736 54.4354 281.997 54.719C282.257 54.9898 282.587 55.1146 282.987 55.0935C283.451 55.0689 283.933 54.9012 284.434 54.5903C284.935 54.2793 285.411 53.7498 285.863 53.0018L286.181 53.1402C285.958 53.5787 285.658 54.0084 285.279 54.4292C284.9 54.8501 284.466 55.2028 283.977 55.4872C283.5 55.7581 282.984 55.9082 282.43 55.9375C281.914 55.9648 281.457 55.8855 281.06 55.6996C280.662 55.5137 280.349 55.2263 280.122 54.8375C279.894 54.4358 279.764 53.9383 279.733 53.3451C279.703 52.7907 279.774 52.1662 279.944 51.4719C280.114 50.7647 280.367 50.0595 280.705 49.3563C281.055 48.6395 281.479 47.977 281.977 47.3688C282.475 46.7606 283.037 46.2654 283.664 45.8832C284.29 45.5009 284.971 45.2904 285.706 45.2516C286.106 45.2305 286.447 45.3224 286.729 45.5273C287.024 45.7186 287.182 46.027 287.205 46.4526C287.232 46.9684 287.103 47.4601 286.817 47.9278C286.544 48.3819 286.165 48.8092 285.682 49.2097C285.211 49.5966 284.693 49.9473 284.128 50.2616C283.563 50.576 283.008 50.851 282.465 51.0866C281.921 51.3222 281.44 51.5157 281.021 51.6672L281.023 51.3373ZM290.282 55.2511L288.6 55.34L290.482 46.9195C290.526 46.762 290.555 46.5923 290.572 46.4104C290.6 46.215 290.585 46.0541 290.527 45.9279C290.468 45.7888 290.335 45.7247 290.129 45.7356C289.845 45.7506 289.601 45.9057 289.397 46.201C289.192 46.4833 288.974 47.0121 288.744 47.7872L288.53 48.5161L288.162 48.5356L288.571 47.098C288.812 46.2706 289.132 45.7171 289.531 45.4374C289.943 45.157 290.355 45.0059 290.768 44.9841C291.155 44.9637 291.436 45.0329 291.613 45.1916C291.802 45.3497 291.911 45.5638 291.938 45.8339C291.977 46.0905 291.973 46.3816 291.926 46.7074C291.891 47.0196 291.842 47.3325 291.781 47.6461L290.282 55.2511ZM290.96 51.1809C291.35 49.9965 291.737 48.9997 292.121 48.1907C292.505 47.3816 292.89 46.7276 293.278 46.2287C293.664 45.7169 294.065 45.3466 294.48 45.1178C294.907 44.8754 295.352 44.7419 295.816 44.7174C296.422 44.6854 296.843 44.8119 297.078 45.0969C297.325 45.3683 297.447 45.7303 297.445 46.183C297.443 46.6228 297.377 47.0854 297.247 47.5707L295.669 53.3178C295.572 53.6721 295.536 53.9649 295.561 54.1964C295.598 54.4142 295.759 54.5156 296.042 54.5006C296.287 54.4877 296.519 54.3397 296.736 54.0566C296.967 53.7729 297.197 53.237 297.427 52.449L297.641 51.7201L298.009 51.7007L297.6 53.1382C297.448 53.6893 297.244 54.1139 296.988 54.4119C296.745 54.7092 296.478 54.9173 296.187 55.0361C295.909 55.1671 295.635 55.2398 295.364 55.2541C295.055 55.2705 294.794 55.2325 294.583 55.1403C294.384 55.0473 294.228 54.9198 294.116 54.7576C293.962 54.533 293.901 54.2323 293.933 53.8556C293.965 53.479 294.046 53.0609 294.177 52.6014L295.722 46.9724C295.777 46.7884 295.817 46.5729 295.843 46.3259C295.881 46.0653 295.863 45.8399 295.788 45.6499C295.713 45.447 295.52 45.3537 295.211 45.3701C294.901 45.3864 294.58 45.5392 294.246 45.8284C293.912 46.1176 293.571 46.5235 293.224 47.0462C292.876 47.5559 292.54 48.1685 292.215 48.8839C291.89 49.5864 291.582 50.3656 291.291 51.2215C291.013 52.0638 290.763 52.9628 290.542 53.9184L290.96 51.1809ZM300.269 54.4325C300.374 54.4787 300.486 54.518 300.605 54.5505C300.735 54.5695 300.923 54.5725 301.168 54.5596C301.735 54.5296 302.19 54.3375 302.534 53.9831C302.889 53.6152 303.05 53.1089 303.016 52.4641C302.995 52.0644 302.897 51.6752 302.721 51.2965C302.558 50.9042 302.276 50.4601 301.875 49.9641C301.557 49.5671 301.251 49.163 300.958 48.7518C300.664 48.3276 300.501 47.819 300.47 47.2258C300.44 46.6713 300.551 46.1871 300.8 45.773C301.049 45.3461 301.393 45.0046 301.832 44.7487C302.284 44.492 302.781 44.3494 303.323 44.3208C303.697 44.301 304.067 44.3268 304.432 44.3979C304.798 44.4691 305.104 44.6211 305.349 44.8538C305.606 45.073 305.747 45.4147 305.771 45.8789C305.777 45.995 305.753 46.1385 305.697 46.3096C305.654 46.467 305.571 46.6072 305.448 46.7301C305.325 46.8529 305.154 46.9201 304.935 46.9317C304.728 46.9426 304.544 46.8812 304.382 46.7476C304.219 46.601 304.131 46.4052 304.118 46.1602C304.106 45.9281 304.139 45.7065 304.219 45.4954C304.31 45.2708 304.435 45.0508 304.591 44.8357C304.338 44.6939 304.012 44.6335 303.612 44.6547C303.135 44.6799 302.744 44.8622 302.438 45.2016C302.133 45.541 301.995 46.0008 302.026 46.5811C302.042 46.8777 302.101 47.1396 302.203 47.367C302.305 47.5814 302.447 47.8067 302.627 48.0429C302.821 48.2783 303.05 48.5766 303.314 48.9376C303.663 49.4106 303.958 49.8669 304.201 50.3067C304.444 50.7464 304.579 51.2177 304.606 51.7206C304.637 52.3138 304.51 52.8507 304.225 53.3312C303.953 53.7982 303.572 54.174 303.082 54.4584C302.593 54.7429 302.045 54.9011 301.439 54.9332C301.001 54.9563 300.578 54.914 300.172 54.8062C299.765 54.6983 299.426 54.5158 299.154 54.2587C298.894 53.9879 298.752 53.6204 298.727 53.1562C298.717 52.9757 298.766 52.7856 298.871 52.5861C298.964 52.3743 299.152 52.2609 299.435 52.246C299.745 52.2296 299.971 52.347 300.113 52.5981C300.255 52.8362 300.334 53.1101 300.351 53.4196C300.362 53.6259 300.352 53.8139 300.322 53.9836C300.305 54.1397 300.287 54.2893 300.269 54.4325Z" fill="#2F2F2F"/>
</svg>
