<svg width="323" height="766" viewBox="0 0 323 766" fill="none" xmlns="http://www.w3.org/2000/svg">
<path d="M260.956 476.601L260.502 473.504L257.627 473.924L257.833 476.823L260.956 476.601ZM268.88 475.442L271.92 474.694L271.241 471.932L268.427 472.344L268.88 475.442ZM273.794 511.565L270.663 511.536L270.663 511.604L270.665 511.671L273.794 511.565ZM270.232 539.997L273.208 540.967L273.211 540.958L270.232 539.997ZM255.649 566.227L253.145 564.348L253.134 564.362L253.124 564.376L255.649 566.227ZM174.902 610.791L174.34 607.711L174.322 607.714L174.305 607.718L174.902 610.791ZM120.717 618.161L120.451 615.042L120.717 618.161ZM59.1046 627.549L58.4559 624.486L58.3966 624.499L58.3377 624.514L59.1046 627.549ZM52.5353 629.068L51.901 626.003L52.5353 629.068ZM47.0724 630.519L46.0627 627.556L45.226 627.841L44.662 628.521L47.0724 630.519ZM-0.177294 663.669L-0.671765 660.577L-0.671768 660.577L-0.177294 663.669ZM42.5938 622.801L43.6034 625.764L44.3103 625.523L44.8323 624.989L42.5938 622.801ZM63.4551 597.513L60.8939 595.713L60.8657 595.753L60.8389 595.793L63.4551 597.513ZM80.4574 574.464L78.005 572.518L77.9928 572.534L77.9808 572.549L80.4574 574.464ZM105.702 551.791L108.306 550.054L106.544 547.412L103.928 549.211L105.702 551.791ZM110.112 558.402L111.944 560.94L114.389 559.174L112.716 556.665L110.112 558.402ZM90.5523 576.057L88.1505 574.049L88.1108 574.097L88.073 574.146L90.5523 576.057ZM76.4137 595.151L78.9645 596.966L76.4137 595.151ZM58.8449 616.236L56.562 614.094L59.8546 619.199L58.8449 616.236ZM110.806 598.12L111.855 601.07L110.806 598.12ZM164.414 577.902L163.249 574.997L164.414 577.902ZM249.936 520.824L247.319 519.105L247.311 519.118L247.303 519.13L249.936 520.824ZM-4.18145 228.101L-4.24016 231.231L-4.23049 231.231L-4.22082 231.231L-4.18145 228.101ZM74.2651 253.651L72.5071 256.241L72.5265 256.254L72.546 256.267L74.2651 253.651ZM171.122 421.55L167.999 421.775L168 421.79L168.002 421.805L171.122 421.55ZM155.693 505.587L152.898 504.178L155.693 505.587ZM14.3356 589.907L14.2769 593.037L14.2866 593.037L14.2962 593.037L14.3356 589.907ZM-64.111 564.357L-65.8689 566.947L-65.856 566.956L-65.843 566.965L-64.111 564.357ZM-160.539 396.209L-163.661 396.433L-160.539 396.209ZM-145.11 312.173L-147.906 310.764L-147.911 310.773L-147.915 310.782L-145.11 312.173ZM-120.548 307.09L-123.546 306.189L-123.546 306.189L-120.548 307.09ZM-121.854 378.919L-124.924 379.53L-124.92 379.548L-124.917 379.565L-121.854 378.919ZM-29.0047 535.961L-31.005 538.369L-30.9865 538.385L-30.9678 538.4L-29.0047 535.961ZM35.4035 567.938L34.8292 571.015L34.8621 571.022L34.8951 571.027L35.4035 567.938ZM131.131 510.669L128.133 509.768L131.131 510.669ZM132.008 439.089L128.94 439.712L128.942 439.724L128.945 439.735L132.008 439.089ZM39.1588 282.047L37.1685 284.463L37.182 284.474L37.1957 284.485L39.1588 282.047ZM-24.5717 250.25L-25.1459 253.327L-25.1281 253.331L-25.1102 253.334L-24.5717 250.25ZM261.409 479.699L269.333 478.539L268.427 472.344L260.502 473.504L261.409 479.699ZM265.84 476.189C269.169 489.73 270.755 501.5 270.663 511.536L276.924 511.594C277.022 500.885 275.332 488.574 271.92 474.694L265.84 476.189ZM270.665 511.671C271.012 521.865 269.855 530.973 267.253 539.035L273.211 540.958C276.071 532.095 277.289 522.248 276.922 511.459L270.665 511.671ZM267.256 539.027C264.784 546.608 260.126 555.045 253.145 564.348L258.153 568.106C265.393 558.458 270.457 549.408 273.208 540.967L267.256 539.027ZM253.124 564.376C246.644 573.216 236.335 581.839 221.973 590.174L225.115 595.589C239.909 587.004 251.004 577.858 258.173 568.078L253.124 564.376ZM221.973 590.174C207.136 598.783 191.264 604.627 174.34 607.711L175.463 613.871C193.096 610.658 209.652 604.562 225.115 595.589L221.973 590.174ZM174.305 607.718C157.601 610.963 139.65 613.405 120.451 615.042L120.982 621.28C140.376 619.627 158.55 617.156 175.498 613.864L174.305 607.718ZM120.451 615.042C101.008 616.7 80.3417 619.85 58.4559 624.486L59.7533 630.611C81.423 626.021 101.831 622.913 120.982 621.28L120.451 615.042ZM58.3377 624.514C56.0426 625.093 53.8974 625.589 51.901 626.003L53.1696 632.134C55.2669 631.7 57.5012 631.183 59.8715 630.584L58.3377 624.514ZM51.901 626.003C49.7558 626.446 47.8057 626.962 46.0627 627.556L48.082 633.482C49.5293 632.989 51.2211 632.537 53.1696 632.134L51.901 626.003ZM44.662 628.521C40.5186 633.521 35.701 638.366 30.1994 643.054L34.2597 647.819C40.0085 642.921 45.0861 637.821 49.4827 632.516L44.662 628.521ZM30.1994 643.054C24.7006 647.738 19.182 651.681 13.6451 654.894L16.7875 660.309C22.6846 656.887 28.5081 652.72 34.2597 647.819L30.1994 643.054ZM13.6451 654.894C8.12762 658.096 3.36749 659.931 -0.671765 660.577L0.317173 666.76C5.36875 665.952 10.871 663.742 16.7875 660.309L13.6451 654.894ZM-0.671768 660.577C-2.63043 660.891 -3.98645 660.766 -4.89583 660.454C-5.72865 660.168 -6.32143 659.684 -6.77594 658.9L-12.1911 662.043C-10.9869 664.118 -9.19927 665.596 -6.93001 666.375C-4.7373 667.128 -2.26958 667.173 0.317176 666.76L-0.671768 660.577ZM-6.77594 658.9C-7.2768 658.037 -7.41803 657.202 -7.24412 656.262C-7.05592 655.244 -6.46114 653.932 -5.16816 652.313C-2.54953 649.036 2.39534 645.161 10.0164 640.739L6.87404 635.324C-0.940759 639.859 -6.70196 644.203 -10.0595 648.405C-11.7547 650.527 -12.9656 652.77 -13.4006 655.123C-13.8499 657.553 -13.4319 659.904 -12.1911 662.043L-6.77594 658.9ZM10.0164 640.739C19.8164 635.052 31.0064 630.056 43.6034 625.764L41.5841 619.838C28.6592 624.242 17.0835 629.399 6.87404 635.324L10.0164 640.739ZM44.8323 624.989C53.5672 616.054 60.659 607.468 66.0712 599.232L60.8389 595.793C55.6997 603.614 48.884 611.888 40.3552 620.612L44.8323 624.989ZM66.0163 599.313C71.4301 591.609 77.0693 583.964 82.934 576.378L77.9808 572.549C72.059 580.209 66.3633 587.93 60.8939 595.713L66.0163 599.313ZM82.9098 576.409C88.8477 568.925 97.0094 561.57 107.476 554.37L103.928 549.211C93.0934 556.665 84.4255 564.425 78.005 572.518L82.9098 576.409ZM103.098 553.528L107.507 560.139L112.716 556.665L108.306 550.054L103.098 553.528ZM108.279 555.864C100.047 561.809 93.3189 567.866 88.1505 574.049L92.9542 578.064C97.7092 572.376 104.021 566.663 111.944 560.94L108.279 555.864ZM88.073 574.146C83.2524 580.4 78.5157 586.797 73.863 593.337L78.9645 596.966C83.5716 590.49 88.2607 584.158 93.0317 577.968L88.073 574.146ZM73.863 593.337C69.3346 599.701 63.5746 606.62 56.562 614.094L61.1278 618.378C68.2804 610.755 74.2329 603.617 78.9645 596.966L73.863 593.337ZM59.8546 619.199C75.8207 613.759 93.1542 607.716 111.855 601.07L109.758 595.17C91.0789 601.809 73.7715 607.843 57.8352 613.273L59.8546 619.199ZM111.855 601.07C130.58 594.415 148.489 587.661 165.579 580.808L163.249 574.997C146.242 581.816 128.412 588.541 109.758 595.17L111.855 601.07ZM165.579 580.808C182.714 573.937 196.96 567.221 208.28 560.652L205.138 555.236C194.162 561.606 180.211 568.195 163.249 574.997L165.579 580.808ZM208.28 560.652C229.073 548.586 243.954 535.909 252.568 522.518L247.303 519.13C239.444 531.347 225.508 543.416 205.138 555.236L208.28 560.652ZM252.552 522.543C261.477 508.96 265.299 493.528 264.078 476.379L257.833 476.823C258.963 492.699 255.439 506.749 247.319 519.105L252.552 522.543ZM-84.4857 253.674C-57.7516 238.161 -31.0176 230.729 -4.24016 231.231L-4.12274 224.971C-32.2011 224.444 -60.0507 232.256 -87.628 248.259L-84.4857 253.674ZM-4.22082 231.231C22.8349 231.571 48.3925 239.875 72.5071 256.241L76.023 251.061C50.9698 234.057 24.2298 225.328 -4.14209 224.971L-4.22082 231.231ZM72.546 256.267C96.7447 272.168 118.328 296.312 137.227 328.881L142.642 325.738C123.39 292.561 101.193 267.6 75.9842 251.035L72.546 256.267ZM137.227 328.881C155.613 360.565 165.826 391.522 167.999 421.775L174.244 421.326C171.99 389.954 161.412 358.084 142.642 325.738L137.227 328.881ZM168.002 421.805C170.458 451.926 165.403 479.356 152.898 504.178L158.489 506.995C171.554 481.061 176.784 452.467 174.242 421.296L168.002 421.805ZM152.898 504.178C140.408 528.969 121.172 548.938 95.0685 564.085L98.2109 569.5C125.276 553.795 145.408 532.96 158.489 506.995L152.898 504.178ZM95.0685 564.085C68.3354 579.598 41.4515 587.117 14.3749 586.777L14.2962 593.037C42.6472 593.394 70.6327 585.504 98.2109 569.5L95.0685 564.085ZM14.3943 586.777C-12.385 586.275 -37.9602 577.969 -62.3789 561.75L-65.843 566.965C-40.5222 583.783 -13.7996 592.51 14.2769 593.037L14.3943 586.777ZM-62.353 561.767C-86.458 545.407 -107.909 521.165 -126.644 488.879L-132.059 492.021C-112.975 524.909 -90.9318 549.938 -65.8689 566.947L-62.353 561.767ZM-126.644 488.879C-145.03 457.195 -155.243 426.237 -157.416 395.985L-163.661 396.433C-161.407 427.805 -150.829 459.675 -132.059 492.021L-126.644 488.879ZM-157.416 395.985C-159.594 365.673 -154.533 338.227 -142.306 313.563L-147.915 310.782C-160.686 336.543 -165.911 365.12 -163.661 396.433L-157.416 395.985ZM-142.315 313.581C-129.825 288.79 -110.589 268.821 -84.4857 253.674L-87.628 248.259C-114.693 263.964 -134.825 284.799 -147.906 310.764L-142.315 313.581ZM-84.8645 256.972C-104.142 268.158 -117.064 284.613 -123.546 306.189L-117.55 307.991C-111.519 287.917 -99.6051 272.764 -81.7221 262.387L-84.8645 256.972ZM-123.546 306.189C-129.984 327.619 -130.384 352.099 -124.924 379.53L-118.783 378.308C-124.096 351.618 -123.625 328.211 -117.55 307.991L-123.546 306.189ZM-124.917 379.565C-119.161 406.855 -107.555 435.478 -90.1768 465.425L-84.7617 462.283C-101.886 432.773 -113.202 404.773 -118.791 378.273L-124.917 379.565ZM-90.1768 465.425C-72.4554 495.964 -52.7446 520.31 -31.005 538.369L-27.0044 533.553C-48.0522 516.069 -67.3178 492.343 -84.7617 462.283L-90.1768 465.425ZM-30.9678 538.4C-9.15636 555.96 12.7774 566.901 34.8292 571.015L35.9777 564.861C15.1794 560.98 -5.82561 550.603 -27.0416 533.523L-30.9678 538.4ZM34.8951 571.027C57.0927 574.68 77.3288 571.301 95.4474 560.787L92.305 555.372C75.55 565.095 56.8043 568.288 35.9118 564.849L34.8951 571.027ZM95.4474 560.787C114.725 549.601 127.647 533.146 134.129 511.57L128.133 509.768C122.102 529.842 110.188 544.995 92.305 555.372L95.4474 560.787ZM134.129 511.57C140.571 490.127 140.823 465.718 135.071 438.443L128.945 439.735C134.537 466.25 134.204 489.561 128.133 509.768L134.129 511.57ZM135.076 438.466C129.443 410.722 117.979 382.009 100.76 352.334L95.3446 355.477C112.295 384.687 123.469 412.763 128.94 439.712L135.076 438.466ZM100.76 352.334C82.8699 321.505 63.0057 297.226 41.1219 279.608L37.1957 284.485C58.3393 301.507 77.7372 325.134 95.3446 355.477L100.76 352.334ZM41.1491 279.631C19.6157 261.893 -2.11334 250.994 -24.0333 247.166L-25.1102 253.334C-4.51173 256.93 16.2463 267.229 37.1685 284.463L41.1491 279.631ZM-23.9975 247.173C-46.1081 243.047 -66.4506 246.287 -84.8645 256.972L-81.7221 262.387C-64.6907 252.504 -45.8855 249.457 -25.1459 253.327L-23.9975 247.173Z" fill="#2F2F2F"/>
<mask id="mask0_247_1556" style="mask-type:alpha" maskUnits="userSpaceOnUse" x="-69" y="513" width="190" height="190">
<circle cx="26.3119" cy="607.687" r="94.637" transform="rotate(-30.9091 26.3119 607.687)" fill="#D9D9D9"/>
</mask>
<g mask="url(#mask0_247_1556)">
<path d="M260.956 476.601L268.88 475.442C272.251 489.152 273.889 501.193 273.794 511.565C274.15 522.057 272.963 531.534 270.232 539.997C267.621 548.008 262.76 556.751 255.649 566.227C248.824 575.537 238.122 584.422 223.544 592.881C208.394 601.673 192.18 607.643 174.902 610.791C158.075 614.059 140.013 616.516 120.717 618.161C101.42 619.806 80.8823 622.935 59.1046 627.549C56.7719 628.138 54.5822 628.644 52.5353 629.068C50.4885 629.492 48.6675 629.975 47.0724 630.519C42.8023 635.671 37.8547 640.644 32.2296 645.436C26.6044 650.229 20.9333 654.284 15.2163 657.602C9.49931 660.919 4.36811 662.941 -0.177297 663.669C-4.72271 664.396 -7.82479 663.33 -9.48353 660.471C-12.9669 654.469 -6.99064 646.989 8.44522 638.031C18.4499 632.226 29.8328 627.149 42.5938 622.801C51.2256 613.971 58.1794 605.541 63.4551 597.513C68.8967 589.77 74.5641 582.087 80.4574 574.464C86.6366 566.675 95.0514 559.117 105.702 551.791L110.112 558.402C102.034 564.236 95.514 570.121 90.5524 576.057C85.7565 582.279 81.0437 588.644 76.4137 595.151C71.7838 601.659 65.9275 608.687 58.8449 616.236C74.7961 610.801 92.1166 604.762 110.806 598.12C129.496 591.478 147.365 584.738 164.414 577.902C181.463 571.066 195.561 564.413 206.709 557.944C227.29 546.001 241.699 533.628 249.936 520.824C258.458 507.855 262.131 493.114 260.956 476.601ZM-86.0568 250.966C-58.9011 235.208 -31.6094 227.587 -4.18146 228.101C23.5323 228.45 49.6811 236.966 74.2651 253.651C98.969 269.884 120.859 294.437 139.934 327.309C158.512 359.324 168.908 390.738 171.122 421.55C173.621 452.197 168.478 480.209 155.693 505.587C142.908 530.964 123.224 551.367 96.6397 566.793C69.484 582.551 42.0493 590.256 14.3356 589.907C-13.0923 589.393 -39.2412 580.876 -64.111 564.357C-88.6949 547.673 -110.442 523.037 -129.351 490.45C-147.929 458.435 -158.325 427.021 -160.539 396.209C-162.752 365.397 -157.61 337.385 -145.11 312.173C-132.325 286.795 -112.641 266.393 -86.0568 250.966ZM-83.2933 259.68C-101.874 270.461 -114.292 286.265 -120.548 307.09C-126.805 327.915 -127.24 351.858 -121.854 378.919C-116.182 405.814 -104.72 434.125 -87.4693 463.854C-69.8866 494.154 -50.3984 518.19 -29.0047 535.961C-7.49099 553.281 13.9784 563.94 35.4034 567.938C56.9485 571.484 76.4394 568.198 93.8762 558.08C112.456 547.298 124.875 531.494 131.131 510.669C137.388 489.844 137.68 465.984 132.008 439.089C126.456 411.743 115.137 383.348 98.0522 353.906C80.3036 323.32 60.6725 299.367 39.1588 282.047C17.931 264.561 -3.31253 253.962 -24.5717 250.25C-45.9968 246.252 -65.5707 249.395 -83.2933 259.68Z" fill="#2F2F2F"/>
<path d="M260.956 476.601L260.903 476.243L260.571 476.292L260.595 476.627L260.956 476.601ZM268.88 475.442L269.231 475.355L269.153 475.036L268.828 475.084L268.88 475.442ZM273.794 511.565L273.432 511.562L273.432 511.569L273.432 511.577L273.794 511.565ZM270.232 539.997L270.576 540.109L270.576 540.108L270.232 539.997ZM255.649 566.227L255.36 566.01L255.357 566.013L255.649 566.227ZM174.902 610.791L174.837 610.435L174.833 610.436L174.902 610.791ZM120.717 618.161L120.686 617.801L120.717 618.161ZM59.1046 627.549L59.0296 627.195L59.0161 627.198L59.1046 627.549ZM52.5353 629.068L52.462 628.714L52.5353 629.068ZM47.0724 630.519L46.9558 630.176L46.8591 630.209L46.794 630.288L47.0724 630.519ZM-0.177294 663.669L-0.234412 663.312L-0.177294 663.669ZM42.5938 622.801L42.7104 623.143L42.792 623.115L42.8523 623.053L42.5938 622.801ZM63.4551 597.513L63.1591 597.305L63.1529 597.314L63.4551 597.513ZM80.4574 574.464L80.1742 574.239L80.1714 574.243L80.4574 574.464ZM105.702 551.791L106.003 551.59L105.799 551.285L105.497 551.493L105.702 551.791ZM110.112 558.402L110.323 558.695L110.606 558.491L110.412 558.202L110.112 558.402ZM90.5523 576.057L90.2749 575.825L90.2704 575.83L90.266 575.836L90.5523 576.057ZM76.4137 595.151L76.7083 595.361L76.4137 595.151ZM58.8449 616.236L58.5812 615.989L58.9615 616.578L58.8449 616.236ZM110.806 598.12L110.927 598.461L110.806 598.12ZM164.414 577.902L164.279 577.567L164.414 577.902ZM249.936 520.824L249.633 520.626L249.632 520.628L249.936 520.824ZM-4.18145 228.101L-4.18824 228.463L-4.18601 228.463L-4.18145 228.101ZM74.2651 253.651L74.062 253.95L74.0665 253.953L74.2651 253.651ZM171.122 421.55L170.761 421.576L170.761 421.58L171.122 421.55ZM155.693 505.587L155.37 505.424L155.693 505.587ZM14.3356 589.907L14.3288 590.269L14.331 590.269L14.3356 589.907ZM-64.111 564.357L-64.314 564.656L-64.311 564.658L-64.111 564.357ZM-160.539 396.209L-160.899 396.235L-160.539 396.209ZM-145.11 312.173L-145.433 312.01L-145.434 312.012L-145.11 312.173ZM-120.548 307.09L-120.895 306.986L-120.548 307.09ZM-121.854 378.919L-122.208 378.99L-122.207 378.994L-121.854 378.919ZM-29.0047 535.961L-29.2357 536.24L-29.2314 536.243L-29.0047 535.961ZM35.4035 567.938L35.3371 568.294L35.3447 568.295L35.4035 567.938ZM131.131 510.669L130.785 510.565L131.131 510.669ZM132.008 439.089L131.653 439.161L131.654 439.164L132.008 439.089ZM39.1588 282.047L38.9289 282.326L38.9321 282.328L39.1588 282.047ZM-24.5717 250.25L-24.638 250.605L-24.6339 250.606L-24.5717 250.25ZM261.008 476.959L268.932 475.799L268.828 475.084L260.903 476.243L261.008 476.959ZM268.529 475.528C271.895 489.219 273.527 501.228 273.432 511.562L274.155 511.568C274.25 501.157 272.607 489.085 269.231 475.355L268.529 475.528ZM273.432 511.577C273.788 522.035 272.604 531.469 269.888 539.886L270.576 540.108C273.322 531.599 274.513 522.079 274.155 511.553L273.432 511.577ZM269.888 539.885C267.293 547.846 262.455 556.554 255.36 566.01L255.938 566.444C263.064 556.948 267.948 548.17 270.576 540.109L269.888 539.885ZM255.357 566.013C248.572 575.269 237.916 584.123 223.362 592.569L223.725 593.194C238.329 584.72 249.076 575.805 255.94 566.441L255.357 566.013ZM223.362 592.569C208.249 601.339 192.074 607.294 174.837 610.435L174.966 611.147C192.286 607.991 208.539 602.006 223.725 593.194L223.362 592.569ZM174.833 610.436C158.02 613.702 139.971 616.157 120.686 617.801L120.747 618.522C140.055 616.875 158.13 614.417 174.97 611.146L174.833 610.436ZM120.686 617.801C101.372 619.448 80.8199 622.579 59.0297 627.195L59.1795 627.902C80.9448 623.292 101.467 620.165 120.747 618.522L120.686 617.801ZM59.0161 627.198C56.6877 627.786 54.5031 628.292 52.462 628.714L52.6086 629.422C54.6612 628.997 56.8562 628.49 59.1932 627.899L59.0161 627.198ZM52.462 628.714C50.4039 629.14 48.568 629.627 46.9558 630.176L47.189 630.861C48.767 630.323 50.5731 629.843 52.6086 629.422L52.462 628.714ZM46.794 630.288C42.5386 635.423 37.606 640.381 31.9951 645.161L32.464 645.712C38.1035 640.907 43.0661 635.92 47.3507 630.749L46.794 630.288ZM31.9951 645.161C26.3845 649.941 20.731 653.983 15.0348 657.289L15.3978 657.914C21.1355 654.585 26.8243 650.517 32.464 645.712L31.9951 645.161ZM15.0348 657.289C9.34089 660.593 4.25255 662.594 -0.234412 663.312L-0.12018 664.026C4.48369 663.289 9.65773 661.245 15.3978 657.914L15.0348 657.289ZM-0.234412 663.312C-2.47085 663.669 -4.31852 663.58 -5.79545 663.073C-7.26352 662.568 -8.38475 661.645 -9.17082 660.29L-9.79624 660.653C-8.92358 662.157 -7.66437 663.195 -6.03039 663.757C-4.40523 664.315 -2.42916 664.395 -0.12018 664.026L-0.234412 663.312ZM-9.17082 660.29C-9.99894 658.863 -10.2626 657.357 -9.96684 655.758C-9.66951 654.15 -8.80223 652.426 -7.3314 650.585C-4.38596 646.898 0.919952 642.816 8.62669 638.344L8.26374 637.719C0.534627 642.204 -4.86553 646.34 -7.89634 650.134C-9.41362 652.033 -10.352 653.864 -10.6779 655.627C-11.0054 657.398 -10.7098 659.079 -9.79624 660.653L-9.17082 660.29ZM8.62669 638.344C18.6078 632.552 29.9683 627.485 42.7104 623.143L42.4771 622.458C29.6972 626.813 18.2921 631.899 8.26374 637.719L8.62669 638.344ZM42.8523 623.053C51.496 614.211 58.4657 605.764 63.7572 597.711L63.1529 597.314C57.893 605.319 50.9552 613.73 42.3352 622.548L42.8523 623.053ZM63.7509 597.72C69.1892 589.982 74.8534 582.304 80.7435 574.685L80.1714 574.243C74.2748 581.87 68.6041 589.557 63.1593 597.305L63.7509 597.72ZM80.7407 574.688C86.892 566.935 95.2776 559.401 105.907 552.088L105.497 551.493C94.8253 558.834 86.3812 566.415 80.1742 574.239L80.7407 574.688ZM105.401 551.991L109.811 558.603L110.412 558.202L106.003 551.59L105.401 551.991ZM109.9 558.109C101.804 563.956 95.2605 569.86 90.2749 575.825L90.8298 576.289C95.7676 570.381 102.263 564.516 110.323 558.695L109.9 558.109ZM90.266 575.836C85.4673 582.062 80.7517 588.43 76.1191 594.942L76.7083 595.361C81.3356 588.857 86.0458 582.496 90.8387 576.278L90.266 575.836ZM76.1191 594.942C71.5009 601.433 65.6558 608.449 58.5812 615.989L59.1086 616.484C66.1993 608.926 72.0667 601.885 76.7083 595.361L76.1191 594.942ZM58.9615 616.578C74.9144 611.143 92.2364 605.103 110.927 598.461L110.685 597.779C91.9967 604.421 74.6778 610.459 58.7283 615.894L58.9615 616.578ZM110.927 598.461C129.621 591.817 147.495 585.076 164.549 578.238L164.279 577.567C147.235 584.401 129.371 591.139 110.685 597.779L110.927 598.461ZM164.549 578.238C181.607 571.397 195.723 564.737 206.891 558.257L206.528 557.631C195.4 564.089 181.318 570.734 164.279 577.567L164.549 578.238ZM206.891 558.257C227.496 546.3 241.96 533.891 250.24 521.02L249.632 520.628C241.439 533.364 227.084 545.703 206.528 557.631L206.891 558.257ZM250.238 521.023C258.807 507.982 262.497 493.161 261.316 476.575L260.595 476.627C261.765 493.066 258.109 507.727 249.633 520.626L250.238 521.023ZM-85.8754 251.279C-58.7684 235.549 -31.541 227.949 -4.18823 228.463L-4.17468 227.74C-31.6777 227.224 -59.0339 234.867 -86.2383 250.654L-85.8754 251.279ZM-4.18601 228.463C23.4518 228.81 49.5323 237.302 74.0621 253.95L74.4681 253.352C49.83 236.63 23.6129 228.089 -4.17689 227.739L-4.18601 228.463ZM74.0665 253.953C98.7121 270.148 120.566 294.653 139.622 327.491L140.247 327.128C121.151 294.22 99.2259 269.62 74.4636 253.349L74.0665 253.953ZM139.622 327.491C158.177 359.468 168.552 390.829 170.761 421.576L171.482 421.524C169.264 390.648 158.847 359.181 140.247 327.128L139.622 327.491ZM170.761 421.58C173.256 452.165 168.123 480.11 155.37 505.424L156.016 505.749C168.834 480.307 173.986 452.228 171.482 421.521L170.761 421.58ZM155.37 505.424C142.62 530.734 122.987 551.086 96.4582 566.48L96.8212 567.106C123.461 551.647 143.197 531.195 156.016 505.749L155.37 505.424ZM96.4582 566.48C69.3514 582.21 41.9803 589.893 14.3401 589.546L14.331 590.269C42.1184 590.618 69.6167 582.892 96.8212 567.106L96.4582 566.48ZM14.3424 589.546C-13.0106 589.033 -39.0932 580.54 -63.9109 564.056L-64.311 564.658C-39.3891 581.212 -13.174 589.753 14.3288 590.269L14.3424 589.546ZM-63.9079 564.058C-88.4366 547.411 -110.149 522.821 -129.039 490.269L-129.664 490.631C-110.734 523.253 -88.9533 547.934 -64.314 564.656L-63.9079 564.058ZM-129.039 490.269C-147.594 458.292 -157.969 426.931 -160.178 396.183L-160.899 396.235C-158.681 427.112 -148.264 458.578 -129.664 490.631L-129.039 490.269ZM-160.178 396.183C-162.388 365.429 -157.254 337.482 -144.786 312.333L-145.434 312.012C-157.965 337.287 -163.117 365.365 -160.899 396.235L-160.178 396.183ZM-144.787 312.335C-132.037 287.025 -112.404 266.673 -85.8754 251.279L-86.2383 250.654C-112.878 266.112 -132.614 286.564 -145.433 312.01L-144.787 312.335ZM-83.4748 259.367C-102.135 270.195 -114.612 286.074 -120.895 306.986L-120.202 307.194C-113.972 286.456 -101.612 270.727 -83.1118 259.992L-83.4748 259.367ZM-120.895 306.986C-127.172 327.881 -127.603 351.886 -122.208 378.99L-121.499 378.848C-126.877 351.83 -126.437 327.95 -120.202 307.194L-120.895 306.986ZM-122.207 378.994C-116.526 405.934 -105.048 434.282 -87.782 464.035L-87.1565 463.672C-104.393 433.969 -115.838 405.694 -121.5 378.844L-122.207 378.994ZM-87.782 464.035C-70.1832 494.363 -50.6693 518.435 -29.2357 536.239L-28.7736 535.683C-50.1274 517.945 -69.5899 493.945 -87.1565 463.672L-87.782 464.035ZM-29.2314 536.243C-7.68333 553.591 13.8397 564.282 35.3371 568.294L35.4698 567.583C14.1171 563.598 -7.29864 552.972 -28.7779 535.68L-29.2314 536.243ZM35.3447 568.295C56.9651 571.853 76.5421 568.556 94.0577 558.392L93.6948 557.767C76.3367 567.84 56.9318 571.115 35.4622 567.581L35.3447 568.295ZM94.0577 558.392C112.718 547.564 125.195 531.685 131.477 510.773L130.785 510.565C124.555 531.304 112.194 547.032 93.6948 557.767L94.0577 558.392ZM131.477 510.773C137.755 489.877 138.043 465.953 132.362 439.015L131.654 439.164C137.317 466.015 137.02 489.811 130.785 510.565L131.477 510.773ZM132.362 439.017C126.801 411.625 115.465 383.193 98.3649 353.724L97.7394 354.087C114.809 383.503 126.111 411.86 131.653 439.161L132.362 439.017ZM98.3649 353.724C80.6 323.11 60.942 299.12 39.3855 281.765L38.9321 282.328C60.403 299.614 80.0072 323.529 97.7394 354.087L98.3649 353.724ZM39.3887 281.768C18.1256 264.253 -3.17403 253.619 -24.5095 249.894L-24.6339 250.606C-3.45103 254.305 17.7364 264.869 38.9289 282.326L39.3887 281.768ZM-24.5054 249.895C-46.0096 245.882 -65.6723 249.036 -83.4748 259.367L-83.1118 259.992C-65.469 249.754 -45.9839 246.622 -24.638 250.605L-24.5054 249.895Z" fill="#2F2F2F"/>
</g>
</svg>
